<?xml version="1.0" encoding="utf-8"?>
<!-- Generator: Adobe Illustrator 24.3.0, SVG Export Plug-In . SVG Version: 6.00 Build 0)  -->
<svg version="1.1" id="Layer_1" xmlns="http://www.w3.org/2000/svg" xmlns:xlink="http://www.w3.org/1999/xlink" x="0px" y="0px"
	 viewBox="0 0 200.5 43.5" style="enable-background:new 0 0 200.5 43.5;" xml:space="preserve">
<style type="text/css">
	.st0{fill:#B3B3B3;}
</style>
<g>
	<g>
		<g>
			<g>
				<g>
					<g>
						<path class="st0" d="M121.5,39.6l6.7-7.2c-3.4,1.1-8.3,2.4-12.5,2.4c-10.7,0-13.8-5.8-13.7-10.7c0-7.6,6.5-15.2,16.8-15.2
							c6.5,0,9.7,2.4,11.3,4.2l4.3-9.3C128.6,0,119.7,0,118,0C97.7,0,87.2,11.8,87.2,24.7c0,10.4,7.8,18.6,22.2,18.6
							c3.9,0,8.2-1.2,9.9-1.5L121.5,39.6z"/>
					</g>
					<g>
						<path class="st0" d="M81.9,39.6l6.7-7.2c-3.5,1.1-8.3,2.4-12.5,2.4c-10.7,0-13.7-5.8-13.7-10.7c0-7.6,6.6-15.2,16.8-15.2
							c6.5,0,9.7,2.4,11.3,4.2l4.3-9.3C89,0,80.1,0,78.4,0C58.1,0,47.6,11.8,47.6,24.7c0,10.4,7.8,18.6,22.3,18.6
							c3.9,0,8.2-1.2,9.9-1.5L81.9,39.6z"/>
					</g>
					<path class="st0" d="M34.2,1.3H12.8L0,42.2h15l4.2-13.3c2.4,0.4,5.4,0.7,8.4,0.7c4.1,0,10-0.3,15.1-3.7c4-2.7,6.8-7.5,7-12.2
						C50,5.5,41.4,1.3,34.2,1.3z M34.5,15.7c-0.4,1.6-2.4,4.5-6.5,4.8c-2,0.3-4.5,0.2-6.1-0.4l3-9.7h5
						C32.4,10.4,35.5,12.2,34.5,15.7z"/>
					<path class="st0" d="M177.2,42.1h-15.6l-0.5-19.4l-10.2,19.4h-17.5l1-40.9h14.1l-1.6,23.7l14.4-23.7H172l1.6,23.8l10.8-23.8
						h15.2L177.2,42.1z"/>
				</g>
			</g>
		</g>
	</g>
</g>
</svg>
