<?xml version="1.0" encoding="utf-8"?>
<!-- Generator: Adobe Illustrator 24.3.0, SVG Export Plug-In . SVG Version: 6.00 Build 0)  -->
<svg version="1.1" id="Layer_1" xmlns="http://www.w3.org/2000/svg" xmlns:xlink="http://www.w3.org/1999/xlink" x="0px" y="0px"
	 viewBox="0 0 315.3 56.8" style="enable-background:new 0 0 315.3 56.8;" xml:space="preserve">
<style type="text/css">
	.st0{fill:#B3B3B3;}
</style>
<g id="Layer_1_1_">
</g>
<g id="Layer_2_1_">
	<g>
		<g>
			<g>
				<g>
					<g>
						<g>
							<g>
								<path class="st0" d="M231.4,47.4l6.7-7.2c-3.4,1.1-8.3,2.4-12.5,2.4c-10.7,0-13.8-5.8-13.7-10.7c0-7.6,6.5-15.2,16.8-15.2
									c6.5,0,9.7,2.4,11.3,4.2l4.3-9.3c-5.8-3.8-14.7-3.8-16.4-3.8c-20.3,0-30.8,11.8-30.8,24.7c0,10.4,7.8,18.6,22.2,18.6
									c3.9,0,8.2-1.2,9.9-1.5L231.4,47.4z"/>
							</g>
							<g>
								<path class="st0" d="M191.8,47.4l6.7-7.2c-3.5,1.1-8.3,2.4-12.5,2.4c-10.7,0-13.7-5.8-13.7-10.7c0-7.6,6.6-15.2,16.8-15.2
									c6.5,0,9.7,2.4,11.3,4.2l4.3-9.3c-5.8-3.8-14.7-3.8-16.4-3.8c-20.3,0-30.8,11.8-30.8,24.7c0,10.4,7.8,18.6,22.3,18.6
									c3.9,0,8.2-1.2,9.9-1.5L191.8,47.4z"/>
							</g>
							<path class="st0" d="M144.1,9.1h-21.4L109.9,50h15l4.2-13.3c2.4,0.4,5.4,0.7,8.4,0.7c4.1,0,10-0.3,15.1-3.7
								c4-2.7,6.8-7.5,7-12.2C159.9,13.3,151.3,9.1,144.1,9.1z M144.4,23.5c-0.4,1.6-2.4,4.5-6.5,4.8c-2,0.3-4.5,0.2-6.1-0.4l3-9.7
								h5C142.3,18.2,145.4,20,144.4,23.5z"/>
							<path class="st0" d="M287.1,49.9h-15.6L271,30.5l-10.2,19.4h-17.5l1-40.9h14.1l-1.6,23.7L271.2,9h10.7l1.6,23.8L294.3,9h15.2
								L287.1,49.9z"/>
						</g>
					</g>
				</g>
			</g>
		</g>
		<g>
			<path class="st0" d="M19.6,27.1h5.5l-0.9,2.7h-5.5l-4.9,14.5C13,46.5,12.5,48,15.3,48c1,0,1.9-0.1,2.8-0.3l-0.8,2.4
				c-1.2,0.4-2.5,0.7-3.7,0.7c-5.8,0-4.2-3.7-2.8-7.9l4.4-13h-3.7l0.9-2.7h3.7l2.5-7.5H22L19.6,27.1z"/>
			<path class="st0" d="M26.4,39.1c-2.2,6.6-0.1,8.9,3.5,8.9c2.6,0,5.4-2,7.3-4l1.9,1.5c-2.3,3-6.3,5.2-10.5,5.2
				c-5.4,0-8.5-3.5-5.6-12.2c2.9-8.6,8.4-12.2,13.9-12.2c7,0,6.6,7.1,4.2,12.7L26.4,39.1L26.4,39.1z M38.4,36.3
				c1.1-3,0.9-7.2-2.7-7.2c-3.9,0-7.1,4-8.2,7.2H38.4z"/>
			<path class="st0" d="M55.1,50.1l0.6-2.9c-2.6,1.8-5.4,3.6-8.3,3.6c-3.7,0-5.7-3-4.5-6.6c2.2-6.6,10-8,15.9-9.4l1.2-0.3l0.4-1.3
				c0.9-2.6-0.5-4-3.2-4s-5.1,1.7-7.2,3.6l-1.8-1.7c3-2.7,6.2-4.7,9.9-4.7c3.3,0,7.4,1.9,5.6,7.2L59.9,45c-0.5,1.7-1.2,3.5-1.1,5.1
				H55.1z M57.6,37.5c-3.6,0.9-9.9,2.2-11.3,6.3c-0.7,1.9,0.3,3.8,2.4,3.8c2.7,0,5.8-1.8,8.2-3.8l2.3-6.8L57.6,37.5z"/>
			<path class="st0" d="M66.3,50.1h-3.4l7.8-23h3.4l-0.7,2c2.7-1.6,4.8-2.7,7.7-2.7c2.6,0,4.2,1,4.8,3.1c2.8-1.7,5.4-3.1,8.5-3.1
				c3.4,0,5.6,1.8,3.6,7.8l-5.4,15.9h-3.4l5-15.1c0.8-2.4,2.5-6-1.2-6c-2.5,0-5.6,1.6-7.5,3l-6.1,18H76l5.1-15c0.8-2.4,2.5-6-1.2-6
				c-3,0.1-5.2,1.5-7.5,3L66.3,50.1z"/>
		</g>
	</g>
</g>
</svg>
