<?xml version="1.0" encoding="utf-8"?>
<!-- Generator: Adobe Illustrator 24.3.0, SVG Export Plug-In . SVG Version: 6.00 Build 0)  -->
<svg version="1.1" id="Layer_1" xmlns="http://www.w3.org/2000/svg" xmlns:xlink="http://www.w3.org/1999/xlink" x="0px" y="0px"
	 viewBox="0 0 305 116" style="enable-background:new 0 0 305 116;" xml:space="preserve">
<style type="text/css">
	.st0{fill:#FFFFFF;}
</style>
<g>
	<g>
		<path class="st0" d="M82.5,63.9L82.5,63.9c0-5.5-3.1-10.3-7.7-12.6L38.1,34.6c-0.2-0.1-0.5-0.2-0.8-0.2c-1,0-1.7,0.8-1.7,1.7v9.8
			c0,1.3,0.7,2.4,1.8,2.9l30,12.4c1,0.4,1.8,1.5,1.8,2.6v0c0,1.2-0.8,2.2-1.9,2.6L37.5,79c-1.1,0.5-1.9,1.6-1.9,2.9v9.8
			c0,1,0.7,1.7,1.7,1.7c0.3,0,0.5-0.1,0.8-0.2l36.8-16.7C79.4,74.2,82.5,69.4,82.5,63.9L82.5,63.9L82.5,63.9z"/>
		<path class="st0" d="M104,63.9c0,27.9-22.7,50.6-50.6,50.6c-27.9,0-50.6-22.7-50.6-50.6c0-27.9,22.7-50.6,50.6-50.6
			C81.3,13.3,104,36,104,63.9 M53.4,22C30,22,11.1,40.8,11.1,63.9c0,23.1,19,41.9,42.3,41.9c23.4,0,42.3-18.8,42.3-41.9
			C95.7,40.8,76.8,22,53.4,22"/>
		<path class="st0" d="M210,93.7c-1.2,0-2.1-1.3-2.1-2.5V36.6c0-1.2,0.9-2.4,2.1-2.4h12.4c1.2,0,2.2,1.2,2.2,2.4v54.6
			c0,1.2-1,2.5-2.2,2.5H210z"/>
		<path class="st0" d="M157.9,93.7L157.9,93.7c6.9,0,12.9-4,15.9-9.8l21-46.3c0.2-0.3,0.3-0.8,0.3-1.2c0-1.2-1-2.3-2.2-2.3h-12.3
			c-1.6,0-3.1,1.1-3.7,2.5l-15.6,37.4c-0.5,1.3-1.8,2.1-3.3,2.1h0c-1.5,0-2.8-0.7-3.3-2L139,36.6c-0.6-1.4-2.1-2.4-3.7-2.4H123
			c-1.2,0-2.2,1.1-2.2,2.3c0,0.4,0.1,0.8,0.3,1.1l21,46.4C145,89.6,151,93.7,157.9,93.7C157.9,93.7,157.9,93.7,157.9,93.7z"/>
		<path class="st0" d="M226.3,11.6c0,5.6-4.5,10.1-10.1,10.1c-5.6,0-10.1-4.5-10.1-10.1s4.5-10.1,10.1-10.1
			C221.7,1.5,226.3,6,226.3,11.6"/>
		<path class="st0" d="M270.8,93.4c17.8,0,31.5-11.2,31.5-25.1V36.6c0-1.2-1.1-2.4-2.3-2.4h-12.5c-1.2,0-2.2,1.1-2.2,2.3l0,28.8
			c0,6.2-6.5,11.2-14.5,11.2s-14.5-5-14.5-11.2l0-28.9c0-1.2-1-2.3-2.2-2.3h-12.5c-1.2,0-2.5,1.2-2.5,2.4v31.7
			C239.3,82.2,253,93.4,270.8,93.4L270.8,93.4z"/>
	</g>
</g>
</svg>
