<?xml version="1.0" encoding="utf-8"?>
<!-- Generator: Adobe Illustrator 17.0.0, SVG Export Plug-In . SVG Version: 6.00 Build 0)  -->
<!DOCTYPE svg PUBLIC "-//W3C//DTD SVG 1.1//EN" "http://www.w3.org/Graphics/SVG/1.1/DTD/svg11.dtd">
<svg version="1.1" id="Layer_1" xmlns="http://www.w3.org/2000/svg" xmlns:xlink="http://www.w3.org/1999/xlink" x="0px" y="0px"
	 width="305px" height="116px" viewBox="0 0 305 116" enable-background="new 0 0 305 116" xml:space="preserve">
<g>
	<g>
		<path fill="#FFBF00" d="M82.515,63.912V63.91c0-5.489-3.138-10.253-7.681-12.642L38.064,34.59
			c-0.242-0.128-0.465-0.201-0.759-0.201c-0.958,0-1.69,0.778-1.69,1.739v9.78c0,1.305,0.712,2.43,1.823,2.941l29.956,12.414
			c1.031,0.436,1.821,1.457,1.821,2.648v0.002c0,1.189-0.82,2.212-1.851,2.648L37.487,78.976c-1.11,0.513-1.872,1.637-1.872,2.94
			v9.781c0,0.96,0.722,1.739,1.679,1.739c0.294,0,0.537-0.074,0.779-0.201L74.85,76.557c4.543-2.389,7.666-7.151,7.666-12.641
			L82.515,63.912L82.515,63.912z"/>
		<path fill="#FFBF00" d="M103.988,63.914c0,27.944-22.654,50.6-50.601,50.6c-27.946,0-50.6-22.655-50.6-50.6
			c0-27.948,22.654-50.602,50.6-50.602C81.334,13.312,103.988,35.966,103.988,63.914 M53.387,21.991
			c-23.373,0-42.326,18.77-42.326,41.923c0,23.146,18.953,41.92,42.326,41.92c23.372,0,42.324-18.773,42.324-41.92
			C95.711,40.76,76.759,21.991,53.387,21.991"/>
		<path fill="#FFBF00" d="M209.957,93.7c-1.205,0-2.142-1.274-2.142-2.481V36.607c0-1.205,0.937-2.407,2.142-2.407h12.441
			c1.207,0,2.217,1.202,2.217,2.407v54.612c0,1.207-1.01,2.481-2.217,2.481H209.957z"/>
		<path fill="#FFBF00" d="M157.925,93.7h0.003c6.895,0,12.882-4.042,15.883-9.751l20.957-46.25c0.161-0.304,0.252-0.798,0.252-1.167
			c0-1.204-0.977-2.332-2.182-2.332h-12.289c-1.641,0-3.055,1.08-3.697,2.477l-15.598,37.438c-0.549,1.294-1.832,2.085-3.326,2.085
			h-0.008c-1.493,0-2.776-0.734-3.325-2.028L138.998,36.59c-0.647-1.396-2.059-2.39-3.697-2.39H123.01
			c-1.206,0-2.184,1.09-2.184,2.294c0,0.37,0.091,0.771,0.252,1.074l20.958,46.353c3,5.709,8.987,9.779,15.882,9.779
			C157.918,93.7,157.925,93.7,157.925,93.7z"/>
		<path fill="#FFBF00" d="M226.256,11.566c0,5.565-4.514,10.076-10.08,10.076c-5.562,0-10.074-4.511-10.074-10.076
			s4.512-10.079,10.074-10.079C221.742,1.487,226.256,6,226.256,11.566"/>
		<path fill="#FFBF00" d="M270.815,93.402c17.845,0,31.5-11.228,31.5-25.078V36.607c0-1.205-1.108-2.407-2.313-2.407h-12.45
			c-1.206,0-2.183,1.09-2.183,2.295l-0.014,28.819c0,6.193-6.473,11.243-14.453,11.243s-14.453-5.008-14.453-11.201l-0.012-28.868
			c0-1.205-0.977-2.289-2.184-2.289h-12.451c-1.205,0-2.487,1.202-2.487,2.407v31.717C239.315,82.175,252.971,93.402,270.815,93.402
			L270.815,93.402z"/>
	</g>
</g>
</svg>
