<?xml version="1.0" encoding="utf-8"?>
<!-- Generator: Adobe Illustrator 24.3.0, SVG Export Plug-In . SVG Version: 6.00 Build 0)  -->
<svg version="1.1" id="Layer_1" xmlns="http://www.w3.org/2000/svg" xmlns:xlink="http://www.w3.org/1999/xlink" x="0px" y="0px"
	 viewBox="0 0 283.5 41.5" style="enable-background:new 0 0 283.5 41.5;" xml:space="preserve">
<style type="text/css">
	.st0{fill:#FFBF00;}
</style>
<g>
	<g>
		<path class="st0" d="M29.1,22.9L29.1,22.9c0-2-1.1-3.8-2.8-4.6l-13.5-6.1c-0.1,0-0.2-0.1-0.3-0.1c-0.4,0-0.6,0.3-0.6,0.6v3.6
			c0,0.5,0.3,0.9,0.7,1.1l11,4.6c0.4,0.2,0.7,0.5,0.7,1v0c0,0.4-0.3,0.8-0.7,1l-10.9,4.6c-0.4,0.2-0.7,0.6-0.7,1.1v3.6
			c0,0.4,0.3,0.6,0.6,0.6c0.1,0,0.2,0,0.3-0.1l13.4-6.1C28,26.7,29.1,24.9,29.1,22.9L29.1,22.9z"/>
		<path class="st0" d="M37.1,22.9c0,10.2-8.3,18.6-18.6,18.6C8.3,41.4,0,33.1,0,22.9C0,12.6,8.3,4.3,18.6,4.3
			C28.8,4.3,37.1,12.6,37.1,22.9 M18.6,7.5C10,7.5,3,14.4,3,22.9c0,8.5,6.9,15.4,15.5,15.4c8.6,0,15.5-6.9,15.5-15.4
			C34.1,14.4,27.1,7.5,18.6,7.5"/>
		<path class="st0" d="M76,33.7c-0.4,0-0.7-0.4-0.7-0.8v-20c0-0.4,0.3-0.9,0.7-0.9h4.6c0.4,0,0.8,0.4,0.8,0.9v20
			c0,0.4-0.4,0.8-0.8,0.8H76z"/>
		<path class="st0" d="M56.9,33.7L56.9,33.7c2.5,0,4.7-1.4,5.8-3.5l7.7-16.9c0.1-0.1,0.1-0.3,0.1-0.4c0-0.4-0.4-0.8-0.8-0.8h-4.5
			c-0.6,0-1.1,0.4-1.4,0.9l-5.7,13.8c-0.2,0.5-0.7,0.8-1.2,0.8h0c-0.5,0-1-0.4-1.2-0.8l-5.7-13.8c-0.2-0.5-0.8-0.9-1.4-0.9h-4.5
			c-0.4,0-0.8,0.4-0.8,0.8c0,0.1,0,0.3,0.1,0.4l7.7,16.9C52.2,32.3,54.4,33.7,56.9,33.7L56.9,33.7z"/>
		<path class="st0" d="M81.9,3.7c0,2-1.7,3.7-3.7,3.7c-2,0-3.7-1.7-3.7-3.7c0-2,1.7-3.7,3.7-3.7C80.3,0,81.9,1.7,81.9,3.7"/>
		<path class="st0" d="M98.4,33.7c6.5,0,11.4-4.1,11.4-9.2V12.9c0-0.4-0.4-0.9-0.8-0.9h-4.6c-0.4,0-0.8,0.4-0.8,0.8l0,10.6
			c0,2.3-2.4,4.1-5.3,4.1c-2.9,0-5.3-1.8-5.3-4.1l0-10.6c0-0.4-0.4-0.8-0.8-0.8h-4.6c-0.4,0-0.7,0.4-0.7,0.9v11.6
			C86.9,29.6,91.8,33.7,98.4,33.7L98.4,33.7z"/>
		<g>
			<path class="st0" d="M142.3,22.9c0,6.1-4.4,11.2-9.9,11.2c-5.5,0-9.8-5-9.8-11.2c0-6.2,4.3-11.2,9.8-11.2
				C137.9,11.7,142.3,16.7,142.3,22.9z M126.7,22.9c0,4.2,2.5,7.5,5.7,7.5c3.3,0,5.8-3.3,5.8-7.5c0-4.2-2.5-7.5-5.8-7.5
				C129.2,15.4,126.7,18.7,126.7,22.9z"/>
			<path class="st0" d="M156.3,12c4.4,0,6.9,3.2,6.9,6.4c0,2.1-1.1,4.1-3,5.2l4.7,10.1h-4.1l-4.1-9.1H154v9.1h-3.9V12H156.3z
				 M154,20.9h2.4c2,0,2.8-1.4,2.8-2.5c0-1.2-0.8-2.8-2.8-2.8H154V20.9z"/>
			<path class="st0" d="M172.1,33.7V12h3.9v21.7H172.1z"/>
			<path class="st0" d="M187.3,22.8c0,4.7,2.6,7.6,6.3,7.6c1.2,0,2.9-0.2,4.4-0.9v-4.3h-5.6v-3.7h9.5l0,9.8
				c-2.5,1.9-5.6,2.7-7.9,2.7c-5.9,0-10.8-4-10.8-11.2c0-7.1,5.3-11.2,10.8-11.2c3.1,0,5.9,1.4,8.4,4.9l-3.1,2.3
				c-1.3-2.2-3.1-3.5-5.3-3.5C190.6,15.4,187.3,17.9,187.3,22.8z"/>
			<path class="st0" d="M209.9,33.7V12h3.9v21.7H209.9z"/>
			<path class="st0" d="M235.1,33.7l-8.1-13.6l0,13.6h-3.9V12h3.4l8.1,13.8V12h3.9v21.7H235.1z"/>
			<path class="st0" d="M259.5,33.7l-2-5.5c-1.7,0-5,0-6.7,0c-0.6,1.8-1.3,3.7-1.9,5.5h-4.2l8.1-21.7h2.9l8.1,21.7H259.5z
				 M256.1,24.5c-0.7-1.7-1.3-3.5-1.9-5.2l-2,5.2H256.1z"/>
			<path class="st0" d="M283.5,30v3.7h-13.5V12h3.9v18H283.5z"/>
		</g>
	</g>
</g>
</svg>
