<?xml version="1.0" standalone="no"?>
<!DOCTYPE svg PUBLIC "-//W3C//DTD SVG 1.1//EN" "http://www.w3.org/Graphics/SVG/1.1/DTD/svg11.dtd" >
<svg xmlns="http://www.w3.org/2000/svg" xmlns:xlink="http://www.w3.org/1999/xlink" version="1.1">
<metadata>
Created by FontForge 20190801 at Tue Sep  1 15:18:30 2015
 By Jimmy Wärting
Copyright \(c\) 2015 by Fontforecast \(label of Storm Creative Consultancy\). All rights reserved.
</metadata>
<defs>
<font id="MuchoSansLight" horiz-adv-x="584" >
  <font-face 
    font-family="Mucho Sans Light"
    font-weight="300"
    font-stretch="normal"
    units-per-em="1000"
    panose-1="2 0 5 3 0 0 0 2 0 4"
    ascent="750"
    descent="-250"
    x-height="490"
    cap-height="680"
    bbox="-115 -241 1049 900"
    underline-thickness="50"
    underline-position="-100"
    unicode-range="U+0020-FB05"
  />
<missing-glyph horiz-adv-x="250" 
 />
    <glyph glyph-name="fi" unicode="fi" horiz-adv-x="539" 
d="M455 0h-45v450h-257v-450h-45v450h-74v40h74v45c0 107 83 155 163 155c23 0 50 -4 71 -8v-37c-13 2 -33 6 -51 6c-69 0 -138 -31 -138 -118v-43h302v-490zM399 655c0 21 15 35 35 35c18 0 35 -14 35 -35c0 -18 -17 -35 -35 -35c-20 0 -35 17 -35 35z" />
    <glyph glyph-name="f_f_i" unicode="ffi" horiz-adv-x="843" 
d="M108 490v49c0 107 85 151 163 151c21 0 43 0 56 -4v-36c-9 0 -19 1 -37 1c-68 0 -137 -30 -137 -114v-47h257v49c0 107 88 151 163 151c25 0 50 -1 74 -7v-38c-15 5 -35 6 -52 6c-68 0 -138 -30 -138 -114v-47h302v-490h-45v450h-257v-450h-47v450h-257v-450h-45v450h-74
v40h74zM702 655c0 18 16 35 37 35c18 0 35 -17 35 -35c0 -21 -17 -35 -35 -35c-21 0 -37 14 -37 35z" />
    <glyph glyph-name="f_f_l" unicode="ffl" horiz-adv-x="841" 
d="M643 682v-37c-13 2 -31 3 -49 3c-69 0 -139 -29 -139 -114v-44h147v-40h-147v-450h-45v450h-257v-450h-45v450h-73v40h73v46c0 107 86 151 164 151c21 0 43 0 55 -4v-37c-8 2 -18 2 -36 2c-68 0 -138 -30 -138 -114v-44h257v46c0 107 87 151 162 151c26 0 50 -2 71 -5z
M757 0h-45v680h45v-680z" />
    <glyph glyph-name="f_f" unicode="ff" horiz-adv-x="629" 
d="M410 490v49c0 107 86 151 163 151c23 0 41 0 54 -4v-36c-6 0 -18 1 -33 1c-68 0 -137 -30 -139 -114l-1 -47h149v-40h-149c0 -148 1 -303 1 -450h-45v450h-257v-450h-45v450h-74v40h74v49c0 107 83 151 163 151c19 0 41 0 56 -4v-36c-8 0 -21 1 -36 1
c-69 0 -138 -30 -138 -114v-47h257z" />
    <glyph glyph-name="fl" unicode="fl" horiz-adv-x="539" 
d="M108 490v49c0 107 85 151 163 151c19 0 43 0 56 -4v-36c-8 0 -21 1 -37 1c-68 0 -137 -30 -137 -114v-47h147v-40h-147v-450h-45v450h-74v40h74zM455 680v-680h-45v680h45z" />
    <glyph glyph-name=".notdef" horiz-adv-x="250" 
 />
    <glyph glyph-name="B" unicode="B" horiz-adv-x="579" 
d="M104 680h186c130 0 195 -73 195 -167c0 -67 -37 -111 -86 -143c14 -12 126 -34 126 -177c0 -123 -92 -193 -202 -193h-219v680zM149 640v-255h175c86 0 111 85 111 128c0 35 -21 127 -133 127h-153zM149 345v-305h174c78 0 152 52 152 154c0 107 -82 151 -151 151h-175z
" />
    <glyph glyph-name="C" unicode="C" horiz-adv-x="642" 
d="M104 340c0 -177 111 -310 255 -310c82 0 155 47 200 118l34 -33c-60 -86 -143 -125 -234 -125c-171 0 -305 148 -305 350s134 350 305 350c91 0 174 -41 234 -125l-34 -33c-47 73 -118 118 -200 118c-144 0 -255 -134 -255 -310z" />
    <glyph glyph-name="D" unicode="D" horiz-adv-x="634" 
d="M104 680h152c202 0 324 -126 324 -341s-122 -339 -324 -339h-152v680zM149 640v-600h107c158 0 274 86 274 299c0 212 -116 301 -274 301h-107z" />
    <glyph glyph-name="E" unicode="E" horiz-adv-x="522" 
d="M458 640h-309v-250h282v-40h-282v-311h309v-39h-354v680h354v-40z" />
    <glyph glyph-name="F" unicode="F" horiz-adv-x="488" 
d="M434 640h-285v-255h259v-40h-259v-345h-45v680h330v-40z" />
    <glyph glyph-name="G" unicode="G" horiz-adv-x="669" 
d="M361 650c-134 0 -257 -116 -257 -307c0 -197 128 -313 274 -313c55 0 140 21 201 53c0 79 1 140 1 220h-198v40h243l-1 -281c-65 -47 -173 -72 -247 -72c-184 0 -323 128 -323 353c0 213 152 347 309 347c94 0 180 -41 240 -125l-36 -32c-47 73 -119 117 -206 117z" />
    <glyph glyph-name="H" unicode="H" horiz-adv-x="666" 
d="M562 0h-43v350h-370v-350h-45v680h45v-290h370v290h43v-680z" />
    <glyph glyph-name="I" unicode="I" horiz-adv-x="253" 
d="M149 0h-45v680h45v-680z" />
    <glyph glyph-name="J" unicode="J" horiz-adv-x="537" 
d="M155 640v40h288v-487c0 -133 -77 -203 -198 -203s-201 72 -201 194h45c0 -102 74 -154 154 -154c79 0 155 51 155 155v455h-243z" />
    <glyph glyph-name="K" unicode="K" horiz-adv-x="578" 
d="M543 680l-343 -306c106 -114 242 -259 344 -374h-53l-342 370v-370h-45v680h45v-296l338 296h56z" />
    <glyph glyph-name="L" unicode="L" horiz-adv-x="525" 
d="M149 38h342v-38h-387v680h45v-642z" />
    <glyph glyph-name="M" unicode="M" horiz-adv-x="865" 
d="M412 0l-220 610l-63 -610h-45l70 680h53l225 -605l226 605h53l70 -680h-45l-63 610l-220 -610h-41z" />
    <glyph glyph-name="N" unicode="N" horiz-adv-x="664" 
d="M560 0h-52l-360 610v-610h-44v680h52l359 -610v610h45v-680z" />
    <glyph glyph-name="O" unicode="O" horiz-adv-x="713" 
d="M359 690c167 0 300 -157 300 -350c0 -192 -133 -350 -300 -350c-171 0 -305 158 -305 350c0 193 134 350 305 350zM359 650c-144 0 -255 -135 -255 -310c0 -177 111 -310 255 -310c138 0 250 133 250 310c0 175 -112 310 -250 310z" />
    <glyph glyph-name="P" unicode="P" horiz-adv-x="539" 
d="M104 680h196c127 0 200 -94 200 -183s-73 -184 -200 -184h-151v-313h-45v680zM149 640v-287h151c109 0 150 84 150 144c0 62 -41 143 -150 143h-151z" />
    <glyph glyph-name="Q" unicode="Q" horiz-adv-x="713" 
d="M652 -37l-2 -30c-83 2 -188 19 -297 55c-168 4 -299 162 -299 352c0 193 134 350 305 350c167 0 300 -157 300 -350c0 -163 -96 -302 -227 -341c69 -18 141 -28 220 -36zM359 650c-144 0 -255 -135 -255 -310c0 -177 111 -312 255 -312c138 0 251 135 251 312
c0 175 -113 310 -251 310z" />
    <glyph glyph-name="R" unicode="R" horiz-adv-x="547" 
d="M104 680h174c129 0 201 -94 201 -183c0 -69 -42 -133 -120 -159l154 -338h-50l-147 328c-12 -1 -25 -2 -38 -2h-129v-326h-45v680zM149 640v-274h129c110 0 151 69 151 131s-41 143 -151 143h-129z" />
    <glyph glyph-name="S" unicode="S" horiz-adv-x="536" 
d="M54 38l25 42c52 -31 113 -50 172 -50c96 0 181 72 181 149c0 59 -24 102 -174 156c-127 46 -204 80 -204 177c0 95 71 178 217 178c81 0 129 -22 165 -39l-19 -40c-35 23 -88 39 -146 39c-101 0 -167 -57 -167 -138c0 -172 378 -102 378 -333c0 -97 -95 -189 -231 -189
c-95 0 -165 28 -197 48z" />
    <glyph glyph-name="T" unicode="T" horiz-adv-x="504" 
d="M490 640h-215v-640h-45v640h-216v40h476v-40z" />
    <glyph glyph-name="U" unicode="U" horiz-adv-x="689" 
d="M595 680v-381c0 -204 -95 -309 -256 -309c-160 0 -245 109 -245 309v381h45v-381c0 -266 169 -272 200 -272c36 0 211 5 211 272v381h45z" />
    <glyph glyph-name="V" unicode="V" horiz-adv-x="570" 
d="M309 0h-48l-247 680h50l221 -610l221 610h50z" />
    <glyph glyph-name="W" unicode="W" horiz-adv-x="870" 
d="M409 680h52l141 -610l164 610h50l-187 -680h-52l-142 610l-142 -610h-52l-187 680h50l164 -610z" />
    <glyph glyph-name="X" unicode="X" horiz-adv-x="631" 
d="M314 297l-203 -297h-57l236 340l-236 340h57l202 -303l207 303h57l-237 -340l237 -340h-57z" />
    <glyph glyph-name="Y" unicode="Y" horiz-adv-x="547" 
d="M249 343l-235 337h57l201 -297l204 297h57l-239 -337v-343h-45v343z" />
    <glyph glyph-name="Z" unicode="Z" 
d="M530 640l-426 -600h426v-40h-476v40l426 600h-426v40h476v-40z" />
    <glyph glyph-name="exclam" unicode="!" horiz-adv-x="282" 
d="M167 174h-50v506h50v-506zM141 58c19 0 37 -16 37 -34c0 -19 -18 -34 -37 -34c-20 0 -37 15 -37 34c0 18 17 34 37 34z" />
    <glyph glyph-name="quotedbl" unicode="&#x22;" horiz-adv-x="319" 
d="M111 517h-37v163h37v-163zM245 517h-37v163h37v-163z" />
    <glyph glyph-name="numbersign" unicode="#" horiz-adv-x="628" 
d="M477 486h97v-40h-99c-9 -68 -15 -137 -23 -205h98v-40h-101l-22 -201h-50l22 201h-201l-21 -201h-50l21 201h-94v40h98c9 73 13 127 23 205h-96v40h99l20 194h50l-21 -194h201l22 194h50zM226 446l-25 -205h201c8 73 13 127 23 205h-199z" />
    <glyph glyph-name="dollar" unicode="$" horiz-adv-x="536" 
d="M54 35l25 42c51 -31 110 -49 168 -50v312c-121 44 -193 83 -193 177c0 89 63 168 193 177v56h45v-56c68 -3 111 -23 144 -38l-19 -40c-31 20 -76 35 -125 38v-285c95 -34 190 -76 190 -192c0 -87 -77 -170 -190 -186v-63h-45v60c-93 1 -162 28 -193 48zM432 176
c0 54 -21 97 -140 146v-291c78 17 140 79 140 145zM104 516c0 -72 66 -103 143 -131v268c-87 -9 -143 -63 -143 -137z" />
    <glyph glyph-name="percent" unicode="%" horiz-adv-x="768" 
d="M202 690c81 0 142 -92 142 -192c0 -101 -61 -190 -142 -190c-77 0 -138 89 -138 190s61 192 138 192zM202 660c-54 0 -98 -68 -98 -162c0 -89 42 -160 98 -160s102 69 102 160c0 88 -45 162 -102 162zM564 370c80 0 140 -88 140 -189c0 -102 -60 -191 -140 -191
c-78 0 -138 89 -138 191s60 189 138 189zM564 340c-51 0 -98 -67 -98 -159c0 -90 45 -161 98 -161c56 0 100 70 100 161c0 89 -43 159 -100 159zM200 0h-40l410 681h40z" />
    <glyph glyph-name="ampersand" unicode="&#x26;" horiz-adv-x="705" 
d="M651 29v-39c-83 0 -143 22 -173 56c-30 -34 -89 -56 -180 -56c-105 0 -214 61 -214 196c0 105 71 160 169 175c-101 8 -146 69 -146 156c0 107 90 173 192 173c131 0 203 -54 203 -130h-45c0 54 -57 90 -154 90c-77 0 -146 -41 -146 -136c0 -88 67 -136 141 -136h263v-40
h-61v-236c3 -42 64 -73 151 -73zM299 30c91 0 153 30 156 72v236h-159c-81 0 -162 -37 -162 -155c0 -115 91 -153 165 -153z" />
    <glyph glyph-name="quotesingle" unicode="'" horiz-adv-x="185" 
d="M111 517h-37v163h37v-163z" />
    <glyph glyph-name="parenleft" unicode="(" horiz-adv-x="371" 
d="M74 316c0 176 79 361 226 462l27 -37c-122 -96 -203 -249 -203 -425s81 -329 203 -425l-27 -37c-147 101 -226 286 -226 462z" />
    <glyph glyph-name="parenright" unicode=")" horiz-adv-x="371" 
d="M297 316c0 -176 -79 -361 -226 -462l-27 37c122 96 203 249 203 425s-81 329 -203 425l27 37c147 -101 226 -286 226 -462z" />
    <glyph glyph-name="asterisk" unicode="*" horiz-adv-x="375" 
d="M201 431h-30v113l-106 -34l-11 29l108 36l-68 92l25 19l68 -94l68 93l24 -18l-67 -94l109 -35l-10 -29l-110 34v-112z" />
    <glyph glyph-name="plus" unicode="+" horiz-adv-x="693" 
d="M639 309v-40h-271v-269h-45v269h-269v40h269v271h45v-271h271z" />
    <glyph glyph-name="comma" unicode="," horiz-adv-x="252" 
d="M171 31c0 -46 -33 -86 -69 -114h-17c21 22 44 53 44 69c0 2 -1 4 -3 4c-28 0 -42 24 -42 42c0 21 16 40 44 40c24 0 43 -16 43 -41z" />
    <glyph glyph-name="hyphen" unicode="-" horiz-adv-x="419" 
d="M375 269h-331v40h331v-40z" />
    <glyph glyph-name="period" unicode="." horiz-adv-x="255" 
d="M128 72c29 0 43 -20 43 -41c0 -20 -14 -41 -43 -41s-44 21 -44 42c0 20 15 40 44 40z" />
    <glyph glyph-name="slash" unicode="/" horiz-adv-x="405" 
d="M67 -83h-45l316 763h45z" />
    <glyph glyph-name="zero" unicode="0" horiz-adv-x="701" 
d="M349 690c159 0 278 -161 278 -352s-119 -348 -277 -348c-159 0 -276 157 -276 349s117 351 275 351zM350 650c-120 0 -226 -139 -226 -311c0 -176 106 -309 226 -309c121 0 227 133 227 309c0 172 -106 311 -227 311z" />
    <glyph glyph-name="one" unicode="1" horiz-adv-x="416" 
d="M362 40v-40h-311v40h132v588l-133 -92l-25 32l158 112h45v-640h134z" />
    <glyph glyph-name="two" unicode="2" horiz-adv-x="508" 
d="M249 650c-94 0 -132 -61 -135 -133h-50c2 96 72 173 186 173c116 0 188 -88 188 -185c0 -194 -324 -296 -324 -465h330v-40h-380v59c0 140 324 291 324 442c0 78 -43 149 -139 149z" />
    <glyph glyph-name="three" unicode="3" horiz-adv-x="526" 
d="M261 30c73 0 152 70 152 161c0 98 -80 148 -159 148h-49v40h47c72 0 138 49 138 137c0 87 -68 134 -139 134c-76 0 -137 -62 -137 -133h-50c0 95 76 173 187 173c102 0 189 -67 189 -174c0 -80 -45 -137 -126 -154c78 -15 148 -78 148 -172c0 -138 -114 -200 -201 -200
c-111 0 -187 78 -187 173h50c0 -71 61 -133 137 -133z" />
    <glyph glyph-name="four" unicode="4" horiz-adv-x="530" 
d="M405 217h86v-40h-86v-177h-44v177h-322v40l316 464h50v-464zM360 217v394c-94 -143 -171 -240 -270 -394h270z" />
    <glyph glyph-name="five" unicode="5" horiz-adv-x="520" 
d="M252 30c80 0 154 62 154 188c0 123 -91 184 -154 184s-117 -29 -138 -63h-50l54 341h296v-40h-257l-41 -248c41 36 88 50 137 50c96 0 203 -70 203 -224c0 -161 -111 -228 -204 -228c-111 0 -187 78 -187 173h50c0 -71 61 -133 137 -133z" />
    <glyph glyph-name="six" unicode="6" horiz-adv-x="566" 
d="M297 650c-147 0 -176 -197 -183 -311c34 69 102 108 183 108c150 0 205 -124 205 -229c0 -102 -58 -228 -212 -228c-186 0 -226 213 -226 348c0 191 72 352 235 352c76 0 135 -26 175 -70l-34 -30c-36 40 -82 60 -143 60zM293 407c-64 0 -150 -51 -173 -107
c0 -101 39 -270 176 -270c72 0 156 64 156 189c0 107 -64 188 -159 188z" />
    <glyph glyph-name="seven" unicode="7" horiz-adv-x="444" 
d="M365 640h-336v40h386v-40l-267 -640h-50z" />
    <glyph glyph-name="eight" unicode="8" horiz-adv-x="540" 
d="M271 -10c-128 0 -207 88 -207 177c0 109 76 163 145 186c-62 26 -125 87 -125 168c0 108 95 169 187 169c89 0 182 -56 182 -162c0 -81 -54 -132 -131 -160c60 -20 154 -82 154 -195c0 -96 -80 -183 -205 -183zM271 30c82 0 155 50 155 139c0 109 -114 153 -177 174
c-68 -35 -135 -79 -135 -170c0 -84 73 -143 157 -143zM403 525c0 92 -67 125 -132 125c-53 0 -137 -31 -137 -125c0 -92 103 -138 144 -150c16 8 125 63 125 150z" />
    <glyph glyph-name="nine" unicode="9" horiz-adv-x="566" 
d="M269 30c147 0 176 197 183 311c-34 -69 -102 -108 -183 -108c-150 0 -205 124 -205 229c0 102 58 228 212 228c186 0 226 -213 226 -348c0 -191 -72 -352 -235 -352c-76 0 -135 26 -175 70l34 30c36 -40 82 -60 143 -60zM273 273c64 0 150 51 173 107
c0 101 -39 270 -176 270c-72 0 -156 -64 -156 -189c0 -107 64 -188 159 -188z" />
    <glyph glyph-name="colon" unicode=":" horiz-adv-x="255" 
d="M128 72c28 0 43 -21 43 -42c0 -20 -14 -40 -43 -40s-44 20 -44 41c0 20 15 41 44 41zM128 383c28 0 43 -20 43 -40s-15 -40 -43 -40s-44 21 -44 41s15 39 44 39z" />
    <glyph glyph-name="semicolon" unicode=";" horiz-adv-x="254" 
d="M128 383c27 0 42 -20 42 -40s-15 -40 -42 -40c-28 0 -44 21 -44 41s15 39 44 39zM171 31c0 -46 -33 -86 -69 -114h-17c21 22 44 53 44 69c0 2 -1 4 -3 4c-28 0 -42 24 -42 42c0 21 16 40 44 40c24 0 43 -16 43 -41z" />
    <glyph glyph-name="less" unicode="&#x3c;" horiz-adv-x="483" 
d="M97 287l332 -206v-50l-375 234v50l375 234v-50z" />
    <glyph glyph-name="equal" unicode="=" horiz-adv-x="627" 
d="M573 413v-40h-519v40h519zM573 202v-40h-519v40h519z" />
    <glyph glyph-name="greater" unicode="&#x3e;" horiz-adv-x="483" 
d="M54 81l332 206l-332 212v50l375 -234v-50l-375 -234v50z" />
    <glyph glyph-name="question" unicode="?" horiz-adv-x="401" 
d="M47 583l-33 30c51 63 97 77 158 77c102 0 175 -58 175 -171c0 -147 -159 -133 -159 -274v-71h-45v71c0 145 154 151 154 274c0 102 -79 131 -128 131c-52 0 -86 -30 -122 -67zM169 58c19 0 35 -16 35 -34c0 -19 -16 -34 -35 -34c-20 0 -37 15 -37 34c0 18 17 34 37 34z
" />
    <glyph glyph-name="at" unicode="@" horiz-adv-x="876" 
d="M621 38h-40l-5 98c-22 -45 -99 -97 -167 -97c-99 0 -161 83 -161 155c0 87 51 192 286 194h43c-7 114 -84 177 -168 177c-157 0 -292 -120 -292 -320c0 -182 151 -332 329 -332c189 0 329 145 329 322h50c0 -201 -171 -362 -378 -362c-208 0 -380 165 -380 373
c0 188 137 359 337 359c112 0 217 -80 217 -227v-340zM577 196v150c-148 0 -279 -22 -279 -152c0 -39 40 -115 110 -115c49 0 120 16 169 117z" />
    <glyph glyph-name="minus" unicode="&#x2212;" horiz-adv-x="691" 
d="M637 309v-40h-583v40h583z" />
    <glyph glyph-name="plusminus" unicode="&#xb1;" horiz-adv-x="693" 
d="M639 -71v-40h-585v40h585zM639 309v-40h-271v-269h-45v269h-269v40h269v271h45v-271h271z" />
    <glyph glyph-name="underscore" unicode="_" horiz-adv-x="510" 
d="M-3 -45h516v-38h-516v38z" />
    <glyph glyph-name="perthousand" unicode="&#x2030;" horiz-adv-x="1113" 
d="M910 370c78 0 139 -88 139 -189c0 -102 -61 -191 -139 -191c-77 0 -138 89 -138 191s61 189 138 189zM910 340c-54 0 -98 -67 -98 -159c0 -90 42 -161 98 -161s99 70 99 161c0 89 -42 159 -99 159zM202 690c81 0 142 -92 142 -192c0 -101 -61 -190 -142 -190
c-77 0 -138 89 -138 190s61 192 138 192zM202 660c-54 0 -98 -68 -98 -162c0 -89 42 -160 98 -160s102 69 102 160c0 88 -45 162 -102 162zM564 370c80 0 140 -88 140 -189c0 -102 -60 -191 -140 -191c-78 0 -138 89 -138 191s60 189 138 189zM564 340
c-51 0 -98 -67 -98 -159c0 -90 45 -161 98 -161c56 0 100 70 100 161c0 89 -43 159 -100 159zM200 0h-40l410 681h40z" />
    <glyph glyph-name="a" unicode="a" horiz-adv-x="483" 
d="M95 414l-30 30c35 29 97 56 167 56c150 0 177 -116 177 -212v-288h-40l-3 85c-20 -29 -82 -95 -166 -95c-96 0 -156 71 -156 136c0 113 123 164 325 164c0 89 -15 170 -137 170c-47 0 -107 -24 -137 -46zM368 196v54c-111 -1 -277 -20 -277 -120c0 -66 53 -101 109 -101
c73 0 148 81 158 102c10 17 10 50 10 65z" />
    <glyph glyph-name="b" unicode="b" horiz-adv-x="557" 
d="M129 680v-276c34 59 95 96 158 96c127 0 216 -115 216 -259c0 -139 -89 -252 -217 -252c-67 0 -122 37 -157 91l-5 -80h-40v680h45zM291 460c-93 0 -163 -92 -163 -215c0 -126 70 -216 163 -216c91 0 162 90 162 216c0 123 -71 215 -162 215z" />
    <glyph glyph-name="c" unicode="c" horiz-adv-x="488" 
d="M99 245c0 -122 75 -215 177 -215c58 0 109 30 138 74l30 -26c-43 -60 -102 -88 -168 -88c-124 0 -222 107 -222 255c0 145 98 255 222 255c66 0 125 -30 168 -89l-30 -24c-30 44 -80 73 -138 73c-102 0 -177 -94 -177 -215z" />
    <glyph glyph-name="d" unicode="d" horiz-adv-x="557" 
d="M428 404v276h45v-680h-40l-5 80c-26 -44 -85 -90 -155 -90c-126 0 -219 112 -219 251c0 144 91 259 216 259c65 0 127 -43 158 -96zM268 460c-93 0 -164 -92 -164 -215c0 -126 71 -215 164 -215c92 0 161 89 161 215c0 123 -69 215 -161 215z" />
    <glyph glyph-name="e" unicode="e" horiz-adv-x="521" 
d="M294 -10c-157 0 -228 125 -228 255c0 169 97 255 217 255c126 0 206 -89 206 -233v-24h-373c0 -125 68 -213 178 -213c56 0 109 21 145 74l34 -26c-43 -59 -98 -88 -179 -88zM283 460c-81 0 -164 -67 -167 -176h323c0 118 -78 176 -156 176z" />
    <glyph glyph-name="f" unicode="f" horiz-adv-x="328" 
d="M108 490v55c0 56 35 145 128 145c43 0 71 -11 90 -22l-20 -38c-21 15 -39 20 -63 20c-48 0 -90 -40 -90 -109v-51h154v-40h-154v-450h-45v450h-74v40h74z" />
    <glyph glyph-name="g" unicode="g" horiz-adv-x="503" 
d="M135 16c-30 13 -50 44 -50 77c0 31 20 71 50 86c-46 36 -72 86 -72 141c0 92 67 181 178 181c57 0 93 -14 123 -44c12 48 52 89 96 89c15 0 28 -3 41 -11l-15 -47c-10 3 -19 10 -32 10c-29 0 -46 -16 -70 -64c24 -32 36 -73 36 -114c0 -108 -81 -176 -179 -176
c-24 0 -46 2 -79 16c-21 -26 -27 -40 -27 -67c0 -26 32 -42 126 -49c134 -10 221 -27 221 -135c0 -78 -78 -149 -229 -149c-126 0 -199 54 -199 133c0 64 34 101 81 123zM113 322c0 -77 55 -138 129 -138c73 0 128 61 128 138c0 76 -55 139 -128 139
c-74 0 -129 -63 -129 -139zM432 -99c0 116 -189 90 -261 114c-29 -24 -68 -59 -68 -106c0 -57 43 -109 150 -109c128 0 179 58 179 101z" />
    <glyph glyph-name="h" unicode="h" horiz-adv-x="531" 
d="M129 680v-311c23 63 101 131 182 131c73 0 146 -55 146 -150v-350h-45v336c0 83 -43 124 -96 124c-83 0 -187 -94 -187 -217v-243h-45v680h45z" />
    <glyph glyph-name="i" unicode="i" horiz-adv-x="213" 
d="M129 0h-45v490h45v-490zM72 655c0 18 16 35 37 35c18 0 35 -17 35 -35c0 -21 -17 -35 -35 -35c-21 0 -37 14 -37 35z" />
    <glyph glyph-name="j" unicode="j" horiz-adv-x="248" 
d="M164 490v-491c0 -112 -53 -239 -198 -239c-24 0 -44 3 -62 11l19 38c13 -6 27 -9 44 -9c137 0 152 157 152 199v491h45zM106 655c0 18 15 35 36 35c19 0 35 -17 35 -35c0 -21 -16 -35 -35 -35c-21 0 -36 14 -36 35z" />
    <glyph glyph-name="k" unicode="k" horiz-adv-x="438" 
d="M129 0h-45v680h45v-400c78 68 159 145 236 210h55l-246 -220l250 -270h-55l-240 261v-261z" />
    <glyph glyph-name="l" unicode="l" horiz-adv-x="213" 
d="M129 680v-680h-45v680h45z" />
    <glyph glyph-name="m" unicode="m" horiz-adv-x="833" 
d="M442 263v-263h-45v336c0 83 -43 124 -91 124c-76 0 -177 -84 -177 -207v-253h-45v490h40l6 -121c22 63 94 131 171 131c68 0 130 -52 137 -124c24 63 97 124 176 124c68 0 145 -57 145 -142l-1 -358h-45v336c0 83 -44 124 -94 124c-76 0 -177 -74 -177 -197z" />
    <glyph glyph-name="n" unicode="n" horiz-adv-x="531" 
d="M124 490l5 -121c23 63 101 131 182 131c73 0 146 -55 146 -150v-350h-45v336c0 78 -42 124 -96 124c-83 0 -187 -91 -187 -214v-246h-45v490h40z" />
    <glyph glyph-name="o" unicode="o" horiz-adv-x="542" 
d="M272 500c113 0 216 -114 216 -255c0 -142 -103 -255 -216 -255c-117 0 -218 113 -218 255c0 141 101 255 218 255zM272 460c-90 0 -168 -94 -168 -215c0 -122 78 -215 168 -215c89 0 166 93 166 215c0 121 -77 215 -166 215z" />
    <glyph glyph-name="p" unicode="p" horiz-adv-x="557" 
d="M129 84v-316h-45v722h40l5 -82c34 56 100 92 157 92c128 0 217 -114 217 -253c0 -144 -89 -257 -216 -257c-63 0 -129 42 -158 94zM291 30c91 0 162 92 162 215s-71 215 -162 215c-93 0 -163 -92 -163 -215s70 -215 163 -215z" />
    <glyph glyph-name="q" unicode="q" horiz-adv-x="557" 
d="M428 -232v316c-27 -52 -93 -94 -158 -94c-125 0 -216 113 -216 257c0 139 91 253 217 253c65 0 121 -36 157 -92l5 83h40v-723h-45zM268 30c92 0 161 92 161 215s-69 215 -161 215c-93 0 -164 -92 -164 -215s71 -215 164 -215z" />
    <glyph glyph-name="r" unicode="r" horiz-adv-x="375" 
d="M124 490l5 -125c6 38 77 135 171 135c18 0 44 -5 61 -16l-18 -42c-13 6 -30 14 -49 14c-90 0 -166 -113 -166 -217l1 -239h-45v490h40z" />
    <glyph glyph-name="s" unicode="s" horiz-adv-x="386" 
d="M179 30c52 0 123 27 123 98c0 116 -268 91 -268 243c0 68 54 129 158 129c54 0 101 -19 136 -52l-28 -31c-27 26 -63 43 -108 43c-66 0 -108 -34 -108 -89c0 -116 268 -95 268 -248c0 -70 -74 -133 -173 -133c-55 0 -99 17 -135 52l30 29c25 -25 63 -41 105 -41z" />
    <glyph glyph-name="t" unicode="t" horiz-adv-x="341" 
d="M108 144v306h-74v40h74v120h45v-120h157v-40h-157v-305c0 -45 26 -115 84 -115c31 0 53 8 72 22l18 -37c-17 -12 -48 -25 -93 -25c-90 0 -126 82 -126 154z" />
    <glyph glyph-name="u" unicode="u" horiz-adv-x="531" 
d="M407 0l-5 121c-23 -63 -101 -131 -182 -131c-73 0 -146 55 -146 150v350h45v-336c0 -78 42 -124 96 -124c83 0 187 91 187 214v246h45v-490h-40z" />
    <glyph glyph-name="v" unicode="v" horiz-adv-x="480" 
d="M238 50l168 440h45l-184 -490h-56l-182 490h45z" />
    <glyph glyph-name="w" unicode="w" horiz-adv-x="648" 
d="M422 0l-96 412l-99 -412h-56l-137 490h45l121 -440l105 440h40l103 -440l121 440h45l-136 -490h-56z" />
    <glyph glyph-name="x" unicode="x" horiz-adv-x="463" 
d="M231 210l-147 -210h-50l171 244l-171 246h50l147 -210c52 72 97 141 148 210h50l-172 -244l172 -246h-50z" />
    <glyph glyph-name="y" unicode="y" horiz-adv-x="480" 
d="M85 -240c-23 0 -36 1 -54 7l17 38c11 -4 23 -5 33 -5c36 0 66 21 81 59l49 131l-182 500h50l156 -440l166 440h50l-244 -625c-30 -76 -74 -105 -122 -105z" />
    <glyph glyph-name="z" unicode="z" horiz-adv-x="429" 
d="M385 450l-291 -412h291v-38h-341v38l291 412h-291v40h341v-40z" />
    <glyph glyph-name="exclamdown" unicode="&#xa1;" horiz-adv-x="282" 
d="M117 316h50v-506h-50v506zM141 432c-20 0 -37 16 -37 34c0 19 17 34 37 34c19 0 37 -15 37 -34c0 -18 -18 -34 -37 -34z" />
    <glyph glyph-name="questiondown" unicode="&#xbf;" horiz-adv-x="401" 
d="M354 -93l33 -30c-51 -63 -97 -77 -158 -77c-102 0 -175 58 -175 171c0 147 159 133 159 274v71h45v-71c0 -145 -154 -151 -154 -274c0 -102 79 -131 128 -131c52 0 86 30 122 67zM232 432c-19 0 -35 16 -35 34c0 19 16 34 35 34c20 0 37 -15 37 -34
c0 -18 -17 -34 -37 -34z" />
    <glyph glyph-name="endash" unicode="&#x2013;" horiz-adv-x="604" 
d="M44 309h516v-40h-516v40z" />
    <glyph glyph-name="emdash" unicode="&#x2014;" horiz-adv-x="1017" 
d="M44 309h929v-40h-929v40z" />
    <glyph glyph-name="periodcentered" unicode="&#xb7;" horiz-adv-x="252" 
d="M84 287c0 23 20 42 42 42s42 -19 42 -42c0 -21 -20 -40 -42 -40s-42 19 -42 40z" />
    <glyph glyph-name="uni2219" unicode="&#x2219;" horiz-adv-x="197" 
d="M54 287c0 24 20 43 44 43c25 0 45 -19 45 -43c0 -22 -20 -41 -45 -41c-24 0 -44 19 -44 41z" />
    <glyph glyph-name="ellipsis" unicode="&#x2026;" horiz-adv-x="570" 
d="M50 30c0 23 20 41 44 41c26 0 46 -18 46 -41c0 -22 -20 -40 -46 -40c-24 0 -44 18 -44 40zM240 30c0 23 20 41 44 41c26 0 46 -18 46 -41c0 -22 -20 -40 -46 -40c-24 0 -44 18 -44 40zM430 30c0 23 20 41 44 41c26 0 46 -18 46 -41c0 -22 -20 -40 -46 -40
c-24 0 -44 18 -44 40z" />
    <glyph glyph-name="copyright" unicode="&#xa9;" horiz-adv-x="825" 
d="M282 338c0 -89 53 -161 124 -161c44 0 82 22 102 55l25 -22c-33 -44 -75 -63 -126 -63c-91 0 -165 80 -165 191c0 110 74 190 165 190c49 0 94 -20 126 -63l-25 -21c-20 32 -58 54 -102 54c-71 0 -124 -71 -124 -160zM412 690c198 0 359 -157 359 -349
c0 -194 -161 -351 -359 -351s-358 157 -358 351c0 193 160 349 358 349zM411 650c-176 0 -307 -133 -307 -309c0 -175 131 -311 307 -311c180 0 310 136 310 311c0 176 -130 309 -310 309z" />
    <glyph glyph-name="registered" unicode="&#xae;" horiz-adv-x="825" 
d="M297 520h114c75 0 110 -47 110 -93c0 -44 -34 -82 -80 -84l102 -191h-45l-96 187h-65v-187h-40v368zM337 490v-121h62c46 0 82 12 82 58c0 36 -24 63 -82 63h-62zM412 690c198 0 359 -157 359 -349c0 -194 -161 -351 -359 -351s-358 157 -358 351c0 193 160 349 358 349z
M411 650c-176 0 -307 -133 -307 -309c0 -175 131 -311 307 -311c180 0 310 136 310 311c0 176 -130 309 -310 309z" />
    <glyph glyph-name="uni2117" unicode="&#x2117;" horiz-adv-x="825" 
d="M412 690c198 0 359 -157 359 -349c0 -194 -161 -351 -359 -351s-358 157 -358 351c0 193 160 349 358 349zM411 650c-176 0 -307 -133 -307 -309c0 -175 131 -311 307 -311c180 0 310 136 310 311c0 176 -130 309 -310 309zM314 520h114c75 0 110 -47 110 -93
c0 -44 -37 -89 -94 -89l-90 1v-187h-40v368zM354 490v-121h82c26 0 62 12 62 58c0 36 -24 63 -82 63h-62z" />
    <glyph glyph-name="bracketleft" unicode="[" horiz-adv-x="332" 
d="M104 -141v930h184v-45h-134v-840h134v-45h-184z" />
    <glyph glyph-name="backslash" unicode="\" horiz-adv-x="405" 
d="M383 -83h-45l-316 763h45z" />
    <glyph glyph-name="bracketright" unicode="]" horiz-adv-x="332" 
d="M228 789v-930h-184v45h134v840h-134v45h184z" />
    <glyph glyph-name="asciicircum" unicode="^" horiz-adv-x="583" 
d="M529 340h-44l-195 283l-191 -283h-45l225 340h26z" />
    <glyph glyph-name="grave" unicode="`" horiz-adv-x="169" 
d="M145 593h-49l-72 88h53z" />
    <glyph glyph-name="acute" unicode="&#xb4;" horiz-adv-x="169" 
d="M73 592h-49l68 88h53z" />
    <glyph glyph-name="dieresis" unicode="&#xa8;" horiz-adv-x="282" 
d="M24 658c0 18 14 32 32 32s32 -14 32 -32s-14 -32 -32 -32s-32 14 -32 32zM194 658c0 18 14 32 32 32s32 -14 32 -32s-14 -32 -32 -32s-32 14 -32 32z" />
    <glyph glyph-name="braceleft" unicode="{" horiz-adv-x="292" 
d="M84 317c32 28 80 86 80 169c0 46 -5 92 -5 141c0 78 14 143 89 187v-50c-34 -36 -44 -86 -44 -128c0 -40 5 -75 5 -150c0 -78 -19 -120 -67 -169c48 -48 67 -90 67 -168c0 -75 -5 -110 -5 -150c0 -42 10 -92 44 -128v-50c-75 44 -89 109 -89 187c0 49 5 95 5 141
c0 83 -48 141 -80 168z" />
    <glyph glyph-name="bar" unicode="|" horiz-adv-x="253" 
d="M149 -108h-45v811h45v-811z" />
    <glyph glyph-name="braceright" unicode="}" horiz-adv-x="292" 
d="M208 317c-32 -27 -80 -85 -80 -168c0 -46 5 -92 5 -141c0 -78 -14 -143 -89 -187v50c34 36 44 86 44 128c0 40 -5 75 -5 150c0 78 19 120 67 168c-48 49 -67 91 -67 169c0 75 5 110 5 150c0 42 -10 92 -44 128v50c75 -44 89 -109 89 -187c0 -49 -5 -95 -5 -141
c0 -83 48 -141 80 -169z" />
    <glyph glyph-name="asciitilde" unicode="~" horiz-adv-x="636" 
d="M99 211h-45c0 109 61 158 140 158c119 0 159 -119 249 -119c75 0 88 55 94 118h45c0 -111 -62 -158 -139 -158c-122 0 -136 119 -248 119c-79 0 -96 -62 -96 -118z" />
    <glyph glyph-name="cent" unicode="&#xa2;" horiz-adv-x="498" 
d="M99 245c0 -122 75 -215 177 -215c58 0 109 30 138 74l30 -26c-40 -56 -93 -83 -153 -87v-92h-45v94c-110 15 -192 116 -192 252c0 133 82 236 192 252v96h45v-94c60 -4 113 -34 153 -88l-30 -24c-30 44 -80 73 -138 73c-102 0 -177 -94 -177 -215z" />
    <glyph glyph-name="sterling" unicode="&#xa3;" horiz-adv-x="524" 
d="M356 351h-179v-271c0 -11 0 -27 -24 -40h296v-40h-385v41c51 6 54 18 63 53v257h-63v40h63v93c0 104 50 206 187 206c65 0 113 -22 146 -38l-20 -41c-10 7 -75 39 -126 39c-112 0 -137 -91 -137 -166v-93h179v-40z" />
    <glyph glyph-name="currency" unicode="&#xa4;" horiz-adv-x="641" 
d="M587 333c0 -59 -23 -119 -61 -165l58 -55l-33 -32l-57 55c-50 -43 -112 -65 -174 -65s-125 22 -173 65l-57 -55l-33 32l58 55c-38 46 -61 106 -61 165c0 53 23 113 61 159l-58 55l33 32l57 -55c48 43 111 65 173 65s124 -22 174 -65l57 55l33 -32l-58 -55
c38 -46 61 -106 61 -159zM104 333c0 -115 90 -222 215 -222s218 95 218 222c0 123 -95 216 -218 216s-212 -95 -215 -216z" />
    <glyph glyph-name="yen" unicode="&#xa5;" horiz-adv-x="606" 
d="M279 351h-124v40h95l-206 289h58l200 -289c65 95 138 194 202 289h58l-209 -289h96v-40h-125v-53h125v-40h-125v-258h-45v258h-124v40h124v53z" />
    <glyph glyph-name="brokenbar" unicode="&#xa6;" horiz-adv-x="256" 
d="M149 -110h-45v367h45v-367zM149 704v-377h-45v377h45z" />
    <glyph glyph-name="section" unicode="&#xa7;" horiz-adv-x="482" 
d="M103 11l21 40c26 -10 61 -21 97 -21c77 0 127 35 127 81c0 115 -284 75 -284 201c0 49 42 85 105 110c-58 24 -89 62 -89 102c0 78 90 126 188 126c46 0 82 -10 112 -22l-19 -41c-32 15 -54 23 -93 23c-72 0 -138 -38 -138 -83c0 -116 288 -67 288 -200
c0 -44 -41 -82 -104 -115c54 -26 84 -59 84 -97c0 -78 -79 -125 -178 -125c-49 0 -88 7 -117 21zM368 316c0 60 -69 81 -160 97c-51 -24 -95 -49 -95 -88c0 -65 117 -89 165 -97c59 23 90 55 90 88z" />
    <glyph glyph-name="agrave" unicode="&#xe0;" horiz-adv-x="483" 
d="M95 414l-30 30c35 29 97 56 167 56c150 0 177 -116 177 -212v-288h-40l-3 85c-20 -29 -82 -95 -166 -95c-96 0 -156 71 -156 136c0 113 123 164 325 164c0 89 -15 170 -137 170c-47 0 -107 -24 -137 -46zM368 196v54c-111 -1 -277 -20 -277 -120c0 -66 53 -101 109 -101
c73 0 148 81 158 102c10 17 10 50 10 65zM249 592h-49l-72 88h53z" />
    <glyph glyph-name="aacute" unicode="&#xe1;" horiz-adv-x="483" 
d="M95 414l-30 30c35 29 97 56 167 56c150 0 177 -116 177 -212v-288h-40l-3 85c-20 -29 -82 -95 -166 -95c-96 0 -156 71 -156 136c0 113 123 164 325 164c0 89 -15 170 -137 170c-47 0 -107 -24 -137 -46zM368 196v54c-111 -1 -277 -20 -277 -120c0 -66 53 -101 109 -101
c73 0 148 81 158 102c10 17 10 50 10 65zM257 592h-49l68 88h53z" />
    <glyph glyph-name="egrave" unicode="&#xe8;" horiz-adv-x="521" 
d="M282 -10c-157 0 -228 125 -228 255c0 169 97 255 217 255c126 0 206 -89 206 -233v-24h-373c0 -125 68 -213 178 -213c56 0 109 21 145 74l34 -26c-43 -59 -98 -88 -179 -88zM271 460c-81 0 -164 -67 -167 -176h323c0 118 -78 176 -156 176zM292 592h-49l-72 88h53z" />
    <glyph glyph-name="eacute" unicode="&#xe9;" horiz-adv-x="521" 
d="M282 -10c-157 0 -228 125 -228 255c0 169 97 255 217 255c126 0 206 -89 206 -233v-24h-373c0 -125 68 -213 178 -213c56 0 109 21 145 74l34 -26c-43 -59 -98 -88 -179 -88zM271 460c-81 0 -164 -67 -167 -176h323c0 118 -78 176 -156 176zM285 592h-49l68 88h53z" />
    <glyph glyph-name="adieresis" unicode="&#xe4;" horiz-adv-x="483" 
d="M95 414l-30 30c35 29 97 56 167 56c150 0 177 -116 177 -212v-288h-40l-3 85c-20 -29 -82 -95 -166 -95c-96 0 -156 71 -156 136c0 113 123 164 325 164c0 89 -15 170 -137 170c-47 0 -107 -24 -137 -46zM368 196v54c-111 -1 -277 -20 -277 -120c0 -66 53 -101 109 -101
c73 0 148 81 158 102c10 17 10 50 10 65zM106 658c0 18 14 32 32 32s32 -14 32 -32s-14 -32 -32 -32s-32 14 -32 32zM276 658c0 18 14 32 32 32s32 -14 32 -32s-14 -32 -32 -32s-32 14 -32 32z" />
    <glyph glyph-name="edieresis" unicode="&#xeb;" horiz-adv-x="521" 
d="M282 -10c-157 0 -228 125 -228 255c0 169 97 255 217 255c126 0 206 -89 206 -233v-24h-373c0 -125 68 -213 178 -213c56 0 109 21 145 74l34 -26c-43 -59 -98 -88 -179 -88zM271 460c-81 0 -164 -67 -167 -176h323c0 118 -78 176 -156 176zM150 658c0 18 14 32 32 32
s32 -14 32 -32s-14 -32 -32 -32s-32 14 -32 32zM320 658c0 18 14 32 32 32s32 -14 32 -32s-14 -32 -32 -32s-32 14 -32 32z" />
    <glyph glyph-name="Egrave" unicode="&#xc8;" horiz-adv-x="522" 
d="M458 640h-309v-250h282v-40h-282v-311h309v-39h-354v680h354v-40zM308 768h-49l-72 88h53z" />
    <glyph glyph-name="Eacute" unicode="&#xc9;" horiz-adv-x="522" 
d="M458 640h-309v-250h282v-40h-282v-311h309v-39h-354v680h354v-40zM303 768h-49l68 88h53z" />
    <glyph glyph-name="Edieresis" unicode="&#xcb;" horiz-adv-x="522" 
d="M458 640h-309v-250h282v-40h-282v-311h309v-39h-354v680h354v-40zM165 828c0 18 14 32 32 32s32 -14 32 -32s-14 -32 -32 -32s-32 14 -32 32zM335 828c0 18 14 32 32 32s32 -14 32 -32s-14 -32 -32 -32s-32 14 -32 32z" />
    <glyph glyph-name="Ograve" unicode="&#xd2;" horiz-adv-x="713" 
d="M359 690c167 0 300 -157 300 -350c0 -192 -133 -350 -300 -350c-171 0 -305 158 -305 350c0 193 134 350 305 350zM359 650c-144 0 -255 -135 -255 -310c0 -177 111 -310 255 -310c138 0 250 133 250 310c0 175 -112 310 -250 310zM383 768h-49l-72 88h53z" />
    <glyph glyph-name="Oacute" unicode="&#xd3;" horiz-adv-x="713" 
d="M359 690c167 0 300 -157 300 -350c0 -192 -133 -350 -300 -350c-171 0 -305 158 -305 350c0 193 134 350 305 350zM359 650c-144 0 -255 -135 -255 -310c0 -177 111 -310 255 -310c138 0 250 133 250 310c0 175 -112 310 -250 310zM377 768h-49l68 88h53z" />
    <glyph glyph-name="Ugrave" unicode="&#xd9;" horiz-adv-x="689" 
d="M595 680v-381c0 -204 -95 -309 -256 -309c-160 0 -245 109 -245 309v381h45v-381c0 -266 169 -272 200 -272c36 0 211 5 211 272v381h45zM376 768h-49l-72 88h53z" />
    <glyph glyph-name="Uacute" unicode="&#xda;" horiz-adv-x="689" 
d="M595 680v-381c0 -204 -95 -309 -256 -309c-160 0 -245 109 -245 309v381h45v-381c0 -266 169 -272 200 -272c36 0 211 5 211 272v381h45zM361 768h-49l68 88h53z" />
    <glyph glyph-name="Udieresis" unicode="&#xdc;" horiz-adv-x="689" 
d="M595 680v-381c0 -204 -95 -309 -256 -309c-160 0 -245 109 -245 309v381h45v-381c0 -266 169 -272 200 -272c36 0 211 5 211 272v381h45zM228 828c0 18 14 32 32 32s32 -14 32 -32s-14 -32 -32 -32s-32 14 -32 32zM398 828c0 18 14 32 32 32s32 -14 32 -32
s-14 -32 -32 -32s-32 14 -32 32z" />
    <glyph glyph-name="ograve" unicode="&#xf2;" horiz-adv-x="542" 
d="M272 500c113 0 216 -114 216 -255c0 -142 -103 -255 -216 -255c-117 0 -218 113 -218 255c0 141 101 255 218 255zM272 460c-90 0 -168 -94 -168 -215c0 -122 78 -215 168 -215c89 0 166 93 166 215c0 121 -77 215 -166 215zM297 592h-49l-72 88h53z" />
    <glyph glyph-name="oacute" unicode="&#xf3;" horiz-adv-x="542" 
d="M272 500c113 0 216 -114 216 -255c0 -142 -103 -255 -216 -255c-117 0 -218 113 -218 255c0 141 101 255 218 255zM272 460c-90 0 -168 -94 -168 -215c0 -122 78 -215 168 -215c89 0 166 93 166 215c0 121 -77 215 -166 215zM291 592h-49l68 88h53z" />
    <glyph glyph-name="odieresis" unicode="&#xf6;" horiz-adv-x="542" 
d="M272 500c113 0 216 -114 216 -255c0 -142 -103 -255 -216 -255c-117 0 -218 113 -218 255c0 141 101 255 218 255zM272 460c-90 0 -168 -94 -168 -215c0 -122 78 -215 168 -215c89 0 166 93 166 215c0 121 -77 215 -166 215zM156 658c0 18 14 32 32 32s32 -14 32 -32
s-14 -32 -32 -32s-32 14 -32 32zM326 658c0 18 14 32 32 32s32 -14 32 -32s-14 -32 -32 -32s-32 14 -32 32z" />
    <glyph glyph-name="ugrave" unicode="&#xf9;" horiz-adv-x="531" 
d="M407 0l-5 121c-23 -63 -101 -131 -182 -131c-73 0 -146 55 -146 150v350h45v-336c0 -78 42 -124 96 -124c83 0 187 91 187 214v246h45v-490h-40zM288 592h-49l-72 88h53z" />
    <glyph glyph-name="uacute" unicode="&#xfa;" horiz-adv-x="531" 
d="M407 0l-5 121c-23 -63 -101 -131 -182 -131c-73 0 -146 55 -146 150v350h45v-336c0 -78 42 -124 96 -124c83 0 187 91 187 214v246h45v-490h-40zM281 592h-49l68 88h53z" />
    <glyph glyph-name="udieresis" unicode="&#xfc;" horiz-adv-x="531" 
d="M407 0l-5 121c-23 -63 -101 -131 -182 -131c-73 0 -146 55 -146 150v350h45v-336c0 -78 42 -124 96 -124c83 0 187 91 187 214v246h45v-490h-40zM143 658c0 18 14 32 32 32s32 -14 32 -32s-14 -32 -32 -32s-32 14 -32 32zM313 658c0 18 14 32 32 32s32 -14 32 -32
s-14 -32 -32 -32s-32 14 -32 32z" />
    <glyph glyph-name="Cacute" unicode="&#x106;" horiz-adv-x="642" 
d="M104 340c0 -177 111 -310 255 -310c82 0 155 47 200 118l34 -33c-60 -86 -143 -125 -234 -125c-171 0 -305 148 -305 350s134 350 305 350c91 0 174 -41 234 -125l-34 -33c-47 73 -118 118 -200 118c-144 0 -255 -134 -255 -310zM379 768h-49l68 88h53z" />
    <glyph glyph-name="cacute" unicode="&#x107;" horiz-adv-x="488" 
d="M99 245c0 -122 75 -215 177 -215c58 0 109 30 138 74l30 -26c-43 -60 -102 -88 -168 -88c-124 0 -222 107 -222 255c0 145 98 255 222 255c66 0 125 -30 168 -89l-30 -24c-30 44 -80 73 -138 73c-102 0 -177 -94 -177 -215zM298 592h-49l68 88h53z" />
    <glyph glyph-name="Agrave" unicode="&#xc0;" horiz-adv-x="568" 
d="M554 0h-45l-83 233h-283l-84 -233h-45l247 680h45zM160 273h252l-129 337zM310 769h-49l-72 87h53z" />
    <glyph glyph-name="Aacute" unicode="&#xc1;" horiz-adv-x="568" 
d="M554 0h-45l-83 233h-283l-84 -233h-45l247 680h45zM160 273h252l-129 337zM309 768h-49l68 88h53z" />
    <glyph glyph-name="Adieresis" unicode="&#xc4;" horiz-adv-x="568" 
d="M554 0h-45l-83 233h-283l-84 -233h-45l247 680h45zM160 273h252l-129 337zM170 828c0 18 14 32 32 32s32 -14 32 -32s-14 -32 -32 -32s-32 14 -32 32zM340 828c0 18 14 32 32 32s32 -14 32 -32s-14 -32 -32 -32s-32 14 -32 32z" />
    <glyph glyph-name="ordfeminine" unicode="&#xaa;" horiz-adv-x="376" 
d="M320 224h-266v30h266v-30zM98 631l-16 30c26 14 71 29 111 29c108 0 129 -87 129 -154v-208h-33l-4 52c-23 -21 -74 -60 -116 -60c-69 0 -115 54 -115 100c0 82 99 117 232 118c0 61 -12 122 -93 122c-42 0 -67 -13 -95 -29zM287 471v37c-80 -2 -198 -9 -198 -85
c0 -47 41 -73 80 -73c52 0 102 53 111 64c7 10 7 47 7 57z" />
    <glyph glyph-name="ordmasculine" unicode="&#xba;" horiz-adv-x="418" 
d="M210 690c83 0 154 -84 154 -186s-71 -186 -154 -186c-88 0 -156 84 -156 186s68 186 156 186zM210 660c-64 0 -121 -70 -121 -156c0 -88 57 -156 121 -156s119 68 119 156c0 86 -55 156 -119 156zM352 224h-289v30h289v-30z" />
    <glyph glyph-name="Odieresis" unicode="&#xd6;" horiz-adv-x="713" 
d="M359 690c167 0 300 -157 300 -350c0 -192 -133 -350 -300 -350c-171 0 -305 158 -305 350c0 193 134 350 305 350zM359 650c-144 0 -255 -135 -255 -310c0 -177 111 -310 255 -310c138 0 250 133 250 310c0 175 -112 310 -250 310zM238 828c0 18 14 32 32 32
s32 -14 32 -32s-14 -32 -32 -32s-32 14 -32 32zM408 828c0 18 14 32 32 32s32 -14 32 -32s-14 -32 -32 -32s-32 14 -32 32z" />
    <glyph glyph-name="guillemotleft" unicode="&#xab;" horiz-adv-x="441" 
d="M174 85l-107 202l107 188h40l-107 -188l107 -202h-40zM359 85l-107 202l106 188h40l-106 -188l107 -202h-40z" />
    <glyph glyph-name="guillemotright" unicode="&#xbb;" horiz-adv-x="440" 
d="M188 287l-106 -202h-40l106 202l-106 188h40zM373 287l-106 -202h-40l106 202l-107 188h40z" />
    <glyph glyph-name="logicalnot" unicode="&#xac;" horiz-adv-x="634" 
d="M59 309h516v-179h-45v141h-471v38z" />
    <glyph glyph-name="uni00A0" unicode="&#xa0;" horiz-adv-x="0" 
 />
    <glyph glyph-name="uni00AD" unicode="&#xad;" horiz-adv-x="399" 
d="M315 269h-231v40h231v-40z" />
    <glyph glyph-name="degree" unicode="&#xb0;" horiz-adv-x="286" 
d="M54 598c0 52 40 95 89 95s89 -43 89 -95s-40 -95 -89 -95s-89 43 -89 95zM84 598c0 -35 26 -63 59 -63s59 28 59 63s-26 63 -59 63s-59 -28 -59 -63z" />
    <glyph glyph-name="twosuperior" unicode="&#xb2;" horiz-adv-x="321" 
d="M157 705c-31 0 -67 -23 -67 -83h-36c0 63 39 114 103 114c67 0 107 -42 107 -106c0 -116 -176 -146 -176 -247h179v-30h-213v44c0 86 175 147 175 231c0 58 -40 77 -72 77z" />
    <glyph glyph-name="threesuperior" unicode="&#xb3;" horiz-adv-x="330" 
d="M276 455c0 -64 -46 -106 -113 -106c-64 0 -109 51 -109 114h35c0 -60 43 -83 74 -83c32 0 79 21 79 79s-41 80 -83 80h-44v30h43c37 0 72 27 72 71s-43 66 -72 66c-31 0 -69 -24 -69 -84h-35c0 63 40 114 104 114c63 0 107 -45 107 -96c0 -43 -20 -68 -52 -83
c34 -14 63 -48 63 -102z" />
    <glyph glyph-name="onesuperior" unicode="&#xb9;" horiz-adv-x="263" 
d="M209 383v-30h-175v30h70v287l-39 -47l-27 21l66 85h35v-346h70z" />
    <glyph glyph-name="mu" unicode="&#xb5;" horiz-adv-x="541" 
d="M417 0l-5 121c-23 -63 -101 -131 -182 -131c-37 0 -74 14 -101 40v-262h-45v722h45v-336c0 -78 42 -124 96 -124c83 0 187 91 187 214v246h45v-490h-40z" />
    <glyph glyph-name="paragraph" unicode="&#xb6;" horiz-adv-x="573" 
d="M519 -102h-45v743h-155v-743h-45v404c-145 0 -220 95 -220 191c0 91 74 188 220 188h245v-783z" />
    <glyph glyph-name="cedilla" unicode="&#xb8;" horiz-adv-x="222" 
d="M69 -124l27 125h33l-19 -91c72 0 88 -49 88 -77c0 -39 -30 -73 -90 -73c-46 0 -73 27 -84 41l22 18c21 -20 35 -29 63 -29c34 0 54 22 54 46c0 23 -18 44 -60 44c-10 0 -21 -1 -34 -4z" />
    <glyph glyph-name="Ccedilla" unicode="&#xc7;" horiz-adv-x="642" 
d="M313 -125l25 116c-161 11 -284 155 -284 349c0 202 134 350 305 350c91 0 174 -41 234 -125l-34 -33c-47 73 -118 118 -200 118c-144 0 -255 -134 -255 -310c0 -177 111 -310 255 -310c82 0 155 47 200 118l34 -33c-58 -83 -136 -121 -222 -125l-17 -81
c72 0 88 -49 88 -77c0 -39 -30 -73 -90 -73c-46 0 -73 27 -84 41l22 18c21 -20 35 -29 63 -29c34 0 54 22 54 46c0 23 -18 44 -60 44c-10 0 -21 -1 -34 -4z" />
    <glyph glyph-name="ccedilla" unicode="&#xe7;" horiz-adv-x="488" 
d="M230 -125l25 117c-114 11 -201 113 -201 253c0 145 98 255 222 255c66 0 125 -30 168 -89l-30 -24c-30 44 -80 73 -138 73c-102 0 -177 -94 -177 -215c0 -122 75 -215 177 -215c58 0 109 30 138 74l30 -26c-41 -57 -95 -85 -156 -88l-17 -81c72 0 88 -49 88 -77
c0 -39 -30 -73 -90 -73c-46 0 -73 27 -84 41l22 18c21 -20 35 -29 63 -29c34 0 54 22 54 46c0 23 -18 44 -60 44c-10 0 -21 -1 -34 -4z" />
    <glyph glyph-name="onequarter" unicode="&#xbc;" horiz-adv-x="677" 
d="M178 0h-45l410 681h45zM229 334v-30h-175v30h70v287l-39 -47l-27 21l66 85h35v-346h70zM577 126h46v-30h-46v-96h-35v96h-171v30l165 249h41v-249zM541 126v191l-131 -191h131z" />
    <glyph glyph-name="fraction" unicode="&#x2044;" horiz-adv-x="227" 
d="M-69 0h-45l410 681h45z" />
    <glyph glyph-name="threequarters" unicode="&#xbe;" horiz-adv-x="718" 
d="M203 0h-45l410 681h45zM618 126h46v-30h-46v-96h-35v96h-171v30l165 249h41v-249zM582 126v191l-131 -191h131zM276 409c0 -64 -46 -106 -113 -106c-64 0 -109 51 -109 114h35c0 -60 43 -83 74 -83c32 0 79 21 79 79s-41 80 -83 80h-44v30h43c37 0 72 27 72 71
s-43 66 -72 66c-31 0 -69 -24 -69 -84h-35c0 63 40 114 104 114c63 0 107 -45 107 -96c0 -43 -20 -68 -52 -83c34 -14 63 -48 63 -102z" />
    <glyph glyph-name="onehalf" unicode="&#xbd;" horiz-adv-x="666" 
d="M158 0h-45l410 681h45zM229 334v-30h-175v30h70v287l-39 -47l-27 21l66 85h35v-346h70zM502 352c-31 0 -67 -23 -67 -83h-36c0 63 39 114 103 114c67 0 107 -42 107 -106c0 -116 -176 -146 -176 -247h179v-30h-213v44c0 86 175 147 175 231c0 58 -40 77 -72 77z" />
    <glyph glyph-name="circumflex" unicode="&#x2c6;" horiz-adv-x="236" 
d="M64 594h-40l68 87h51l69 -87h-40l-54 54z" />
    <glyph glyph-name="caron" unicode="&#x2c7;" horiz-adv-x="236" 
d="M24 680h40l54 -54l54 54h40l-69 -87h-51z" />
    <glyph glyph-name="breve" unicode="&#x2d8;" horiz-adv-x="283" 
d="M59 680c6 -40 45 -62 81 -62c37 0 78 21 84 62h35c-12 -61 -63 -92 -119 -92c-55 0 -104 32 -116 92h35z" />
    <glyph glyph-name="dotaccent" unicode="&#x2d9;" horiz-adv-x="131" 
d="M65 650c22 0 42 -15 42 -35c0 -21 -20 -38 -42 -38c-24 0 -41 17 -41 38c0 20 17 35 41 35z" />
    <glyph glyph-name="ring" unicode="&#x2da;" horiz-adv-x="188" 
d="M24 617c0 40 33 73 75 73s75 -33 75 -73c0 -41 -33 -74 -75 -74s-75 33 -75 74zM59 617c0 -25 17 -44 40 -44c22 0 40 19 40 44c0 23 -18 43 -40 43c-23 0 -40 -20 -40 -43z" />
    <glyph glyph-name="ogonek" unicode="&#x2db;" horiz-adv-x="158" 
d="M81 7h30l7 -7c-34 -23 -59 -64 -59 -109c0 -47 29 -81 75 -95l-11 -26c-59 17 -99 62 -99 124c0 44 25 89 57 113z" />
    <glyph glyph-name="tilde" unicode="&#x2dc;" horiz-adv-x="339" 
d="M280 680h35c-5 -30 -20 -71 -87 -74c-68 3 -83 53 -120 53c-28 0 -44 -17 -49 -44h-35c6 33 23 74 84 74c59 0 73 -53 120 -53c30 0 47 13 52 44z" />
    <glyph glyph-name="hungarumlaut" unicode="&#x2dd;" horiz-adv-x="285" 
d="M64 593h-40l62 86h45zM196 593h-40l60 86h45z" />
    <glyph glyph-name="uni02C9" unicode="&#x2c9;" horiz-adv-x="262" 
d="M238 650h-214v30h214v-30z" />
    <glyph glyph-name="Acircumflex" unicode="&#xc2;" horiz-adv-x="568" 
d="M554 0h-45l-83 233h-283l-84 -233h-45l247 680h45zM160 273h252l-129 337zM233 769h-40l68 87h51l69 -87h-40l-54 54z" />
    <glyph glyph-name="Atilde" unicode="&#xc3;" horiz-adv-x="568" 
d="M554 0h-45l-83 233h-283l-84 -233h-45l247 680h45zM160 273h252l-129 337zM397 856h35c-5 -30 -20 -71 -87 -74c-68 3 -83 53 -120 53c-28 0 -44 -17 -49 -44h-35c6 33 23 74 84 74c59 0 73 -53 120 -53c30 0 47 13 52 44z" />
    <glyph glyph-name="Aring" unicode="&#xc5;" horiz-adv-x="568" 
d="M554 0h-45l-83 233h-283l-84 -233h-45l247 680h45zM160 273h252l-129 337zM212 787c0 40 33 73 75 73s75 -33 75 -73c0 -41 -33 -74 -75 -74s-75 33 -75 74zM247 787c0 -25 17 -44 40 -44c22 0 40 19 40 44c0 23 -18 43 -40 43c-23 0 -40 -20 -40 -43z" />
    <glyph glyph-name="AE" unicode="&#xc6;" horiz-adv-x="830" 
d="M766 640h-310v-250h283v-40h-283v-310h310v-40h-356v235h-220c-41 -77 -85 -163 -126 -235h-50l366 680h386v-40zM215 275h196v365z" />
    <glyph glyph-name="Ecircumflex" unicode="&#xca;" horiz-adv-x="522" 
d="M458 640h-309v-250h282v-40h-282v-311h309v-39h-354v680h354v-40zM229 769h-40l68 87h51l69 -87h-40l-54 54z" />
    <glyph glyph-name="Igrave" unicode="&#xcc;" horiz-adv-x="253" 
d="M149 0h-45v680h45v-680zM155 768h-49l-72 88h53z" />
    <glyph glyph-name="Iacute" unicode="&#xcd;" horiz-adv-x="253" 
d="M149 0h-45v680h45v-680zM152 768h-49l68 88h53z" />
    <glyph glyph-name="Icircumflex" unicode="&#xce;" horiz-adv-x="253" 
d="M149 0h-45v680h45v-680zM73 769h-40l68 87h51l69 -87h-40l-54 54z" />
    <glyph glyph-name="Idieresis" unicode="&#xcf;" horiz-adv-x="253" 
d="M149 0h-45v680h45v-680zM10 828c0 18 14 32 32 32s32 -14 32 -32s-14 -32 -32 -32s-32 14 -32 32zM180 828c0 18 14 32 32 32s32 -14 32 -32s-14 -32 -32 -32s-32 14 -32 32z" />
    <glyph glyph-name="Ntilde" unicode="&#xd1;" horiz-adv-x="664" 
d="M560 0h-52l-360 610v-610h-44v680h52l359 -610v610h45v-680zM445 856h35c-5 -30 -20 -71 -87 -74c-68 3 -83 53 -120 53c-28 0 -44 -17 -49 -44h-35c6 33 23 74 84 74c59 0 73 -53 120 -53c30 0 47 13 52 44z" />
    <glyph glyph-name="Ocircumflex" unicode="&#xd4;" horiz-adv-x="713" 
d="M359 690c167 0 300 -157 300 -350c0 -192 -133 -350 -300 -350c-171 0 -305 158 -305 350c0 193 134 350 305 350zM359 650c-144 0 -255 -135 -255 -310c0 -177 111 -310 255 -310c138 0 250 133 250 310c0 175 -112 310 -250 310zM304 769h-40l68 87h51l69 -87h-40
l-54 54z" />
    <glyph glyph-name="Otilde" unicode="&#xd5;" horiz-adv-x="713" 
d="M359 690c167 0 300 -157 300 -350c0 -192 -133 -350 -300 -350c-171 0 -305 158 -305 350c0 193 134 350 305 350zM359 650c-144 0 -255 -135 -255 -310c0 -177 111 -310 255 -310c138 0 250 133 250 310c0 175 -112 310 -250 310zM467 856h35c-5 -30 -20 -71 -87 -74
c-68 3 -83 53 -120 53c-28 0 -44 -17 -49 -44h-35c6 33 23 74 84 74c59 0 73 -53 120 -53c30 0 47 13 52 44z" />
    <glyph glyph-name="Oslash" unicode="&#xd8;" horiz-adv-x="713" 
d="M359 690c39 0 76 -9 110 -24l18 44h46l-27 -65c91 -60 153 -174 153 -305c0 -192 -133 -350 -300 -350c-41 0 -80 9 -115 25l-23 -55h-45l31 76c-92 60 -153 174 -153 304c0 193 134 350 305 350zM609 340c0 114 -48 212 -120 265l-230 -552c31 -15 64 -23 100 -23
c138 0 250 133 250 310zM359 650c-144 0 -255 -135 -255 -310c0 -115 47 -212 119 -265l230 552c-29 15 -61 23 -94 23z" />
    <glyph glyph-name="Ucircumflex" unicode="&#xdb;" horiz-adv-x="689" 
d="M595 680v-381c0 -204 -95 -309 -256 -309c-160 0 -245 109 -245 309v381h45v-381c0 -266 169 -272 200 -272c36 0 211 5 211 272v381h45zM291 769h-40l68 87h51l69 -87h-40l-54 54z" />
    <glyph glyph-name="Yacute" unicode="&#xdd;" horiz-adv-x="547" 
d="M249 343l-235 337h57l201 -297l204 297h57l-239 -337v-343h-45v343zM295 768h-49l68 88h53z" />
    <glyph glyph-name="germandbls" unicode="&#xdf;" horiz-adv-x="520" 
d="M202 43l32 32c13 -20 45 -47 99 -47c53 0 103 40 103 107c0 105 -170 136 -170 251c0 59 76 120 76 169c0 54 -31 95 -93 95c-92 0 -120 -89 -120 -162v-488h-45v471c0 120 46 219 165 219c116 0 143 -85 143 -135c0 -63 -76 -122 -76 -169c0 -86 170 -123 170 -246
c0 -93 -73 -152 -153 -152c-72 0 -108 28 -131 55z" />
    <glyph glyph-name="Thorn" unicode="&#xde;" horiz-adv-x="517" 
d="M290 157h-141v-157h-45v680h45v-158h141c127 0 198 -90 198 -182c0 -97 -74 -183 -198 -183zM149 482v-285h148c76 0 142 61 142 143c0 78 -60 142 -149 142h-141z" />
    <glyph glyph-name="acircumflex" unicode="&#xe2;" horiz-adv-x="483" 
d="M95 414l-30 30c35 29 97 56 167 56c150 0 177 -116 177 -212v-288h-40l-3 85c-20 -29 -82 -95 -166 -95c-96 0 -156 71 -156 136c0 113 123 164 325 164c0 89 -15 170 -137 170c-47 0 -107 -24 -137 -46zM368 196v54c-111 -1 -277 -20 -277 -120c0 -66 53 -101 109 -101
c73 0 148 81 158 102c10 17 10 50 10 65zM174 593h-40l68 87h51l69 -87h-40l-54 54z" />
    <glyph glyph-name="atilde" unicode="&#xe3;" horiz-adv-x="483" 
d="M95 414l-30 30c35 29 97 56 167 56c150 0 177 -116 177 -212v-288h-40l-3 85c-20 -29 -82 -95 -166 -95c-96 0 -156 71 -156 136c0 113 123 164 325 164c0 89 -15 170 -137 170c-47 0 -107 -24 -137 -46zM368 196v54c-111 -1 -277 -20 -277 -120c0 -66 53 -101 109 -101
c73 0 148 81 158 102c10 17 10 50 10 65zM346 680h35c-5 -30 -20 -71 -87 -74c-68 3 -83 53 -120 53c-28 0 -44 -17 -49 -44h-35c6 33 23 74 84 74c59 0 73 -53 120 -53c30 0 47 13 52 44z" />
    <glyph glyph-name="aring" unicode="&#xe5;" horiz-adv-x="483" 
d="M95 414l-30 30c35 29 97 56 167 56c150 0 177 -116 177 -212v-288h-40l-3 85c-20 -29 -82 -95 -166 -95c-96 0 -156 71 -156 136c0 113 123 164 325 164c0 89 -15 170 -137 170c-47 0 -107 -24 -137 -46zM368 196v54c-111 -1 -277 -20 -277 -120c0 -66 53 -101 109 -101
c73 0 148 81 158 102c10 17 10 50 10 65zM157 617c0 40 33 73 75 73s75 -33 75 -73c0 -41 -33 -74 -75 -74s-75 33 -75 74zM192 617c0 -25 17 -44 40 -44c22 0 40 19 40 44c0 23 -18 43 -40 43c-23 0 -40 -20 -40 -43z" />
    <glyph glyph-name="ecircumflex" unicode="&#xea;" horiz-adv-x="521" 
d="M282 -10c-157 0 -228 125 -228 255c0 169 97 255 217 255c126 0 206 -89 206 -233v-24h-373c0 -125 68 -213 178 -213c56 0 109 21 145 74l34 -26c-43 -59 -98 -88 -179 -88zM271 460c-81 0 -164 -67 -167 -176h323c0 118 -78 176 -156 176zM212 593h-40l68 87h51l69 -87
h-40l-54 54z" />
    <glyph glyph-name="dotlessi" unicode="&#x131;" horiz-adv-x="213" 
d="M129 0h-45v490h45v-490z" />
    <glyph glyph-name="igrave" unicode="&#xec;" horiz-adv-x="213" 
d="M129 0h-45v490h45v-490zM132 592h-49l-72 88h53z" />
    <glyph glyph-name="iacute" unicode="&#xed;" horiz-adv-x="213" 
d="M129 0h-45v490h45v-490zM131 592h-49l68 88h53z" />
    <glyph glyph-name="icircumflex" unicode="&#xee;" horiz-adv-x="213" 
d="M129 0h-45v490h45v-490zM52 593h-40l68 87h51l69 -87h-40l-54 54z" />
    <glyph glyph-name="idieresis" unicode="&#xef;" horiz-adv-x="213" 
d="M129 0h-45v490h45v-490zM-10 657c0 18 14 32 32 32s32 -14 32 -32s-14 -32 -32 -32s-32 14 -32 32zM160 657c0 18 14 32 32 32s32 -14 32 -32s-14 -32 -32 -32s-32 14 -32 32z" />
    <glyph glyph-name="ntilde" unicode="&#xf1;" horiz-adv-x="531" 
d="M124 490l5 -121c23 63 101 131 182 131c73 0 146 -55 146 -150v-350h-45v336c0 78 -42 124 -96 124c-83 0 -187 -91 -187 -214v-246h-45v490h40zM383 680h35c-5 -30 -20 -71 -87 -74c-68 3 -83 53 -120 53c-28 0 -44 -17 -49 -44h-35c6 33 23 74 84 74
c59 0 73 -53 120 -53c30 0 47 13 52 44z" />
    <glyph glyph-name="ocircumflex" unicode="&#xf4;" horiz-adv-x="542" 
d="M272 500c113 0 216 -114 216 -255c0 -142 -103 -255 -216 -255c-117 0 -218 113 -218 255c0 141 101 255 218 255zM272 460c-90 0 -168 -94 -168 -215c0 -122 78 -215 168 -215c89 0 166 93 166 215c0 121 -77 215 -166 215zM217 593h-40l68 87h51l69 -87h-40l-54 54z
" />
    <glyph glyph-name="otilde" unicode="&#xf5;" horiz-adv-x="542" 
d="M272 500c113 0 216 -114 216 -255c0 -142 -103 -255 -216 -255c-117 0 -218 113 -218 255c0 141 101 255 218 255zM272 460c-90 0 -168 -94 -168 -215c0 -122 78 -215 168 -215c89 0 166 93 166 215c0 121 -77 215 -166 215zM382 680h35c-5 -30 -20 -71 -87 -74
c-68 3 -83 53 -120 53c-28 0 -44 -17 -49 -44h-35c6 33 23 74 84 74c59 0 73 -53 120 -53c30 0 47 13 52 44z" />
    <glyph glyph-name="oslash" unicode="&#xf8;" horiz-adv-x="542" 
d="M272 500c26 0 51 -7 75 -18l20 48h45l-28 -69c61 -45 104 -125 104 -216c0 -142 -103 -255 -216 -255c-27 0 -52 6 -76 16l-21 -53h-45l30 74c-63 44 -106 125 -106 218c0 141 101 255 218 255zM272 460c-90 0 -168 -94 -168 -215c0 -75 29 -140 73 -178l155 378
c-19 9 -39 15 -60 15zM438 245c0 73 -29 137 -71 175l-155 -376c19 -9 39 -14 60 -14c89 0 166 93 166 215z" />
    <glyph glyph-name="ucircumflex" unicode="&#xfb;" horiz-adv-x="531" 
d="M407 0l-5 121c-23 -63 -101 -131 -182 -131c-73 0 -146 55 -146 150v350h45v-336c0 -78 42 -124 96 -124c83 0 187 91 187 214v246h45v-490h-40zM209 593h-40l68 87h51l69 -87h-40l-54 54z" />
    <glyph glyph-name="yacute" unicode="&#xfd;" horiz-adv-x="480" 
d="M85 -240c-23 0 -36 1 -54 7l17 38c11 -4 23 -5 33 -5c36 0 66 21 81 59l49 131l-182 500h50l156 -440l166 440h50l-244 -625c-30 -76 -74 -105 -122 -105zM261 592h-49l68 88h53z" />
    <glyph glyph-name="ydieresis" unicode="&#xff;" horiz-adv-x="480" 
d="M85 -240c-23 0 -36 1 -54 7l17 38c11 -4 23 -5 33 -5c36 0 66 21 81 59l49 131l-182 500h50l156 -440l166 440h50l-244 -625c-30 -76 -74 -105 -122 -105zM118 658c0 18 14 32 32 32s32 -14 32 -32s-14 -32 -32 -32s-32 14 -32 32zM288 658c0 18 14 32 32 32
s32 -14 32 -32s-14 -32 -32 -32s-32 14 -32 32z" />
    <glyph glyph-name="macron" unicode="&#xaf;" horiz-adv-x="262" 
d="M238 650h-214v30h214v-30z" />
    <glyph glyph-name="Amacron" unicode="&#x100;" horiz-adv-x="568" 
d="M554 0h-45l-83 233h-283l-84 -233h-45l247 680h45zM160 273h252l-129 337zM395 826h-214v30h214v-30z" />
    <glyph glyph-name="Abreve" unicode="&#x102;" horiz-adv-x="568" 
d="M554 0h-45l-83 233h-283l-84 -233h-45l247 680h45zM160 273h252l-129 337zM205 856c6 -40 45 -62 81 -62c37 0 78 21 84 62h35c-12 -61 -63 -92 -119 -92c-55 0 -104 32 -116 92h35z" />
    <glyph glyph-name="Aogonek" unicode="&#x104;" horiz-adv-x="572" 
d="M261 680h45l248 -680c-33 -23 -58 -64 -58 -109c0 -47 29 -81 75 -95l-11 -26c-59 17 -99 62 -99 124c0 40 20 81 48 106l-83 233h-283l-84 -233h-45zM160 273h252l-129 337z" />
    <glyph glyph-name="amacron" unicode="&#x101;" horiz-adv-x="483" 
d="M95 414l-30 30c35 29 97 56 167 56c150 0 177 -116 177 -212v-288h-40l-3 85c-20 -29 -82 -95 -166 -95c-96 0 -156 71 -156 136c0 113 123 164 325 164c0 89 -15 170 -137 170c-47 0 -107 -24 -137 -46zM368 196v54c-111 -1 -277 -20 -277 -120c0 -66 53 -101 109 -101
c73 0 148 81 158 102c10 17 10 50 10 65zM346 650h-214v30h214v-30z" />
    <glyph glyph-name="abreve" unicode="&#x103;" horiz-adv-x="483" 
d="M95 414l-30 30c35 29 97 56 167 56c150 0 177 -116 177 -212v-288h-40l-3 85c-20 -29 -82 -95 -166 -95c-96 0 -156 71 -156 136c0 113 123 164 325 164c0 89 -15 170 -137 170c-47 0 -107 -24 -137 -46zM368 196v54c-111 -1 -277 -20 -277 -120c0 -66 53 -101 109 -101
c73 0 148 81 158 102c10 17 10 50 10 65zM145 680c6 -40 45 -62 81 -62c37 0 78 21 84 62h35c-12 -61 -63 -92 -119 -92c-55 0 -104 32 -116 92h35z" />
    <glyph glyph-name="aogonek" unicode="&#x105;" horiz-adv-x="483" 
d="M95 414l-30 30c35 29 97 56 167 56c150 0 177 -116 177 -212v-288c-34 -24 -59 -65 -59 -110c0 -47 29 -81 75 -95l-11 -26c-59 17 -99 62 -99 124c0 43 23 86 54 110l-3 82c-20 -29 -82 -95 -166 -95c-96 0 -156 71 -156 136c0 113 123 164 325 164
c0 89 -15 170 -137 170c-47 0 -107 -24 -137 -46zM368 196v54c-111 -1 -277 -20 -277 -120c0 -66 53 -101 109 -101c73 0 148 81 158 102c10 17 10 50 10 65z" />
    <glyph glyph-name="Ccircumflex" unicode="&#x108;" horiz-adv-x="642" 
d="M104 340c0 -177 111 -310 255 -310c82 0 155 47 200 118l34 -33c-60 -86 -143 -125 -234 -125c-171 0 -305 148 -305 350s134 350 305 350c91 0 174 -41 234 -125l-34 -33c-47 73 -118 118 -200 118c-144 0 -255 -134 -255 -310zM301 769h-40l68 87h51l69 -87h-40l-54 54
z" />
    <glyph glyph-name="Cdotaccent" unicode="&#x10a;" horiz-adv-x="642" 
d="M104 340c0 -177 111 -310 255 -310c82 0 155 47 200 118l34 -33c-60 -86 -143 -125 -234 -125c-171 0 -305 148 -305 350s134 350 305 350c91 0 174 -41 234 -125l-34 -33c-47 73 -118 118 -200 118c-144 0 -255 -134 -255 -310zM362 860c22 0 42 -15 42 -35
c0 -21 -20 -38 -42 -38c-24 0 -41 17 -41 38c0 20 17 35 41 35z" />
    <glyph glyph-name="Ccaron" unicode="&#x10c;" horiz-adv-x="642" 
d="M104 340c0 -177 111 -310 255 -310c82 0 155 47 200 118l34 -33c-60 -86 -143 -125 -234 -125c-171 0 -305 148 -305 350s134 350 305 350c91 0 174 -41 234 -125l-34 -33c-47 73 -118 118 -200 118c-144 0 -255 -134 -255 -310zM262 856h40l54 -54l54 54h40l-69 -87h-51
z" />
    <glyph glyph-name="ccircumflex" unicode="&#x109;" horiz-adv-x="488" 
d="M99 245c0 -122 75 -215 177 -215c58 0 109 30 138 74l30 -26c-43 -60 -102 -88 -168 -88c-124 0 -222 107 -222 255c0 145 98 255 222 255c66 0 125 -30 168 -89l-30 -24c-30 44 -80 73 -138 73c-102 0 -177 -94 -177 -215zM223 593h-40l68 87h51l69 -87h-40l-54 54z" />
    <glyph glyph-name="cdotaccent" unicode="&#x10b;" horiz-adv-x="488" 
d="M99 245c0 -122 75 -215 177 -215c58 0 109 30 138 74l30 -26c-43 -60 -102 -88 -168 -88c-124 0 -222 107 -222 255c0 145 98 255 222 255c66 0 125 -30 168 -89l-30 -24c-30 44 -80 73 -138 73c-102 0 -177 -94 -177 -215zM274 650c22 0 42 -15 42 -35
c0 -21 -20 -38 -42 -38c-24 0 -41 17 -41 38c0 20 17 35 41 35z" />
    <glyph glyph-name="ccaron" unicode="&#x10d;" horiz-adv-x="488" 
d="M99 245c0 -122 75 -215 177 -215c58 0 109 30 138 74l30 -26c-43 -60 -102 -88 -168 -88c-124 0 -222 107 -222 255c0 145 98 255 222 255c66 0 125 -30 168 -89l-30 -24c-30 44 -80 73 -138 73c-102 0 -177 -94 -177 -215zM178 680h40l54 -54l54 54h40l-69 -87h-51z" />
    <glyph glyph-name="Dcaron" unicode="&#x10e;" horiz-adv-x="634" 
d="M104 680h152c202 0 324 -126 324 -341s-122 -339 -324 -339h-152v680zM149 640v-600h107c158 0 274 86 274 299c0 212 -116 301 -274 301h-107zM213 856h40l54 -54l54 54h40l-69 -87h-51z" />
    <glyph glyph-name="Emacron" unicode="&#x112;" horiz-adv-x="522" 
d="M458 640h-309v-250h282v-40h-282v-311h309v-39h-354v680h354v-40zM388 826h-214v30h214v-30z" />
    <glyph glyph-name="emacron" unicode="&#x113;" horiz-adv-x="521" 
d="M282 -10c-157 0 -228 125 -228 255c0 169 97 255 217 255c126 0 206 -89 206 -233v-24h-373c0 -125 68 -213 178 -213c56 0 109 21 145 74l34 -26c-43 -59 -98 -88 -179 -88zM271 460c-81 0 -164 -67 -167 -176h323c0 118 -78 176 -156 176zM374 650h-214v30h214v-30z
" />
    <glyph glyph-name="Ebreve" unicode="&#x114;" horiz-adv-x="522" 
d="M458 640h-309v-250h282v-40h-282v-311h309v-39h-354v680h354v-40zM199 856c6 -40 45 -62 81 -62c37 0 78 21 84 62h35c-12 -61 -63 -92 -119 -92c-55 0 -104 32 -116 92h35z" />
    <glyph glyph-name="Edotaccent" unicode="&#x116;" horiz-adv-x="522" 
d="M458 640h-309v-250h282v-40h-282v-311h309v-39h-354v680h354v-40zM279 860c22 0 42 -15 42 -35c0 -21 -20 -38 -42 -38c-24 0 -41 17 -41 38c0 20 17 35 41 35z" />
    <glyph glyph-name="Eogonek" unicode="&#x118;" horiz-adv-x="522" 
d="M458 640h-309v-250h282v-40h-282v-311h309v-39c-35 -24 -60 -65 -60 -110c0 -47 29 -81 75 -95l-11 -26c-59 17 -99 62 -99 124c0 41 21 82 49 107h-308v680h354v-40z" />
    <glyph glyph-name="Ecaron" unicode="&#x11a;" horiz-adv-x="522" 
d="M458 640h-309v-250h282v-40h-282v-311h309v-39h-354v680h354v-40zM189 856h40l54 -54l54 54h40l-69 -87h-51z" />
    <glyph glyph-name="ebreve" unicode="&#x115;" horiz-adv-x="521" 
d="M282 -10c-157 0 -228 125 -228 255c0 169 97 255 217 255c126 0 206 -89 206 -233v-24h-373c0 -125 68 -213 178 -213c56 0 109 21 145 74l34 -26c-43 -59 -98 -88 -179 -88zM271 460c-81 0 -164 -67 -167 -176h323c0 118 -78 176 -156 176zM182 680c6 -40 45 -62 81 -62
c37 0 78 21 84 62h35c-12 -61 -63 -92 -119 -92c-55 0 -104 32 -116 92h35z" />
    <glyph glyph-name="edotaccent" unicode="&#x117;" horiz-adv-x="521" 
d="M282 -10c-157 0 -228 125 -228 255c0 169 97 255 217 255c126 0 206 -89 206 -233v-24h-373c0 -125 68 -213 178 -213c56 0 109 21 145 74l34 -26c-43 -59 -98 -88 -179 -88zM271 460c-81 0 -164 -67 -167 -176h323c0 118 -78 176 -156 176zM260 650c22 0 42 -15 42 -35
c0 -21 -20 -38 -42 -38c-24 0 -41 17 -41 38c0 20 17 35 41 35z" />
    <glyph glyph-name="eogonek" unicode="&#x119;" horiz-adv-x="521" 
d="M461 78c-35 -47 -77 -75 -134 -84c-30 -24 -51 -62 -51 -104c0 -47 29 -81 75 -95l-11 -26c-59 17 -99 62 -99 124c0 36 16 72 39 97c-156 1 -226 125 -226 255c0 169 97 255 217 255c126 0 206 -89 206 -233v-24h-373c0 -125 68 -213 178 -213c56 0 109 21 145 74z
M271 460c-81 0 -164 -67 -167 -176h323c0 118 -78 176 -156 176z" />
    <glyph glyph-name="ecaron" unicode="&#x11b;" horiz-adv-x="521" 
d="M282 -10c-157 0 -228 125 -228 255c0 169 97 255 217 255c126 0 206 -89 206 -233v-24h-373c0 -125 68 -213 178 -213c56 0 109 21 145 74l34 -26c-43 -59 -98 -88 -179 -88zM271 460c-81 0 -164 -67 -167 -176h323c0 118 -78 176 -156 176zM171 680h40l54 -54l54 54h40
l-69 -87h-51z" />
    <glyph glyph-name="Gcircumflex" unicode="&#x11c;" horiz-adv-x="669" 
d="M361 650c-134 0 -257 -116 -257 -307c0 -197 128 -313 274 -313c55 0 140 21 201 53c0 79 1 140 1 220h-198v40h243l-1 -281c-65 -47 -173 -72 -247 -72c-184 0 -323 128 -323 353c0 213 152 347 309 347c94 0 180 -41 240 -125l-36 -32c-47 73 -119 117 -206 117z
M310 769h-40l68 87h51l69 -87h-40l-54 54z" />
    <glyph glyph-name="gcircumflex" unicode="&#x11d;" horiz-adv-x="503" 
d="M135 16c-30 13 -50 44 -50 77c0 31 20 71 50 86c-46 36 -72 86 -72 141c0 92 67 181 178 181c57 0 93 -14 123 -44c12 48 52 89 96 89c15 0 28 -3 41 -11l-15 -47c-10 3 -19 10 -32 10c-29 0 -46 -16 -70 -64c24 -32 36 -73 36 -114c0 -108 -81 -176 -179 -176
c-24 0 -46 2 -79 16c-21 -26 -27 -40 -27 -67c0 -26 32 -42 126 -49c134 -10 221 -27 221 -135c0 -78 -78 -149 -229 -149c-126 0 -199 54 -199 133c0 64 34 101 81 123zM113 322c0 -77 55 -138 129 -138c73 0 128 61 128 138c0 76 -55 139 -128 139
c-74 0 -129 -63 -129 -139zM432 -99c0 116 -189 90 -261 114c-29 -24 -68 -59 -68 -106c0 -57 43 -109 150 -109c128 0 179 58 179 101zM183 593h-40l68 87h51l69 -87h-40l-54 54z" />
    <glyph glyph-name="Gbreve" unicode="&#x11e;" horiz-adv-x="669" 
d="M361 650c-134 0 -257 -116 -257 -307c0 -197 128 -313 274 -313c55 0 140 21 201 53c0 79 1 140 1 220h-198v40h243l-1 -281c-65 -47 -173 -72 -247 -72c-184 0 -323 128 -323 353c0 213 152 347 309 347c94 0 180 -41 240 -125l-36 -32c-47 73 -119 117 -206 117z
M283 856c6 -40 45 -62 81 -62c37 0 78 21 84 62h35c-12 -61 -63 -92 -119 -92c-55 0 -104 32 -116 92h35z" />
    <glyph glyph-name="Gdotaccent" unicode="&#x120;" horiz-adv-x="669" 
d="M361 650c-134 0 -257 -116 -257 -307c0 -197 128 -313 274 -313c55 0 140 21 201 53c0 79 1 140 1 220h-198v40h243l-1 -281c-65 -47 -173 -72 -247 -72c-184 0 -323 128 -323 353c0 213 152 347 309 347c94 0 180 -41 240 -125l-36 -32c-47 73 -119 117 -206 117z
M360 860c22 0 42 -15 42 -35c0 -21 -20 -38 -42 -38c-24 0 -41 17 -41 38c0 20 17 35 41 35z" />
    <glyph glyph-name="gbreve" unicode="&#x11f;" horiz-adv-x="503" 
d="M135 16c-30 13 -50 44 -50 77c0 31 20 71 50 86c-46 36 -72 86 -72 141c0 92 67 181 178 181c57 0 93 -14 123 -44c12 48 52 89 96 89c15 0 28 -3 41 -11l-15 -47c-10 3 -19 10 -32 10c-29 0 -46 -16 -70 -64c24 -32 36 -73 36 -114c0 -108 -81 -176 -179 -176
c-24 0 -46 2 -79 16c-21 -26 -27 -40 -27 -67c0 -26 32 -42 126 -49c134 -10 221 -27 221 -135c0 -78 -78 -149 -229 -149c-126 0 -199 54 -199 133c0 64 34 101 81 123zM113 322c0 -77 55 -138 129 -138c73 0 128 61 128 138c0 76 -55 139 -128 139
c-74 0 -129 -63 -129 -139zM432 -99c0 116 -189 90 -261 114c-29 -24 -68 -59 -68 -106c0 -57 43 -109 150 -109c128 0 179 58 179 101zM181 680c6 -40 45 -62 81 -62c37 0 78 21 84 62h35c-12 -61 -63 -92 -119 -92c-55 0 -104 32 -116 92h35z" />
    <glyph glyph-name="gdotaccent" unicode="&#x121;" horiz-adv-x="503" 
d="M135 16c-30 13 -50 44 -50 77c0 31 20 71 50 86c-46 36 -72 86 -72 141c0 92 67 181 178 181c57 0 93 -14 123 -44c12 48 52 89 96 89c15 0 28 -3 41 -11l-15 -47c-10 3 -19 10 -32 10c-29 0 -46 -16 -70 -64c24 -32 36 -73 36 -114c0 -108 -81 -176 -179 -176
c-24 0 -46 2 -79 16c-21 -26 -27 -40 -27 -67c0 -26 32 -42 126 -49c134 -10 221 -27 221 -135c0 -78 -78 -149 -229 -149c-126 0 -199 54 -199 133c0 64 34 101 81 123zM113 322c0 -77 55 -138 129 -138c73 0 128 61 128 138c0 76 -55 139 -128 139
c-74 0 -129 -63 -129 -139zM432 -99c0 116 -189 90 -261 114c-29 -24 -68 -59 -68 -106c0 -57 43 -109 150 -109c128 0 179 58 179 101zM250 691c22 0 42 -15 42 -35c0 -21 -20 -38 -42 -38c-24 0 -41 17 -41 38c0 20 17 35 41 35z" />
    <glyph glyph-name="Hcircumflex" unicode="&#x124;" horiz-adv-x="666" 
d="M562 0h-43v350h-370v-350h-45v680h45v-290h370v290h43v-680zM280 769h-40l68 87h51l69 -87h-40l-54 54z" />
    <glyph glyph-name="hcircumflex" unicode="&#x125;" horiz-adv-x="531" 
d="M129 680v-311c23 63 101 131 182 131c73 0 146 -55 146 -150v-350h-45v336c0 83 -43 124 -96 124c-83 0 -187 -94 -187 -217v-243h-45v680h45zM215 769h-40l68 87h51l69 -87h-40l-54 54z" />
    <glyph glyph-name="Itilde" unicode="&#x128;" horiz-adv-x="253" 
d="M149 0h-45v680h45v-680zM237 856h35c-5 -30 -20 -71 -87 -74c-68 3 -83 53 -120 53c-28 0 -44 -17 -49 -44h-35c6 33 23 74 84 74c59 0 73 -53 120 -53c30 0 47 13 52 44z" />
    <glyph glyph-name="Imacron" unicode="&#x12a;" horiz-adv-x="253" 
d="M149 0h-45v680h45v-680zM234 826h-214v30h214v-30z" />
    <glyph glyph-name="Iogonek" unicode="&#x12e;" horiz-adv-x="253" 
d="M149 0c-35 -23 -60 -64 -60 -109c0 -47 29 -81 75 -95l-11 -26c-59 17 -99 62 -99 124c0 41 21 83 50 107v679h45v-680z" />
    <glyph glyph-name="Idotaccent" unicode="&#x130;" horiz-adv-x="253" 
d="M149 0h-45v680h45v-680zM126 860c22 0 42 -15 42 -35c0 -21 -20 -38 -42 -38c-24 0 -41 17 -41 38c0 20 17 35 41 35z" />
    <glyph glyph-name="itilde" unicode="&#x129;" horiz-adv-x="213" 
d="M129 0h-45v490h45v-490zM217 680h35c-5 -30 -20 -71 -87 -74c-68 3 -83 53 -120 53c-28 0 -44 -17 -49 -44h-35c6 33 23 74 84 74c59 0 73 -53 120 -53c30 0 47 13 52 44z" />
    <glyph glyph-name="imacron" unicode="&#x12b;" horiz-adv-x="213" 
d="M129 0h-45v490h45v-490zM214 650h-214v30h214v-30z" />
    <glyph glyph-name="iogonek" unicode="&#x12f;" horiz-adv-x="213" 
d="M129 0c-34 -23 -59 -64 -59 -109c0 -47 29 -81 75 -95l-11 -26c-59 17 -99 62 -99 124c0 40 21 82 49 106v490h45v-490zM72 655c0 18 16 35 37 35c18 0 35 -17 35 -35c0 -21 -17 -35 -35 -35c-21 0 -37 14 -37 35z" />
    <glyph glyph-name="Jcircumflex" unicode="&#x134;" horiz-adv-x="537" 
d="M155 640v40h288v-487c0 -133 -77 -203 -198 -203s-201 72 -201 194h45c0 -102 74 -154 154 -154c79 0 155 51 155 155v455h-243zM242 769h-40l68 87h51l69 -87h-40l-54 54z" />
    <glyph glyph-name="jcircumflex" unicode="&#x135;" horiz-adv-x="248" 
d="M164 490v-488c0 -112 -53 -242 -198 -242c-24 0 -44 3 -62 11l19 38c13 -6 27 -9 44 -9c137 0 152 160 152 202v488h45zM88 593h-40l68 87h51l69 -87h-40l-54 54z" />
    <glyph glyph-name="Hbar" unicode="&#x126;" horiz-adv-x="666" 
d="M562 0h-43v350h-370v-350h-45v530h-48v40h48v110h45v-110h370v110h43v-110h50v-40h-50v-530zM149 390h370v140h-370v-140z" />
    <glyph glyph-name="hbar" unicode="&#x127;" horiz-adv-x="521" 
d="M119 680v-110h138v-40h-138v-161c23 63 101 131 182 131c73 0 146 -55 146 -150v-350h-45v336c0 83 -43 124 -96 124c-83 0 -187 -94 -187 -217v-243h-45v530h-51v40h51v110h45z" />
    <glyph glyph-name="dcroat" unicode="&#x111;" horiz-adv-x="557" 
d="M428 404v127h-127v40h127v109h45v-109h50v-40h-50v-531h-40l-5 80c-26 -44 -85 -90 -155 -90c-126 0 -219 112 -219 251c0 144 91 259 216 259c65 0 127 -43 158 -96zM268 460c-93 0 -164 -92 -164 -215c0 -126 71 -215 164 -215c92 0 161 89 161 215
c0 123 -69 215 -161 215z" />
    <glyph glyph-name="Dcroat" unicode="&#x110;" horiz-adv-x="634" 
d="M104 680h152c202 0 324 -126 324 -341s-122 -339 -324 -339h-152v351h-50v40h50v289zM149 640v-249h166v-40h-166v-311h107c158 0 274 86 274 299c0 212 -116 301 -274 301h-107z" />
    <glyph glyph-name="Eth" unicode="&#xd0;" horiz-adv-x="634" 
d="M104 680h152c202 0 324 -126 324 -341s-122 -339 -324 -339h-152v351h-50v40h50v289zM149 640v-249h166v-40h-166v-311h107c158 0 274 86 274 299c0 212 -116 301 -274 301h-107z" />
    <glyph glyph-name="ae" unicode="&#xe6;" horiz-adv-x="823" 
d="M232 500c95 0 148 -46 169 -92c44 53 85 92 181 92c140 0 209 -104 209 -231c0 -9 0 -17 -1 -26h-374c0 -132 78 -213 177 -213c57 0 118 27 146 77l33 -29c-39 -59 -98 -88 -179 -88c-104 0 -161 54 -193 114c-54 -74 -127 -115 -201 -115c-95 0 -155 73 -155 136
c0 115 132 159 325 159c0 88 -13 176 -137 176c-47 0 -106 -24 -138 -46l-33 31c36 34 111 55 171 55zM368 196v48c-109 -1 -277 -5 -277 -112c0 -68 53 -105 108 -105c74 0 149 73 159 94c8 18 10 60 10 75zM582 460c-78 0 -158 -62 -163 -176h322c0 114 -79 176 -159 176z
" />
    <glyph glyph-name="IJ" unicode="&#x132;" horiz-adv-x="755" 
d="M149 0h-45v680h45v-680zM373 640v40h288v-487c0 -133 -77 -203 -198 -203s-201 72 -201 194h45c0 -102 74 -154 154 -154c79 0 155 51 155 155v455h-243z" />
    <glyph glyph-name="ij" unicode="&#x133;" horiz-adv-x="491" 
d="M129 0h-45v490h45v-490zM72 655c0 18 16 35 37 35c18 0 35 -17 35 -35c0 -21 -17 -35 -35 -35c-21 0 -37 14 -37 35zM406 490v-491c0 -112 -53 -239 -198 -239c-24 0 -44 3 -62 11l19 38c13 -6 27 -9 44 -9c137 0 152 157 152 199v491h45zM348 655c0 18 15 35 36 35
c19 0 35 -17 35 -35c0 -21 -16 -35 -35 -35c-21 0 -36 14 -36 35z" />
    <glyph glyph-name="Lacute" unicode="&#x139;" horiz-adv-x="515" 
d="M150 38h342v-38h-387v680h45v-642zM153 768h-49l68 88h53z" />
    <glyph glyph-name="Ldot" unicode="&#x13f;" horiz-adv-x="514" 
d="M149 38h342v-38h-387v680h45v-642zM281 327c0 23 20 42 42 42s42 -19 42 -42c0 -21 -20 -40 -42 -40s-42 19 -42 40z" />
    <glyph glyph-name="ldot" unicode="&#x140;" horiz-adv-x="359" 
d="M129 680v-680h-45v680h45zM218 327c0 23 20 42 42 42s42 -19 42 -42c0 -21 -20 -40 -42 -40s-42 19 -42 40z" />
    <glyph glyph-name="Lcaron" unicode="&#x13d;" horiz-adv-x="514" 
d="M149 38h342v-38h-387v680h45v-642zM380 548h-30c14 38 23 85 23 132h35c-2 -47 -12 -97 -28 -132z" />
    <glyph glyph-name="lcaron" unicode="&#x13e;" horiz-adv-x="226" 
d="M129 680v-680h-45v680h45zM230 548h-30c14 38 23 85 23 132h35c-2 -47 -12 -97 -28 -132z" />
    <glyph glyph-name="uni0136" unicode="&#x136;" horiz-adv-x="578" 
d="M543 680l-343 -306c106 -114 242 -259 344 -374h-53l-342 370v-370h-45v680h45v-296l338 296h56zM284 -230h-30c14 38 23 85 23 132h35c-2 -47 -12 -97 -28 -132z" />
    <glyph glyph-name="uni0122" unicode="&#x122;" horiz-adv-x="669" 
d="M380 -230h-30c14 38 23 85 23 132h35c-2 -47 -12 -97 -28 -132zM361 650c-134 0 -257 -116 -257 -307c0 -197 128 -313 274 -313c55 0 140 21 201 53c0 79 1 140 1 220h-198v40h243l-1 -281c-65 -47 -173 -72 -247 -72c-184 0 -323 128 -323 353c0 213 152 347 309 347
c94 0 180 -41 240 -125l-36 -32c-47 73 -119 117 -206 117z" />
    <glyph glyph-name="uni0123" unicode="&#x123;" horiz-adv-x="557" 
d="M248 680h30c-14 -38 -23 -85 -23 -132h-35c2 47 12 97 28 132zM135 16c-30 13 -50 44 -50 77c0 31 20 71 50 86c-46 36 -72 86 -72 141c0 92 67 181 178 181c57 0 93 -14 123 -44c12 48 52 89 96 89c15 0 28 -3 41 -11l-15 -47c-10 3 -19 10 -32 10
c-29 0 -46 -16 -70 -64c24 -32 36 -73 36 -114c0 -108 -81 -176 -179 -176c-24 0 -46 2 -79 16c-21 -26 -27 -40 -27 -67c0 -26 32 -42 126 -49c134 -10 221 -27 221 -135c0 -78 -78 -149 -229 -149c-126 0 -199 54 -199 133c0 64 34 101 81 123zM113 322
c0 -77 55 -138 129 -138c73 0 128 61 128 138c0 76 -55 139 -128 139c-74 0 -129 -63 -129 -139zM432 -99c0 116 -189 90 -261 114c-29 -24 -68 -59 -68 -106c0 -57 43 -109 150 -109c128 0 179 58 179 101z" />
    <glyph glyph-name="uni0137" unicode="&#x137;" horiz-adv-x="438" 
d="M222 -230h-30c14 38 23 85 23 132h35c-2 -47 -12 -97 -28 -132zM129 0h-45v680h45v-400c78 68 159 145 236 210h55l-246 -220l250 -270h-55l-240 261v-261z" />
    <glyph glyph-name="kgreenlandic" unicode="&#x138;" horiz-adv-x="438" 
d="M129 0h-45v491h45v-211c78 68 159 145 236 210h55l-246 -220l250 -270h-55l-240 261v-261z" />
    <glyph glyph-name="lacute" unicode="&#x13a;" horiz-adv-x="208" 
d="M129 680v-680h-45v680h45zM135 768h-49l68 88h53z" />
    <glyph glyph-name="uni013B" unicode="&#x13b;" horiz-adv-x="514" 
d="M278 -230h-30c14 38 23 85 23 132h35c-2 -47 -12 -97 -28 -132zM141 38h342v-38h-387v680h45v-642z" />
    <glyph glyph-name="uni013C" unicode="&#x13c;" horiz-adv-x="211" 
d="M127 680v-680h-45v680h45zM94 -230h-30c14 38 23 85 23 132h35c-2 -47 -12 -97 -28 -132z" />
    <glyph glyph-name="eth" unicode="&#xf0;" horiz-adv-x="511" 
d="M208 690c53 0 96 -20 131 -51l38 41h48l-63 -66c68 -82 95 -212 95 -309c0 -121 -35 -315 -208 -315c-141 0 -195 120 -195 220c0 105 51 229 190 229c58 0 120 -33 163 -82c0 29 -24 143 -80 220l-58 -62h-45l82 88c-27 28 -59 47 -98 47c-21 0 -41 0 -73 -21l-33 31
c20 18 62 30 106 30zM246 399c-87 0 -142 -78 -142 -186c0 -126 74 -183 141 -183c71 0 159 61 160 262c-24 55 -103 107 -159 107z" />
    <glyph glyph-name="dcaron" unicode="&#x10f;" horiz-adv-x="569" 
d="M428 404v276h45v-680h-40l-5 80c-26 -44 -85 -90 -155 -90c-126 0 -219 112 -219 251c0 144 91 259 216 259c65 0 127 -43 158 -96zM268 460c-93 0 -164 -92 -164 -215c0 -126 71 -215 164 -215c92 0 161 89 161 215c0 123 -69 215 -161 215zM530 548h-30
c14 38 23 85 23 132h35c-2 -47 -12 -97 -28 -132z" />
    <glyph glyph-name="Nacute" unicode="&#x143;" horiz-adv-x="664" 
d="M560 0h-52l-360 610v-610h-44v680h52l359 -610v610h45v-680zM351 768h-49l68 88h53z" />
    <glyph glyph-name="uni0145" unicode="&#x145;" horiz-adv-x="664" 
d="M323 -230h-30c14 38 23 85 23 132h35c-2 -47 -12 -97 -28 -132zM560 0h-52l-360 610v-610h-44v680h52l359 -610v610h45v-680z" />
    <glyph glyph-name="Ncaron" unicode="&#x147;" horiz-adv-x="664" 
d="M560 0h-52l-360 610v-610h-44v680h52l359 -610v610h45v-680zM239 856h40l54 -54l54 54h40l-69 -87h-51z" />
    <glyph glyph-name="nacute" unicode="&#x144;" horiz-adv-x="531" 
d="M124 490l5 -121c23 63 101 131 182 131c73 0 146 -55 146 -150v-350h-45v336c0 78 -42 124 -96 124c-83 0 -187 -91 -187 -214v-246h-45v490h40zM293 592h-49l68 88h53z" />
    <glyph glyph-name="uni0146" unicode="&#x146;" horiz-adv-x="531" 
d="M124 490l5 -121c23 63 101 131 182 131c73 0 146 -55 146 -150v-350h-45v336c0 78 -42 124 -96 124c-83 0 -187 -91 -187 -214v-246h-45v490h40zM263 -230h-30c14 38 23 85 23 132h35c-2 -47 -12 -97 -28 -132z" />
    <glyph glyph-name="ncaron" unicode="&#x148;" horiz-adv-x="531" 
d="M124 490l5 -121c23 63 101 131 182 131c73 0 146 -55 146 -150v-350h-45v336c0 78 -42 124 -96 124c-83 0 -187 -91 -187 -214v-246h-45v490h40zM176 680h40l54 -54l54 54h40l-69 -87h-51z" />
    <glyph glyph-name="napostrophe" unicode="&#x149;" horiz-adv-x="517" 
d="M110 490l5 -121c23 63 101 131 182 131c73 0 146 -55 146 -150v-350h-45v336c0 78 -42 124 -96 124c-83 0 -187 -91 -187 -214v-246h-45v490h40zM36 548h-30c14 38 23 85 23 132h35c-2 -47 -12 -97 -28 -132z" />
    <glyph glyph-name="Omacron" unicode="&#x14c;" horiz-adv-x="713" 
d="M359 690c167 0 300 -157 300 -350c0 -192 -133 -350 -300 -350c-171 0 -305 158 -305 350c0 193 134 350 305 350zM359 650c-144 0 -255 -135 -255 -310c0 -177 111 -310 255 -310c138 0 250 133 250 310c0 175 -112 310 -250 310zM463 826h-214v30h214v-30z" />
    <glyph glyph-name="Obreve" unicode="&#x14e;" horiz-adv-x="713" 
d="M359 690c167 0 300 -157 300 -350c0 -192 -133 -350 -300 -350c-171 0 -305 158 -305 350c0 193 134 350 305 350zM359 650c-144 0 -255 -135 -255 -310c0 -177 111 -310 255 -310c138 0 250 133 250 310c0 175 -112 310 -250 310zM270 856c6 -40 45 -62 81 -62
c37 0 78 21 84 62h35c-12 -61 -63 -92 -119 -92c-55 0 -104 32 -116 92h35z" />
    <glyph glyph-name="omacron" unicode="&#x14d;" horiz-adv-x="542" 
d="M272 500c113 0 216 -114 216 -255c0 -142 -103 -255 -216 -255c-117 0 -218 113 -218 255c0 141 101 255 218 255zM272 460c-90 0 -168 -94 -168 -215c0 -122 78 -215 168 -215c89 0 166 93 166 215c0 121 -77 215 -166 215zM373 650h-214v30h214v-30z" />
    <glyph glyph-name="obreve" unicode="&#x14f;" horiz-adv-x="542" 
d="M272 500c113 0 216 -114 216 -255c0 -142 -103 -255 -216 -255c-117 0 -218 113 -218 255c0 141 101 255 218 255zM272 460c-90 0 -168 -94 -168 -215c0 -122 78 -215 168 -215c89 0 166 93 166 215c0 121 -77 215 -166 215zM189 679c6 -40 45 -62 81 -62
c37 0 78 21 84 62h35c-12 -61 -63 -92 -119 -92c-55 0 -104 32 -116 92h35z" />
    <glyph glyph-name="Ohungarumlaut" unicode="&#x150;" horiz-adv-x="713" 
d="M359 690c167 0 300 -157 300 -350c0 -192 -133 -350 -300 -350c-171 0 -305 158 -305 350c0 193 134 350 305 350zM359 650c-144 0 -255 -135 -255 -310c0 -177 111 -310 255 -310c138 0 250 133 250 310c0 175 -112 310 -250 310zM300 770h-40l62 86h45zM432 770h-40
l60 86h45z" />
    <glyph glyph-name="ohungarumlaut" unicode="&#x151;" horiz-adv-x="542" 
d="M272 500c113 0 216 -114 216 -255c0 -142 -103 -255 -216 -255c-117 0 -218 113 -218 255c0 141 101 255 218 255zM272 460c-90 0 -168 -94 -168 -215c0 -122 78 -215 168 -215c89 0 166 93 166 215c0 121 -77 215 -166 215zM222 594h-40l62 86h45zM354 594h-40l60 86h45
z" />
    <glyph glyph-name="oe" unicode="&#x153;" horiz-adv-x="894" 
d="M272 500c77 0 150 -54 188 -133c35 88 109 133 196 133c126 0 206 -89 206 -233v-24h-373c0 -125 68 -213 178 -213c56 0 109 21 145 74l34 -26c-43 -59 -98 -88 -179 -88c-107 0 -174 57 -206 135c-37 -81 -111 -135 -189 -135c-117 0 -218 113 -218 255
c0 141 101 255 218 255zM272 460c-90 0 -168 -94 -168 -215c0 -122 78 -215 168 -215c89 0 166 93 166 215c0 121 -77 215 -166 215zM656 460c-81 0 -164 -67 -167 -176h323c0 118 -78 176 -156 176z" />
    <glyph glyph-name="OE" unicode="&#x152;" horiz-adv-x="832" 
d="M768 639h-310v-249h283v-40h-283v-310h310v-40h-349c-19 -5 -38 -10 -60 -10c-171 0 -305 160 -305 352c0 193 134 348 305 348c15 0 37 -5 56 -10h353v-41zM359 650c-145 0 -255 -133 -255 -308c0 -177 110 -312 255 -312c20 0 39 2 54 6v605c-15 5 -33 9 -54 9z" />
    <glyph glyph-name="Racute" unicode="&#x154;" horiz-adv-x="547" 
d="M104 680h174c129 0 201 -94 201 -183c0 -69 -42 -133 -120 -159l154 -338h-50l-147 328c-12 -1 -25 -2 -38 -2h-129v-326h-45v680zM149 640v-274h129c110 0 151 69 151 131s-41 143 -151 143h-129zM307 768h-49l68 88h53z" />
    <glyph glyph-name="uni0156" unicode="&#x156;" horiz-adv-x="547" 
d="M104 680h174c129 0 201 -94 201 -183c0 -69 -42 -133 -120 -159l154 -338h-50l-147 328c-12 -1 -25 -2 -38 -2h-129v-326h-45v680zM149 640v-274h129c110 0 151 69 151 131s-41 143 -151 143h-129zM270 -230h-30c14 38 23 85 23 132h35c-2 -47 -12 -97 -28 -132z" />
    <glyph glyph-name="Rcaron" unicode="&#x158;" horiz-adv-x="547" 
d="M104 680h174c129 0 201 -94 201 -183c0 -69 -42 -133 -120 -159l154 -338h-50l-147 328c-12 -1 -25 -2 -38 -2h-129v-326h-45v680zM149 640v-274h129c110 0 151 69 151 131s-41 143 -151 143h-129zM164 856h40l54 -54l54 54h40l-69 -87h-51z" />
    <glyph glyph-name="racute" unicode="&#x155;" horiz-adv-x="369" 
d="M124 490l5 -125c6 38 77 135 171 135c18 0 44 -5 61 -16l-18 -42c-13 6 -30 14 -49 14c-90 0 -166 -113 -166 -217l1 -239h-45v490h40zM236 592h-49l68 88h53z" />
    <glyph glyph-name="uni0157" unicode="&#x157;" horiz-adv-x="369" 
d="M124 490l5 -125c6 38 77 135 171 135c18 0 44 -5 61 -16l-18 -42c-13 6 -30 14 -49 14c-90 0 -166 -113 -166 -217l1 -239h-45v490h40zM97 -230h-30c14 38 23 85 23 132h35c-2 -47 -12 -97 -28 -132z" />
    <glyph glyph-name="rcaron" unicode="&#x159;" horiz-adv-x="369" 
d="M124 490l5 -125c6 38 77 135 171 135c18 0 44 -5 61 -16l-18 -42c-13 6 -30 14 -49 14c-90 0 -166 -113 -166 -217l1 -239h-45v490h40zM129 680h40l54 -54l54 54h40l-69 -87h-51z" />
    <glyph glyph-name="Sacute" unicode="&#x15a;" horiz-adv-x="536" 
d="M54 38l25 42c52 -31 113 -50 172 -50c96 0 181 72 181 149c0 59 -24 102 -174 156c-127 46 -204 80 -204 177c0 95 71 178 217 178c81 0 129 -22 165 -39l-19 -40c-35 23 -88 39 -146 39c-101 0 -167 -57 -167 -138c0 -172 378 -102 378 -333c0 -97 -95 -189 -231 -189
c-95 0 -165 28 -197 48zM285 768h-49l68 88h53z" />
    <glyph glyph-name="sacute" unicode="&#x15b;" horiz-adv-x="386" 
d="M179 30c52 0 123 27 123 98c0 116 -268 91 -268 243c0 68 54 129 158 129c54 0 101 -19 136 -52l-28 -31c-27 26 -63 43 -108 43c-66 0 -108 -34 -108 -89c0 -116 268 -95 268 -248c0 -70 -74 -133 -173 -133c-55 0 -99 17 -135 52l30 29c25 -25 63 -41 105 -41zM214 592
h-49l68 88h53z" />
    <glyph glyph-name="Scircumflex" unicode="&#x15c;" horiz-adv-x="536" 
d="M54 38l25 42c52 -31 113 -50 172 -50c96 0 181 72 181 149c0 59 -24 102 -174 156c-127 46 -204 80 -204 177c0 95 71 178 217 178c81 0 129 -22 165 -39l-19 -40c-35 23 -88 39 -146 39c-101 0 -167 -57 -167 -138c0 -172 378 -102 378 -333c0 -97 -95 -189 -231 -189
c-95 0 -165 28 -197 48zM215 769h-40l68 87h51l69 -87h-40l-54 54z" />
    <glyph glyph-name="scircumflex" unicode="&#x15d;" horiz-adv-x="386" 
d="M179 30c52 0 123 27 123 98c0 116 -268 91 -268 243c0 68 54 129 158 129c54 0 101 -19 136 -52l-28 -31c-27 26 -63 43 -108 43c-66 0 -108 -34 -108 -89c0 -116 268 -95 268 -248c0 -70 -74 -133 -173 -133c-55 0 -99 17 -135 52l30 29c25 -25 63 -41 105 -41zM138 593
h-40l68 87h51l69 -87h-40l-54 54z" />
    <glyph glyph-name="Scaron" unicode="&#x160;" horiz-adv-x="536" 
d="M54 38l25 42c52 -31 113 -50 172 -50c96 0 181 72 181 149c0 59 -24 102 -174 156c-127 46 -204 80 -204 177c0 95 71 178 217 178c81 0 129 -22 165 -39l-19 -40c-35 23 -88 39 -146 39c-101 0 -167 -57 -167 -138c0 -172 378 -102 378 -333c0 -97 -95 -189 -231 -189
c-95 0 -165 28 -197 48zM174 856h40l54 -54l54 54h40l-69 -87h-51z" />
    <glyph glyph-name="scaron" unicode="&#x161;" horiz-adv-x="386" 
d="M179 30c52 0 123 27 123 98c0 116 -268 91 -268 243c0 68 54 129 158 129c54 0 101 -19 136 -52l-28 -31c-27 26 -63 43 -108 43c-66 0 -108 -34 -108 -89c0 -116 268 -95 268 -248c0 -70 -74 -133 -173 -133c-55 0 -99 17 -135 52l30 29c25 -25 63 -41 105 -41zM99 680
h40l54 -54l54 54h40l-69 -87h-51z" />
    <glyph glyph-name="tilde.case" horiz-adv-x="339" 
d="M280 856h35c-5 -30 -20 -71 -87 -74c-68 3 -83 53 -120 53c-28 0 -44 -17 -49 -44h-35c6 33 23 74 84 74c59 0 73 -53 120 -53c30 0 47 13 52 44z" />
    <glyph glyph-name="ring.case" horiz-adv-x="198" 
d="M24 787c0 40 33 73 75 73s75 -33 75 -73c0 -41 -33 -74 -75 -74s-75 33 -75 74zM59 787c0 -25 17 -44 40 -44c22 0 40 19 40 44c0 23 -18 43 -40 43c-23 0 -40 -20 -40 -43z" />
    <glyph glyph-name="dotaccent.case" horiz-adv-x="131" 
d="M65 860c22 0 42 -15 42 -35c0 -21 -20 -38 -42 -38c-24 0 -41 17 -41 38c0 20 17 35 41 35z" />
    <glyph glyph-name="breve.case" horiz-adv-x="283" 
d="M59 856c6 -40 45 -62 81 -62c37 0 78 21 84 62h35c-12 -61 -63 -92 -119 -92c-55 0 -104 32 -116 92h35z" />
    <glyph glyph-name="caron.case" horiz-adv-x="236" 
d="M24 856h40l54 -54l54 54h40l-69 -87h-51z" />
    <glyph glyph-name="circumflex.case" horiz-adv-x="236" 
d="M64 769h-40l68 87h51l69 -87h-40l-54 54z" />
    <glyph glyph-name="acute.case" horiz-adv-x="169" 
d="M74 769h-50l68 87h53z" />
    <glyph glyph-name="macron.case" horiz-adv-x="265" 
d="M241 824h-217v32h217v-32z" />
    <glyph glyph-name="dieresis.case" horiz-adv-x="282" 
d="M24 828c0 18 14 32 32 32s32 -14 32 -32s-14 -32 -32 -32s-32 14 -32 32zM194 828c0 18 14 32 32 32s32 -14 32 -32s-14 -32 -32 -32s-32 14 -32 32z" />
    <glyph glyph-name="grave.case" horiz-adv-x="169" 
d="M145 769h-49l-72 87h53z" />
    <glyph glyph-name="commaaccent" unicode="&#xf6c3;" horiz-adv-x="106" 
d="M54 -230h-30c14 38 23 85 23 132h35c-2 -47 -12 -97 -28 -132z" />
    <glyph glyph-name="hungarumlaut.case" horiz-adv-x="285" 
d="M64 770h-40l62 86h45zM196 770h-40l60 86h45z" />
    <glyph glyph-name="caron.salt" horiz-adv-x="106" 
d="M54 548h-30c14 38 23 85 23 132h35c-2 -47 -12 -97 -28 -132z" />
    <glyph glyph-name="space" unicode=" " horiz-adv-x="250" 
 />
    <glyph glyph-name="partialdiff" unicode="&#x2202;" horiz-adv-x="511" 
d="M208 690c183 0 249 -233 249 -385c0 -121 -35 -315 -208 -315c-141 0 -195 120 -195 220c0 105 51 229 190 229c58 0 120 -33 163 -82c0 45 -57 293 -199 293c-21 0 -41 0 -73 -21l-33 31c20 18 62 30 106 30zM246 399c-87 0 -142 -78 -142 -186c0 -126 74 -183 141 -183
c71 0 159 61 160 262c-24 55 -103 107 -159 107z" />
    <glyph glyph-name="Uring" unicode="&#x16e;" horiz-adv-x="689" 
d="M595 680v-381c0 -204 -95 -309 -256 -309c-160 0 -245 109 -245 309v381h45v-381c0 -266 169 -272 200 -272c36 0 211 5 211 272v381h45zM269 787c0 40 33 73 75 73s75 -33 75 -73c0 -41 -33 -74 -75 -74s-75 33 -75 74zM304 787c0 -25 17 -44 40 -44c22 0 40 19 40 44
c0 23 -18 43 -40 43c-23 0 -40 -20 -40 -43z" />
    <glyph glyph-name="Uhungarumlaut" unicode="&#x170;" horiz-adv-x="689" 
d="M595 680v-381c0 -204 -95 -309 -256 -309c-160 0 -245 109 -245 309v381h45v-381c0 -266 169 -272 200 -272c36 0 211 5 211 272v381h45zM292 770h-40l62 86h45zM424 770h-40l60 86h45z" />
    <glyph glyph-name="uhungarumlaut" unicode="&#x171;" horiz-adv-x="531" 
d="M407 0l-5 121c-23 -63 -101 -131 -182 -131c-73 0 -146 55 -146 150v350h45v-336c0 -78 42 -124 96 -124c83 0 187 91 187 214v246h45v-490h-40zM207 594h-40l62 86h45zM339 594h-40l60 86h45z" />
    <glyph glyph-name="uring" unicode="&#x16f;" horiz-adv-x="531" 
d="M407 0l-5 121c-23 -63 -101 -131 -182 -131c-73 0 -146 55 -146 150v350h45v-336c0 -78 42 -124 96 -124c83 0 187 91 187 214v246h45v-490h-40zM186 617c0 40 33 73 75 73s75 -33 75 -73c0 -41 -33 -74 -75 -74s-75 33 -75 74zM221 617c0 -25 17 -44 40 -44
c22 0 40 19 40 44c0 23 -18 43 -40 43c-23 0 -40 -20 -40 -43z" />
    <glyph glyph-name="Zcaron" unicode="&#x17d;" 
d="M530 640l-426 -600h426v-40h-476v40l426 600h-426v40h476v-40zM201 856h40l54 -54l54 54h40l-69 -87h-51z" />
    <glyph glyph-name="zcaron" unicode="&#x17e;" horiz-adv-x="429" 
d="M385 450l-291 -412h291v-38h-341v38l291 412h-291v40h341v-40zM118 680h40l54 -54l54 54h40l-69 -87h-51z" />
    <glyph glyph-name="lslash" unicode="&#x142;" horiz-adv-x="213" 
d="M129 680v-235l95 50v-45l-95 -50v-400h-45v376l-87 -46v45l87 46v259h45z" />
    <glyph glyph-name="Lslash" unicode="&#x141;" horiz-adv-x="502" 
d="M147 38h342v-38h-387v310l-78 -42v45l78 42v325h45v-301l207 112v-45l-207 -112v-296z" />
    <glyph glyph-name="thorn" unicode="&#xfe;" horiz-adv-x="557" 
d="M129 84v-316h-45v912h45v-272c34 56 100 92 157 92c128 0 217 -114 217 -253c0 -144 -89 -257 -216 -257c-63 0 -129 42 -158 94zM291 30c91 0 162 92 162 215s-71 215 -162 215c-93 0 -163 -92 -163 -215s70 -215 163 -215z" />
    <glyph glyph-name="divide" unicode="&#xf7;" horiz-adv-x="691" 
d="M345 140c22 0 43 -19 43 -43c0 -21 -21 -40 -43 -40c-26 0 -46 19 -46 40c0 24 20 43 46 43zM345 521c22 0 43 -19 43 -43c0 -21 -21 -40 -43 -40c-26 0 -46 19 -46 40c0 24 20 43 46 43zM637 309v-40h-583v40h583z" />
    <glyph glyph-name="multiply" unicode="&#xd7;" horiz-adv-x="552" 
d="M469 516l29 -28l-192 -192l190 -193l-27 -29l-195 191l-188 -191l-30 29l190 193l-192 192l32 28l188 -191z" />
    <glyph glyph-name="daggerdbl" unicode="&#x2021;" horiz-adv-x="649" 
d="M347 -75h-45v266h-238v40h238v212h-238v40h238v268h45v-268h238v-40h-238v-212h238v-40h-238v-266z" />
    <glyph glyph-name="dagger" unicode="&#x2020;" horiz-adv-x="649" 
d="M347 -75h-45v518h-238v40h238v268h45v-268h238v-40h-238v-518z" />
    <glyph glyph-name="florin" unicode="&#x192;" horiz-adv-x="394" 
d="M175 450h-75v40h75v45c0 71 37 155 130 155c42 0 70 -11 87 -22l-18 -37c-20 13 -42 19 -64 19c-50 0 -90 -44 -90 -117v-43h153v-40h-153v-466c0 -72 -37 -153 -126 -153c-43 0 -71 13 -90 25l18 37c18 -13 37 -22 71 -22c56 0 82 70 82 115v464z" />
    <glyph glyph-name="quoteright" unicode="&#x2019;" horiz-adv-x="215" 
d="M106 500h-32c18 42 27 136 27 180h40c-3 -77 -16 -137 -35 -180z" />
    <glyph glyph-name="quotedblleft" unicode="&#x201c;" horiz-adv-x="298" 
d="M192 680h32c-16 -40 -27 -136 -27 -180h-40c3 79 15 136 35 180zM109 680h32c-16 -40 -27 -136 -27 -180h-40c2 79 15 136 35 180z" />
    <glyph glyph-name="quotedblright" unicode="&#x201d;" horiz-adv-x="298" 
d="M106 500h-32c18 42 27 136 27 180h40c-3 -77 -16 -137 -35 -180zM189 500h-32c16 42 27 136 27 180h40c0 -77 -15 -137 -35 -180z" />
    <glyph glyph-name="quoteleft" unicode="&#x2018;" horiz-adv-x="215" 
d="M109 680h32c-16 -40 -27 -136 -27 -180h-40c2 79 15 136 35 180z" />
    <glyph glyph-name="quotedblbase" unicode="&#x201e;" horiz-adv-x="298" 
d="M106 -106h-32c18 39 27 134 27 178h40c-3 -77 -16 -135 -35 -178zM189 -106h-32c16 39 27 134 27 178h40c0 -77 -15 -135 -35 -178z" />
    <glyph glyph-name="quotesinglbase" unicode="&#x201a;" horiz-adv-x="215" 
d="M106 -108h-32c18 39 27 136 27 180h40c-3 -80 -16 -137 -35 -180z" />
    <glyph glyph-name="bullet" unicode="&#x2022;" horiz-adv-x="246" 
d="M54 290c0 37 33 68 69 68s69 -31 69 -68c0 -34 -33 -65 -69 -65s-69 31 -69 65z" />
    <glyph glyph-name="Euro" unicode="&#x20ac;" horiz-adv-x="662" 
d="M418 258h-235c17 -109 76 -228 214 -228c76 0 139 45 176 115l35 -28c-54 -87 -126 -127 -211 -127c-154 0 -240 123 -263 268h-70v40h65c-1 13 -1 26 -1 39v14h-64v40h66c17 156 106 299 266 299c83 0 156 -40 211 -124l-33 -30c-36 69 -101 114 -177 114
c-125 0 -198 -123 -215 -259h236v-40h-240v-23c0 -10 0 -20 1 -30h239v-40z" />
    <glyph glyph-name="guilsinglleft" unicode="&#x2039;" horiz-adv-x="256" 
d="M174 85l-107 202l107 188h40l-107 -188l107 -202h-40z" />
    <glyph glyph-name="guilsinglright" unicode="&#x203a;" horiz-adv-x="255" 
d="M188 287l-106 -202h-40l106 202l-106 188h40z" />
    <glyph glyph-name="Ydieresis" unicode="&#x178;" horiz-adv-x="547" 
d="M249 343l-235 337h57l201 -297l204 297h57l-239 -337v-343h-45v343zM155 828c0 18 14 32 32 32s32 -14 32 -32s-14 -32 -32 -32s-32 14 -32 32zM325 828c0 18 14 32 32 32s32 -14 32 -32s-14 -32 -32 -32s-32 14 -32 32z" />
    <glyph glyph-name="trademark" unicode="&#x2122;" horiz-adv-x="801" 
d="M319 649h-115v-344h-35v344h-115v31h265v-31zM561 305h-25l-111 314l-36 -314h-40l44 375h49l108 -320c36 107 71 216 109 320h50l38 -375h-40l-31 314c-33 -93 -74 -203 -115 -314z" />
    <glyph glyph-name="Zdotaccent" unicode="&#x17b;" 
d="M530 640l-426 -600h426v-40h-476v40l426 600h-426v40h476v-40zM291 860c22 0 42 -15 42 -35c0 -21 -20 -38 -42 -38c-24 0 -41 17 -41 38c0 20 17 35 41 35z" />
    <glyph glyph-name="zdotaccent" unicode="&#x17c;" horiz-adv-x="429" 
d="M385 450l-291 -412h291v-38h-341v38l291 412h-291v40h341v-40zM213 690c22 0 42 -15 42 -35c0 -21 -20 -38 -42 -38c-24 0 -41 17 -41 38c0 20 17 35 41 35z" />
    <glyph glyph-name="Uogonek" unicode="&#x172;" horiz-adv-x="689" 
d="M595 680v-381c0 -167 -63 -267 -173 -299c-34 -23 -59 -64 -59 -109c0 -47 29 -81 75 -95l-11 -26c-59 17 -99 62 -99 124c0 36 16 72 39 98c-9 -1 -18 -2 -28 -2c-160 0 -245 109 -245 309v381h45v-381c0 -266 169 -272 200 -272c36 0 211 5 211 272v381h45z" />
    <glyph glyph-name="uogonek" unicode="&#x173;" horiz-adv-x="531" 
d="M447 0c-35 -23 -59 -63 -59 -108c0 -47 29 -81 75 -95l-11 -26c-59 17 -99 62 -99 124c0 43 23 86 54 110l-5 116c-23 -63 -101 -131 -182 -131c-73 0 -146 55 -146 150v350h45v-336c0 -78 42 -124 96 -124c83 0 187 91 187 214v246h45v-490z" />
    <glyph glyph-name="Umacron" unicode="&#x16a;" horiz-adv-x="689" 
d="M595 680v-381c0 -204 -95 -309 -256 -309c-160 0 -245 109 -245 309v381h45v-381c0 -266 169 -272 200 -272c36 0 211 5 211 272v381h45zM452 824h-217v32h217v-32z" />
    <glyph glyph-name="umacron" unicode="&#x16b;" horiz-adv-x="531" 
d="M407 0l-5 121c-23 -63 -101 -131 -182 -131c-73 0 -146 55 -146 150v350h45v-336c0 -78 42 -124 96 -124c83 0 187 91 187 214v246h45v-490h-40zM369 650h-214v30h214v-30z" />
    <glyph glyph-name="Zacute" unicode="&#x179;" 
d="M530 640l-426 -600h426v-40h-476v40l426 600h-426v40h476v-40zM310 769h-50l68 87h53z" />
    <glyph glyph-name="zacute" unicode="&#x17a;" horiz-adv-x="429" 
d="M385 450l-291 -412h291v-38h-341v38l291 412h-291v40h341v-40zM234 592h-49l68 88h53z" />
    <glyph glyph-name="Tcaron" unicode="&#x164;" horiz-adv-x="504" 
d="M490 640h-215v-640h-45v640h-216v40h476v-40zM158 856h40l54 -54l54 54h40l-69 -87h-51z" />
    <glyph glyph-name="tcaron" unicode="&#x165;" horiz-adv-x="347" 
d="M108 144v306h-74v40h74v120h45v-120h157v-40h-157v-305c0 -45 26 -115 84 -115c31 0 53 8 72 22l18 -37c-17 -12 -48 -25 -93 -25c-90 0 -126 82 -126 154zM305 548h-30c14 38 23 85 23 132h35c-2 -47 -12 -97 -28 -132z" />
    <glyph glyph-name="notequal" unicode="&#x2260;" horiz-adv-x="627" 
d="M157 55h-45l84 107h-142v40h174l135 171h-309v40h340l93 117h46l-93 -117h133v-40h-164l-136 -171h300v-40h-331z" />
    <glyph glyph-name="lessequal" unicode="&#x2264;" horiz-adv-x="483" 
d="M429 40v-40h-375v40h375zM97 469l332 -206v-50l-375 234v50l375 234v-50z" />
    <glyph glyph-name="greaterequal" unicode="&#x2265;" horiz-adv-x="483" 
d="M54 0v40h375v-40h-375zM54 263l332 206l-332 212v50l375 -234v-50l-375 -234v50z" />
    <glyph glyph-name="uni0163" unicode="&#x163;" horiz-adv-x="333" 
d="M163 -124l26 122c-57 22 -81 87 -81 146v306h-74v40h74v120h45v-120h157v-40h-157v-305c0 -45 26 -115 84 -115c31 0 53 8 72 22l18 -37c-17 -12 -48 -25 -93 -25c-5 0 -9 0 -13 1l-17 -81c72 0 88 -49 88 -77c0 -39 -30 -73 -90 -73c-46 0 -73 27 -84 41l22 18
c21 -20 35 -29 63 -29c34 0 54 22 54 46c0 23 -18 44 -60 44c-10 0 -21 -1 -34 -4z" />
    <glyph glyph-name="uni0162" unicode="&#x162;" horiz-adv-x="504" 
d="M209 -124l27 124h-6v640h-216v40h476v-40h-215v-640h-6l-19 -90c72 0 88 -49 88 -77c0 -39 -30 -73 -90 -73c-46 0 -73 27 -84 41l22 18c21 -20 35 -29 63 -29c34 0 54 22 54 46c0 23 -18 44 -60 44c-10 0 -21 -1 -34 -4z" />
    <glyph glyph-name="Scedilla" unicode="&#x15e;" horiz-adv-x="536" 
d="M224 -125l25 115c-94 1 -163 28 -195 48l25 42c52 -31 113 -50 172 -50c96 0 181 72 181 149c0 59 -24 102 -174 156c-127 46 -204 80 -204 177c0 95 71 178 217 178c81 0 129 -22 165 -39l-19 -40c-35 23 -88 39 -146 39c-101 0 -167 -57 -167 -138
c0 -172 378 -102 378 -333c0 -90 -81 -175 -200 -187l-17 -83c72 0 88 -49 88 -77c0 -39 -30 -73 -90 -73c-46 0 -73 27 -84 41l22 18c21 -20 35 -29 63 -29c34 0 54 22 54 46c0 23 -18 44 -60 44c-10 0 -21 -1 -34 -4z" />
    <glyph glyph-name="scedilla" unicode="&#x15f;" horiz-adv-x="386" 
d="M152 -124l24 114c-54 1 -97 17 -132 52l30 29c25 -25 63 -41 105 -41c52 0 123 27 123 98c0 116 -268 91 -268 243c0 68 54 129 158 129c54 0 101 -19 136 -52l-28 -31c-27 26 -63 43 -108 43c-66 0 -108 -34 -108 -89c0 -116 268 -95 268 -248c0 -63 -59 -119 -142 -130
l-17 -83c72 0 88 -49 88 -77c0 -39 -30 -73 -90 -73c-46 0 -73 27 -84 41l22 18c21 -20 35 -29 63 -29c34 0 54 22 54 46c0 23 -18 44 -60 44c-10 0 -21 -1 -34 -4z" />
    <glyph glyph-name="uni021A" unicode="&#x21a;" horiz-adv-x="504" 
d="M490 640h-215v-640h-45v640h-216v40h476v-40zM244 -230h-30c14 38 23 85 23 132h35c-2 -47 -12 -97 -28 -132z" />
    <glyph glyph-name="uni021B" unicode="&#x21b;" horiz-adv-x="333" 
d="M108 144v306h-74v40h74v120h45v-120h157v-40h-157v-305c0 -45 26 -115 84 -115c31 0 53 8 72 22l18 -37c-17 -12 -48 -25 -93 -25c-90 0 -126 82 -126 154zM208 -230h-30c14 38 23 85 23 132h35c-2 -47 -12 -97 -28 -132z" />
    <glyph glyph-name="uni0218" unicode="&#x218;" horiz-adv-x="536" 
d="M54 38l25 42c52 -31 113 -50 172 -50c96 0 181 72 181 149c0 59 -24 102 -174 156c-127 46 -204 80 -204 177c0 95 71 178 217 178c81 0 129 -22 165 -39l-19 -40c-35 23 -88 39 -146 39c-101 0 -167 -57 -167 -138c0 -172 378 -102 378 -333c0 -97 -95 -189 -231 -189
c-95 0 -165 28 -197 48zM257 -230h-30c14 38 23 85 23 132h35c-2 -47 -12 -97 -28 -132z" />
    <glyph glyph-name="uni0219" unicode="&#x219;" horiz-adv-x="386" 
d="M179 30c52 0 123 27 123 98c0 116 -268 91 -268 243c0 68 54 129 158 129c54 0 101 -19 136 -52l-28 -31c-27 26 -63 43 -108 43c-66 0 -108 -34 -108 -89c0 -116 268 -95 268 -248c0 -70 -74 -133 -173 -133c-55 0 -99 17 -135 52l30 29c25 -25 63 -41 105 -41z
M183 -230h-30c14 38 23 85 23 132h35c-2 -47 -12 -97 -28 -132z" />
    <glyph glyph-name="Delta" unicode="&#x2206;" horiz-adv-x="712" 
d="M355 672l303 -672h-604zM356 568l-235 -528h469z" />
    <glyph glyph-name="lozenge" unicode="&#x25ca;" horiz-adv-x="597" 
d="M54 339l243 348l246 -348l-246 -349zM491 339l-194 270l-181 -270l181 -270c71 99 123 169 194 270z" />
    <glyph glyph-name="summation" unicode="&#x2211;" horiz-adv-x="544" 
d="M353 356l-244 -316h381v-40h-436v40l249 316l-249 284v40h430v-40h-375z" />
    <glyph glyph-name="radical" unicode="&#x221a;" horiz-adv-x="616" 
d="M322 40l235 640h45l-253 -680h-54l-169 450l-79 -97l-33 28l90 109h55z" />
    <glyph glyph-name="infinity" unicode="&#x221e;" horiz-adv-x="766" 
d="M215 329c82 0 137 -39 167 -96c18 46 78 96 162 96c108 0 168 -74 168 -149c0 -73 -55 -147 -162 -147c-80 0 -138 41 -168 93c-17 -38 -79 -93 -160 -93c-108 0 -168 73 -168 148c0 73 55 148 161 148zM548 73c89 0 119 56 119 107c0 40 -27 109 -119 109
c-93 0 -140 -83 -152 -116c9 -15 61 -100 152 -100zM218 289c-89 0 -119 -61 -119 -108c0 -39 27 -108 119 -108c93 0 139 81 152 113c-9 16 -61 103 -152 103z" />
    <glyph glyph-name="product" unicode="&#x220f;" horiz-adv-x="569" 
d="M515 -109h-45v749h-371v-749h-45v789h461v-789z" />
    <glyph glyph-name="integral" unicode="&#x222b;" horiz-adv-x="416" 
d="M185 -14v549c0 71 37 155 130 155c42 0 70 -11 87 -22l-18 -37c-20 13 -42 19 -64 19c-50 0 -90 -44 -90 -117v-549c0 -72 -37 -153 -126 -153c-43 0 -71 13 -90 25l18 37c18 -13 37 -22 71 -22c56 0 82 70 82 115z" />
    <glyph glyph-name="uni03A9" unicode="&#x3a9;" horiz-adv-x="754" 
d="M378 690c169 0 301 -159 301 -352c0 -126 -57 -232 -144 -298h165v-40h-238v42c100 38 167 155 167 296c0 175 -110 312 -251 312c-143 0 -253 -137 -253 -312c0 -144 67 -258 164 -296v-42h-235v40h162c-87 66 -144 172 -144 298c0 193 135 352 306 352z" />
    <glyph glyph-name="approxequal" unicode="&#x2248;" horiz-adv-x="609" 
d="M420 147c-80 0 -149 46 -233 46c-41 0 -69 -12 -90 -43l-43 18c27 47 87 65 133 65c81 0 153 -46 233 -46c44 0 69 15 93 43l42 -18c-24 -46 -85 -65 -135 -65zM420 354c-80 0 -149 46 -233 46c-41 0 -69 -13 -90 -42l-43 18c27 46 87 64 133 64c81 0 150 -46 233 -46
c44 0 69 15 93 44l42 -18c-24 -46 -85 -66 -135 -66z" />
    <glyph glyph-name="pi" unicode="&#x3c0;" horiz-adv-x="597" 
d="M420 142v309h-252v-451h-45v451h-69v40h489v-40h-78v-305c0 -47 25 -116 78 -116v-40c-85 0 -123 81 -123 152z" />
    <glyph glyph-name="Ibreve" unicode="&#x12c;" horiz-adv-x="253" 
d="M149 0h-45v680h45v-680zM44 856c6 -40 45 -62 81 -62c37 0 78 21 84 62h35c-12 -61 -63 -92 -119 -92c-55 0 -104 32 -116 92h35z" />
    <glyph glyph-name="ibreve" unicode="&#x12d;" horiz-adv-x="213" 
d="M129 0h-45v490h45v-490zM24 679c6 -40 45 -62 81 -62c37 0 78 21 84 62h35c-12 -61 -63 -92 -119 -92c-55 0 -104 32 -116 92h35z" />
    <glyph glyph-name="Utilde" unicode="&#x168;" horiz-adv-x="689" 
d="M595 680v-381c0 -204 -95 -309 -256 -309c-160 0 -245 109 -245 309v381h45v-381c0 -266 169 -272 200 -272c36 0 211 5 211 272v381h45zM455 856h35c-5 -30 -20 -71 -87 -74c-68 3 -83 53 -120 53c-28 0 -44 -17 -49 -44h-35c6 33 23 74 84 74c59 0 73 -53 120 -53
c30 0 47 13 52 44z" />
    <glyph glyph-name="utilde" unicode="&#x169;" horiz-adv-x="531" 
d="M407 0l-5 121c-23 -63 -101 -131 -182 -131c-73 0 -146 55 -146 150v350h45v-336c0 -78 42 -124 96 -124c83 0 187 91 187 214v246h45v-490h-40zM371 680h35c-5 -30 -20 -71 -87 -74c-68 3 -83 53 -120 53c-28 0 -44 -17 -49 -44h-35c6 33 23 74 84 74
c59 0 73 -53 120 -53c30 0 47 13 52 44z" />
    <glyph glyph-name="Ubreve" unicode="&#x16c;" horiz-adv-x="689" 
d="M595 680v-381c0 -204 -95 -309 -256 -309c-160 0 -245 109 -245 309v381h45v-381c0 -266 169 -272 200 -272c36 0 211 5 211 272v381h45zM261 856c6 -40 45 -62 81 -62c37 0 78 21 84 62h35c-12 -61 -63 -92 -119 -92c-55 0 -104 32 -116 92h35z" />
    <glyph glyph-name="ubreve" unicode="&#x16d;" horiz-adv-x="531" 
d="M407 0l-5 121c-23 -63 -101 -131 -182 -131c-73 0 -146 55 -146 150v350h45v-336c0 -78 42 -124 96 -124c83 0 187 91 187 214v246h45v-490h-40zM176 680c6 -40 45 -62 81 -62c37 0 78 21 84 62h35c-12 -61 -63 -92 -119 -92c-55 0 -104 32 -116 92h35z" />
    <glyph glyph-name="Wcircumflex" unicode="&#x174;" horiz-adv-x="870" 
d="M409 680h52l141 -610l164 610h50l-187 -680h-52l-142 610l-142 -610h-52l-187 680h50l164 -610zM382 769h-40l68 87h51l69 -87h-40l-54 54z" />
    <glyph glyph-name="wcircumflex" unicode="&#x175;" horiz-adv-x="648" 
d="M422 0l-96 412l-99 -412h-56l-137 490h45l121 -440l105 440h40l103 -440l121 440h45l-136 -490h-56zM271 593h-40l68 87h51l69 -87h-40l-54 54z" />
    <glyph glyph-name="Ycircumflex" unicode="&#x176;" horiz-adv-x="547" 
d="M249 343l-235 337h57l201 -297l204 297h57l-239 -337v-343h-45v343zM218 769h-40l68 87h51l69 -87h-40l-54 54z" />
    <glyph glyph-name="ycircumflex" unicode="&#x177;" horiz-adv-x="480" 
d="M85 -240c-23 0 -36 1 -54 7l17 38c11 -4 23 -5 33 -5c36 0 66 21 81 59l49 131l-182 500h50l156 -440l166 440h50l-244 -625c-30 -76 -74 -105 -122 -105zM181 592h-40l68 87h51l69 -87h-40l-54 54z" />
    <glyph glyph-name="longs" unicode="&#x17f;" horiz-adv-x="328" 
d="M108 450h-74v40h74v45c0 71 38 155 128 155c43 0 71 -11 90 -22l-20 -37c-18 13 -42 19 -65 19c-50 0 -88 -44 -88 -117v-533h-45v450z" />
    <glyph glyph-name="Tbar" unicode="&#x166;" horiz-adv-x="504" 
d="M490 640h-215v-249h86v-40h-86v-351h-45v351h-85v40h85v249h-216v40h476v-40z" />
    <glyph glyph-name="tbar" unicode="&#x167;" horiz-adv-x="341" 
d="M108 144v168h-71v40h71v98h-74v40h74v120h45v-120h157v-40h-157v-98h72v-40h-72v-167c0 -45 26 -115 84 -115c31 0 53 8 72 22l18 -37c-17 -12 -48 -25 -93 -25c-90 0 -126 82 -126 154z" />
    <glyph glyph-name="Eng" unicode="&#x14a;" horiz-adv-x="664" 
d="M560 680v-680c0 -107 -55 -240 -199 -240c-21 0 -40 4 -58 9l17 39c13 -5 26 -8 42 -8c139 0 145 161 146 200l-360 610v-610h-44v680h52l359 -610v610h45z" />
    <glyph glyph-name="eng" unicode="&#x14b;" horiz-adv-x="531" 
d="M124 490l5 -121c23 63 101 131 182 131c73 0 146 -55 146 -150v-352c0 -109 -54 -238 -199 -238c-21 0 -42 3 -60 8l15 36c15 -1 30 -4 46 -4c138 0 153 159 153 198v338c0 78 -42 124 -96 124c-83 0 -187 -91 -187 -214v-246h-45v490h40z" />
    <glyph glyph-name="Wgrave" unicode="&#x1e80;" horiz-adv-x="870" 
d="M409 680h52l141 -610l164 610h50l-187 -680h-52l-142 610l-142 -610h-52l-187 680h50l164 -610zM460 769h-49l-72 87h53z" />
    <glyph glyph-name="wgrave" unicode="&#x1e81;" horiz-adv-x="648" 
d="M422 0l-96 412l-99 -412h-56l-137 490h45l121 -440l105 440h40l103 -440l121 440h45l-136 -490h-56zM352 592h-49l-72 88h53z" />
    <glyph glyph-name="Wacute" unicode="&#x1e82;" horiz-adv-x="870" 
d="M409 680h52l141 -610l164 610h50l-187 -680h-52l-142 610l-142 -610h-52l-187 680h50l164 -610zM464 769h-50l68 87h53z" />
    <glyph glyph-name="wacute" unicode="&#x1e83;" horiz-adv-x="648" 
d="M422 0l-96 412l-99 -412h-56l-137 490h45l121 -440l105 440h40l103 -440l121 440h45l-136 -490h-56zM352 592h-49l68 88h53z" />
    <glyph glyph-name="Wdieresis" unicode="&#x1e84;" horiz-adv-x="870" 
d="M409 680h52l141 -610l164 610h50l-187 -680h-52l-142 610l-142 -610h-52l-187 680h50l164 -610zM318 828c0 18 14 32 32 32s32 -14 32 -32s-14 -32 -32 -32s-32 14 -32 32zM488 828c0 18 14 32 32 32s32 -14 32 -32s-14 -32 -32 -32s-32 14 -32 32z" />
    <glyph glyph-name="wdieresis" unicode="&#x1e85;" horiz-adv-x="648" 
d="M422 0l-96 412l-99 -412h-56l-137 490h45l121 -440l105 440h40l103 -440l121 440h45l-136 -490h-56zM208 658c0 18 14 32 32 32s32 -14 32 -32s-14 -32 -32 -32s-32 14 -32 32zM378 658c0 18 14 32 32 32s32 -14 32 -32s-14 -32 -32 -32s-32 14 -32 32z" />
    <glyph glyph-name="longs_t" unicode="&#xfb05;" horiz-adv-x="595" 
d="M362 142v308h-75v40h75v133h45v-133h156v-40h-156v-304c0 -47 28 -118 84 -118c32 0 55 8 74 25l16 -38c-17 -14 -46 -27 -91 -27c-90 0 -128 83 -128 154zM108 490v45c0 107 85 154 163 154c21 0 43 0 56 -7v-36c-8 3 -19 4 -37 4c-68 0 -137 -30 -137 -117v-533h-45
v450h-74v40h74z" />
    <glyph glyph-name="franc" unicode="&#x20a3;" horiz-adv-x="488" 
d="M434 640h-285v-255h259v-40h-259v-121h153v-40h-153v-184h-45v184h-60v40h60v456h330v-40z" />
    <glyph glyph-name="lira" unicode="&#x20a4;" horiz-adv-x="524" 
d="M127 94v164h-63v40h63v53h-63v40h63v93c0 104 50 206 187 206c65 0 113 -22 146 -38l-20 -41c-10 7 -75 39 -126 39c-112 0 -137 -91 -137 -166v-93h179v-40h-179v-53h179v-40h-179v-178c0 -11 0 -27 -24 -40h296v-40h-385v41c51 6 54 18 63 53z" />
    <glyph glyph-name="peseta" unicode="&#x20a7;" horiz-adv-x="543" 
d="M104 680h196c117 0 188 -80 199 -162h51v-40h-51c-10 -83 -81 -165 -199 -165h-151v-313h-45v478h-50v40h50v162zM300 353c98 0 141 67 148 125h-299v-125h151zM149 640v-122h299c-8 58 -51 122 -148 122h-151z" />
    <glyph glyph-name="uni2113" unicode="&#x2113;" horiz-adv-x="420" 
d="M195 524c0 -56 -1 -170 -1 -242c82 82 122 146 123 272c0 64 -33 89 -63 89c-34 0 -59 -48 -59 -119zM108 148v22l-41 -27l-23 37l64 54v292c0 107 75 164 146 164c63 0 122 -45 122 -139c0 -143 -77 -235 -182 -333v-68c0 -40 9 -102 48 -102c27 0 51 11 73 29l27 -55
c-22 -16 -57 -32 -101 -32c-94 0 -133 84 -133 158z" />
    <glyph glyph-name="estimated" unicode="&#x212e;" horiz-adv-x="654" 
d="M344 -11c-200 0 -290 147 -290 307c0 199 123 305 279 305c164 0 267 -106 267 -281c0 -12 -1 -25 -2 -37h-434v-148c46 -62 120 -88 180 -88c68 0 146 30 186 100l54 -42c-57 -77 -137 -116 -240 -116zM164 460v-123h332v128c-36 50 -93 78 -163 78
c-72 0 -132 -30 -169 -83z" />
    <glyph glyph-name="bullet.case" horiz-adv-x="246" 
d="M54 366c0 37 33 68 69 68s69 -31 69 -68c0 -34 -33 -65 -69 -65s-69 31 -69 65z" />
    <glyph glyph-name="exclamdown.case" horiz-adv-x="282" 
d="M117 506h50v-506h-50v506zM141 622c-20 0 -37 16 -37 34c0 19 17 34 37 34c19 0 37 -15 37 -34c0 -18 -18 -34 -37 -34z" />
    <glyph glyph-name="periodcentered.case" horiz-adv-x="252" 
d="M84 368c0 23 20 42 42 42s42 -19 42 -42c0 -21 -20 -40 -42 -40s-42 19 -42 40z" />
    <glyph glyph-name="question.case" horiz-adv-x="401" 
d="M47 583l-33 30c51 63 97 77 158 77c102 0 175 -58 175 -171c0 -147 -159 -133 -159 -274v-71h-45v71c0 145 154 151 154 274c0 102 -79 131 -128 131c-52 0 -86 -30 -122 -67zM169 58c19 0 35 -16 35 -34c0 -19 -16 -34 -35 -34c-20 0 -37 15 -37 34c0 18 17 34 37 34z
" />
    <glyph glyph-name="questiondown.case" horiz-adv-x="392" 
d="M345 97l33 -30c-51 -63 -97 -77 -158 -77c-102 0 -175 58 -175 171c0 147 159 133 159 274v71h45v-71c0 -145 -154 -151 -154 -274c0 -102 79 -131 128 -131c52 0 86 30 122 67zM223 622c-19 0 -35 16 -35 34c0 19 16 34 35 34c20 0 37 -15 37 -34c0 -18 -17 -34 -37 -34
z" />
    <glyph glyph-name="braceleft.case" horiz-adv-x="292" 
d="M84 370c32 28 80 86 80 169c0 46 -5 92 -5 141c0 78 14 143 89 187v-50c-34 -36 -44 -86 -44 -128c0 -40 5 -75 5 -150c0 -78 -19 -120 -67 -169c48 -48 67 -90 67 -168c0 -75 -5 -110 -5 -150c0 -42 10 -92 44 -128v-50c-75 44 -89 109 -89 187c0 49 5 95 5 141
c0 83 -48 141 -80 168z" />
    <glyph glyph-name="braceright.case" horiz-adv-x="292" 
d="M208 370c-32 -27 -80 -85 -80 -168c0 -46 5 -92 5 -141c0 -78 -14 -143 -89 -187v50c34 36 44 86 44 128c0 40 -5 75 -5 150c0 78 19 120 67 168c-48 49 -67 91 -67 169c0 75 5 110 5 150c0 42 -10 92 -44 128v50c75 -44 89 -109 89 -187c0 -49 -5 -95 -5 -141
c0 -83 48 -141 80 -169z" />
    <glyph glyph-name="bracketleft.case" horiz-adv-x="332" 
d="M104 -95v930h184v-45h-134v-840h134v-45h-184z" />
    <glyph glyph-name="bracketright.case" horiz-adv-x="332" 
d="M228 835v-930h-184v45h134v840h-134v45h184z" />
    <glyph glyph-name="parenleft.case" horiz-adv-x="371" 
d="M74 371c0 176 79 361 226 462l27 -37c-122 -96 -203 -249 -203 -425s81 -329 203 -425l-27 -37c-147 101 -226 286 -226 462z" />
    <glyph glyph-name="parenright.case" horiz-adv-x="371" 
d="M297 371c0 -176 -79 -361 -226 -462l-27 37c122 96 203 249 203 425s-81 329 -203 425l27 37c147 -101 226 -286 226 -462z" />
    <glyph glyph-name="bar.case" horiz-adv-x="253" 
d="M149 -70h-45v811h45v-811z" />
    <glyph glyph-name="emdash.case" horiz-adv-x="1017" 
d="M44 392h929v-40h-929v40z" />
    <glyph glyph-name="endash.case" horiz-adv-x="604" 
d="M44 392h516v-40h-516v40z" />
    <glyph glyph-name="hyphen.case" horiz-adv-x="419" 
d="M375 352h-331v40h331v-40z" />
    <glyph glyph-name="guillemotleft.case" horiz-adv-x="441" 
d="M174 168l-107 202l107 188h40l-107 -188l107 -202h-40zM359 168l-107 202l106 188h40l-106 -188l107 -202h-40z" />
    <glyph glyph-name="guillemotright.case" horiz-adv-x="440" 
d="M188 370l-106 -202h-40l106 202l-106 188h40zM373 370l-106 -202h-40l106 202l-107 188h40z" />
    <glyph glyph-name="guilsinglleft.case" horiz-adv-x="256" 
d="M174 168l-107 202l107 188h40l-107 -188l107 -202h-40z" />
    <glyph glyph-name="guilsinglright.case" horiz-adv-x="255" 
d="M188 370l-106 -202h-40l106 202l-106 188h40z" />
    <glyph glyph-name="at.case" horiz-adv-x="908" 
d="M629 138h-40l-5 98c-22 -45 -99 -97 -167 -97c-99 0 -161 83 -161 155c0 87 51 192 286 194h43c-7 114 -84 177 -168 177c-157 0 -292 -120 -292 -320c0 -182 151 -332 329 -332c189 0 329 145 329 322h50c0 -201 -171 -362 -378 -362c-208 0 -380 165 -380 373
c0 188 137 359 337 359c112 0 217 -80 217 -227v-340zM585 296v150c-148 0 -279 -22 -279 -152c0 -39 40 -115 110 -115c49 0 120 16 169 117z" />
    <glyph glyph-name="zero.tf" 
d="M290 690c159 0 278 -161 278 -352s-119 -348 -277 -348c-159 0 -276 157 -276 349s117 351 275 351zM291 650c-120 0 -226 -139 -226 -311c0 -176 106 -309 226 -309c121 0 227 133 227 309c0 172 -106 311 -227 311z" />
    <glyph glyph-name="one.tf" 
d="M460 40v-40h-311v40h132v588l-133 -92l-25 32l158 112h45v-640h134z" />
    <glyph glyph-name="two.tf" 
d="M287 650c-94 0 -132 -61 -135 -133h-50c2 96 72 173 186 173c116 0 188 -88 188 -185c0 -194 -324 -296 -324 -465h330v-40h-380v59c0 140 324 291 324 442c0 78 -43 149 -139 149z" />
    <glyph glyph-name="three.tf" 
d="M290 30c73 0 152 70 152 161c0 98 -80 148 -159 148h-49v40h47c72 0 138 49 138 137c0 87 -68 134 -139 134c-76 0 -137 -62 -137 -133h-50c0 95 76 173 187 173c102 0 189 -67 189 -174c0 -80 -45 -137 -126 -154c78 -15 148 -78 148 -172c0 -138 -114 -200 -201 -200
c-111 0 -187 78 -187 173h50c0 -71 61 -133 137 -133z" />
    <glyph glyph-name="four.tf" 
d="M432 217h86v-40h-86v-177h-44v177h-322v40l316 464h50v-464zM387 217v394c-94 -143 -171 -240 -270 -394h270z" />
    <glyph glyph-name="five.tf" 
d="M284 30c80 0 154 62 154 188c0 123 -91 184 -154 184s-117 -29 -138 -63h-50l54 341h296v-40h-257l-41 -248c41 36 88 50 137 50c96 0 203 -70 203 -224c0 -161 -111 -228 -204 -228c-111 0 -187 78 -187 173h50c0 -71 61 -133 137 -133z" />
    <glyph glyph-name="six.tf" 
d="M306 650c-147 0 -176 -197 -183 -311c34 69 102 108 183 108c150 0 205 -124 205 -229c0 -102 -58 -228 -212 -228c-186 0 -226 213 -226 348c0 191 72 352 235 352c76 0 135 -26 175 -70l-34 -30c-36 40 -82 60 -143 60zM302 407c-64 0 -150 -51 -173 -107
c0 -101 39 -270 176 -270c72 0 156 64 156 189c0 107 -64 188 -159 188z" />
    <glyph glyph-name="seven.tf" 
d="M435 640h-336v40h386v-40l-267 -640h-50z" />
    <glyph glyph-name="eight.tf" 
d="M293 -10c-128 0 -207 88 -207 177c0 109 76 163 145 186c-62 26 -125 87 -125 168c0 108 95 169 187 169c89 0 182 -56 182 -162c0 -81 -54 -132 -131 -160c60 -20 154 -82 154 -195c0 -96 -80 -183 -205 -183zM293 30c82 0 155 50 155 139c0 109 -114 153 -177 174
c-68 -35 -135 -79 -135 -170c0 -84 73 -143 157 -143zM425 525c0 92 -67 125 -132 125c-53 0 -137 -31 -137 -125c0 -92 103 -138 144 -150c16 8 125 63 125 150z" />
    <glyph glyph-name="nine.tf" 
d="M278 30c147 0 176 197 183 311c-34 -69 -102 -108 -183 -108c-150 0 -205 124 -205 229c0 102 58 228 212 228c186 0 226 -213 226 -348c0 -191 -72 -352 -235 -352c-76 0 -135 26 -175 70l34 30c36 -40 82 -60 143 -60zM282 273c64 0 150 51 173 107
c0 101 -39 270 -176 270c-72 0 -156 -64 -156 -189c0 -107 64 -188 159 -188z" />
    <glyph glyph-name="Euro.tf" 
d="M374 258h-235c17 -109 76 -228 214 -228c76 0 139 45 176 115l35 -28c-54 -87 -126 -127 -211 -127c-154 0 -240 123 -263 268h-70v40h65c-1 13 -1 26 -1 39v14h-64v40h66c17 156 106 299 266 299c83 0 156 -40 211 -124l-33 -30c-36 69 -101 114 -177 114
c-125 0 -198 -123 -215 -259h236v-40h-240v-23c0 -10 0 -20 1 -30h239v-40z" />
    <glyph glyph-name="florin.tf" 
d="M269 450h-75v40h75v45c0 71 37 155 130 155c42 0 70 -11 87 -22l-18 -37c-20 13 -42 19 -64 19c-50 0 -90 -44 -90 -117v-43h153v-40h-153v-466c0 -72 -37 -153 -126 -153c-43 0 -71 13 -90 25l18 37c18 -13 37 -22 71 -22c56 0 82 70 82 115v464z" />
    <glyph glyph-name="cent.tf" 
d="M142 245c0 -122 75 -215 177 -215c58 0 109 30 138 74l30 -26c-40 -56 -93 -83 -153 -87v-92h-45v94c-110 15 -192 116 -192 252c0 133 82 236 192 252v96h45v-94c60 -4 113 -34 153 -88l-30 -24c-30 44 -80 73 -138 73c-102 0 -177 -94 -177 -215z" />
    <glyph glyph-name="yen.tf" 
d="M268 351h-124v40h95l-206 289h58l200 -289c65 95 138 194 202 289h58l-209 -289h96v-40h-125v-53h125v-40h-125v-258h-45v258h-124v40h124v53z" />
    <glyph glyph-name="dollar.tf" 
d="M78 35l25 42c51 -31 110 -49 168 -50v312c-121 44 -193 83 -193 177c0 89 63 168 193 177v56h45v-56c68 -3 111 -23 144 -38l-19 -40c-31 20 -76 35 -125 38v-285c95 -34 190 -76 190 -192c0 -87 -77 -170 -190 -186v-63h-45v60c-93 1 -162 28 -193 48zM456 176
c0 54 -21 97 -140 146v-291c78 17 140 79 140 145zM128 516c0 -72 66 -103 143 -131v268c-87 -9 -143 -63 -143 -137z" />
    <glyph glyph-name="sterling.tf" 
d="M386 351h-179v-271c0 -11 0 -27 -24 -40h296v-40h-385v41c51 6 54 18 63 53v257h-63v40h63v93c0 104 50 206 187 206c65 0 113 -22 146 -38l-20 -41c-10 7 -75 39 -126 39c-112 0 -137 -91 -137 -166v-93h179v-40z" />
    <glyph glyph-name="franc.tf" 
d="M487 640h-285v-255h259v-40h-259v-121h153v-40h-153v-184h-45v184h-60v40h60v456h330v-40z" />
    <glyph glyph-name="lira.tf" 
d="M157 94v164h-63v40h63v53h-63v40h63v93c0 104 50 206 187 206c65 0 113 -22 146 -38l-20 -41c-10 7 -75 39 -126 39c-112 0 -137 -91 -137 -166v-93h179v-40h-179v-53h179v-40h-179v-178c0 -11 0 -27 -24 -40h296v-40h-385v41c51 6 54 18 63 53z" />
    <glyph glyph-name="peseta.tf" 
d="M94 680h196c117 0 188 -80 199 -162h51v-40h-51c-10 -83 -81 -165 -199 -165h-151v-313h-45v478h-50v40h50v162zM290 353c98 0 141 67 148 125h-299v-125h151zM139 640v-122h299c-8 58 -51 122 -148 122h-151z" />
    <glyph glyph-name="zero.tosf" 
d="M291 548c138 0 242 -126 242 -280s-104 -279 -241 -279c-139 0 -241 125 -241 280s103 279 240 279zM292 508c-100 0 -191 -104 -191 -239c0 -134 91 -240 191 -240c102 0 191 106 191 240c0 135 -89 239 -191 239z" />
    <glyph glyph-name="one.tosf" 
d="M281 40l1 442l-119 -79l-26 32l146 101h44l-1 -496h121v-40h-287v40h121z" />
    <glyph glyph-name="two.tosf" 
d="M429 379c0 55 -46 128 -142 128c-93 0 -134 -62 -137 -122h-50c3 85 70 162 188 162c119 0 191 -81 191 -168c0 -91 -90 -149 -321 -339h326v-40h-384v43c176 150 329 259 329 336z" />
    <glyph glyph-name="three.tosf" 
d="M291 -62c68 0 135 62 135 146c0 91 -68 137 -141 137h-46v40h44c66 0 123 43 123 124s-58 122 -124 122c-71 0 -127 -55 -127 -121h-47c0 88 71 161 174 161c94 0 174 -62 174 -162c0 -74 -41 -127 -116 -142c73 -14 136 -73 136 -160c0 -128 -104 -185 -185 -185
c-103 0 -173 72 -173 160h46c0 -66 57 -120 127 -120z" />
    <glyph glyph-name="four.tosf" 
d="M427 97h89v-40h-89v-150h-44v150h-315v47l302 432h57v-439zM382 97v384l-269 -384h269z" />
    <glyph glyph-name="five.tosf" 
d="M195 506c-11 -79 -21 -145 -35 -224c36 36 81 46 127 46c91 0 195 -69 195 -214c0 -115 -70 -216 -202 -216c-105 0 -173 66 -178 144h45c5 -58 63 -104 131 -104c95 0 154 70 154 176c0 117 -80 174 -145 174c-64 0 -111 -28 -129 -62h-49l53 320h274v-40h-241z" />
    <glyph glyph-name="six.tosf" 
d="M303 599c-141 0 -168 -175 -172 -268c33 54 95 95 172 95c148 0 199 -114 199 -219c0 -98 -56 -217 -204 -217c-182 1 -216 196 -216 325c0 181 72 324 224 324c68 0 130 -30 166 -70l-29 -30c-39 36 -78 60 -140 60zM301 386c-63 0 -144 -52 -164 -111
c0 -94 35 -245 165 -245c71 0 150 56 150 179c0 109 -59 177 -151 177z" />
    <glyph glyph-name="seven.tosf" 
d="M435 507h-336v40h386v-40l-251 -600h-50z" />
    <glyph glyph-name="eight.tosf" 
d="M292 -10c-114 0 -185 82 -185 164c0 101 69 154 130 176c-55 23 -112 78 -112 153c0 100 85 156 167 156c80 0 164 -52 164 -150c0 -75 -49 -127 -117 -154c53 -18 138 -71 138 -175c0 -89 -72 -170 -185 -170zM292 31c74 0 135 52 135 125c0 101 -84 138 -141 158
c-69 -32 -129 -80 -129 -154c0 -78 60 -129 135 -129zM406 486c0 75 -55 112 -114 112c-48 0 -117 -35 -117 -112c0 -85 77 -123 114 -135c24 7 117 55 117 135z" />
    <glyph glyph-name="nine.tosf" 
d="M281 -63c141 0 168 175 172 268c-33 -54 -95 -95 -172 -95c-148 0 -199 114 -199 219c0 98 56 217 204 217c182 -1 216 -196 216 -325c0 -181 -72 -324 -224 -324c-68 0 -130 30 -166 70l29 30c39 -36 78 -60 140 -60zM283 150c63 0 144 52 164 111
c0 94 -35 245 -165 245c-71 0 -150 -56 -150 -179c0 -109 59 -177 151 -177z" />
    <glyph glyph-name="Euro.tosf" 
d="M325 298h-161c-1 -9 -1 -19 -1 -28v-22h162v-40h-156c19 -104 87 -178 174 -178c59 0 114 36 143 89l33 -31c-43 -66 -107 -98 -176 -98c-111 0 -203 89 -225 218h-54v40h49v22c0 9 0 19 1 28h-50v40h55c25 124 115 208 224 208c67 0 131 -30 174 -97l-34 -30
c-29 52 -81 87 -140 87c-85 0 -151 -70 -173 -168h155v-40z" />
    <glyph glyph-name="florin.tosf" 
d="M316 -14c0 -72 -37 -153 -126 -153c-43 0 -72 12 -91 25l21 39c18 -13 35 -24 69 -24c56 0 82 67 82 115v303h-75v40h75v61c0 71 37 155 130 155c40 0 67 -12 84 -25l-16 -37c-18 14 -37 22 -67 22c-61 0 -86 -65 -86 -117v-59h154v-40h-154v-305z" />
    <glyph glyph-name="cent.tosf" 
d="M142 245c0 -122 75 -215 177 -215c58 0 109 30 138 74l30 -26c-40 -55 -92 -83 -151 -87v-92h-45v93c-111 14 -194 116 -194 253c0 134 83 238 194 253v95h45v-94c59 -4 111 -34 151 -88l-30 -24c-30 44 -80 73 -138 73c-102 0 -177 -94 -177 -215z" />
    <glyph glyph-name="yen.tosf" 
d="M431 208h-116v-208h-45v208h-119v40h102l-27 50h-75v40h53l-113 209h54l148 -283l146 283h54l-113 -209h51v-40h-73l-27 -50h100v-40z" />
    <glyph glyph-name="dollar.tosf" 
d="M310 626v-82c48 -3 90 -22 124 -54l-31 -31c-30 30 -64 46 -111 46c-80 0 -116 -46 -116 -100c0 -114 282 -95 282 -270c0 -68 -64 -132 -148 -144v-72h-45v70c-51 2 -94 20 -129 56l31 29c27 -29 65 -46 111 -46c75 0 130 52 130 107c0 144 -282 101 -282 270
c0 66 48 128 139 138v83h45z" />
    <glyph glyph-name="sterling.tosf" 
d="M471 40v-40h-369v40c53 8 55 16 62 43v201h-62v40h62v13c0 107 52 209 190 209c43 0 70 -8 128 -36l-20 -40c-45 28 -76 36 -108 36c-109 0 -145 -93 -145 -169v-13h152v-40h-152v-203c0 -14 -1 -28 -24 -41h286z" />
    <glyph glyph-name="franc.tosf" 
d="M361 123h-173v-123h-45v123h-36v40h36v383h333v-41h-288v-170h260v-40h-260v-132h173v-40z" />
    <glyph glyph-name="lira.tosf" 
d="M361 298h-152v-50h152v-40h-152v-127c0 -14 -1 -28 -24 -41h286v-40h-369v40c53 8 55 16 62 43v125h-62v40h62v50h-62v40h62c0 106 52 208 190 208c43 0 70 -8 128 -36l-20 -40c-45 28 -76 36 -108 36c-109 0 -145 -92 -145 -168h152v-40z" />
    <glyph glyph-name="peseta.tosf" 
d="M106 546h197c110 0 169 -76 178 -147h36v-40h-37c-11 -72 -70 -140 -177 -140h-152v-219h-45v359h-35v40h35v147zM151 506v-107h279c-7 54 -51 107 -127 107h-152zM303 259c74 0 117 47 127 100h-279v-100h152z" />
    <glyph glyph-name="zero.osf" horiz-adv-x="630" 
d="M314 548c138 0 242 -126 242 -280s-104 -279 -241 -279c-139 0 -241 125 -241 280s103 279 240 279zM315 508c-100 0 -191 -104 -191 -239c0 -134 91 -240 191 -240c102 0 191 106 191 240c0 135 -89 239 -191 239z" />
    <glyph glyph-name="one.osf" horiz-adv-x="408" 
d="M188 40l1 442l-119 -79l-26 32l146 101h44l-1 -496h121v-40h-287v40h121z" />
    <glyph glyph-name="two.osf" horiz-adv-x="512" 
d="M393 379c0 55 -46 128 -142 128c-93 0 -134 -62 -137 -122h-50c3 85 70 162 188 162c119 0 191 -81 191 -168c0 -91 -90 -149 -321 -339h326v-40h-384v43c176 150 329 259 329 336z" />
    <glyph glyph-name="three.osf" horiz-adv-x="496" 
d="M247 -62c68 0 135 62 135 146c0 91 -68 137 -141 137h-46v40h44c66 0 123 43 123 124s-58 122 -124 122c-71 0 -127 -55 -127 -121h-47c0 88 71 161 174 161c94 0 174 -62 174 -162c0 -74 -41 -127 -116 -142c73 -14 136 -73 136 -160c0 -128 -104 -185 -185 -185
c-103 0 -173 72 -173 160h46c0 -66 57 -120 127 -120z" />
    <glyph glyph-name="four.osf" horiz-adv-x="526" 
d="M398 97h89v-40h-89v-150h-44v150h-315v47l302 432h57v-439zM353 97v384l-269 -384h269z" />
    <glyph glyph-name="five.osf" horiz-adv-x="506" 
d="M160 506c-11 -79 -21 -145 -35 -224c36 36 81 46 127 46c91 0 195 -69 195 -214c0 -115 -70 -216 -202 -216c-105 0 -173 66 -178 144h45c5 -58 63 -104 131 -104c95 0 154 70 154 176c0 117 -80 174 -145 174c-64 0 -111 -28 -129 -62h-49l53 320h274v-40h-241z" />
    <glyph glyph-name="six.osf" horiz-adv-x="528" 
d="M275 599c-141 0 -168 -175 -172 -268c33 54 95 95 172 95c148 0 199 -114 199 -219c0 -98 -56 -217 -204 -217c-182 1 -216 196 -216 325c0 181 72 324 224 324c68 0 130 -30 166 -70l-29 -30c-39 36 -78 60 -140 60zM273 386c-63 0 -144 -52 -164 -111
c0 -94 35 -245 165 -245c71 0 150 56 150 179c0 109 -59 177 -151 177z" />
    <glyph glyph-name="seven.osf" horiz-adv-x="435" 
d="M362 507h-336v40h386v-40l-251 -600h-50z" />
    <glyph glyph-name="eight.osf" horiz-adv-x="500" 
d="M250 -10c-114 0 -185 82 -185 164c0 101 69 154 130 176c-55 23 -112 78 -112 153c0 100 85 156 167 156c80 0 164 -52 164 -150c0 -75 -49 -127 -117 -154c53 -18 138 -71 138 -175c0 -89 -72 -170 -185 -170zM250 31c74 0 135 52 135 125c0 101 -84 138 -141 158
c-69 -32 -129 -80 -129 -154c0 -78 60 -129 135 -129zM364 486c0 75 -55 112 -114 112c-48 0 -117 -35 -117 -112c0 -85 77 -123 114 -135c24 7 117 55 117 135z" />
    <glyph glyph-name="nine.osf" horiz-adv-x="528" 
d="M253 -63c141 0 168 175 172 268c-33 -54 -95 -95 -172 -95c-148 0 -199 114 -199 219c0 98 56 217 204 217c182 -1 216 -196 216 -325c0 -181 -72 -324 -224 -324c-68 0 -130 30 -166 70l29 30c39 -36 78 -60 140 -60zM255 150c63 0 144 52 164 111
c0 94 -35 245 -165 245c-71 0 -150 -56 -150 -179c0 -109 59 -177 151 -177z" />
    <glyph glyph-name="Euro.osf" horiz-adv-x="562" 
d="M310 298h-161c-1 -9 -1 -19 -1 -28v-22h162v-40h-156c19 -104 87 -178 174 -178c59 0 114 36 143 89l33 -31c-43 -66 -107 -98 -176 -98c-111 0 -203 89 -225 218h-54v40h49v22c0 9 0 19 1 28h-50v40h55c25 124 115 208 224 208c67 0 131 -30 174 -97l-34 -30
c-29 52 -81 87 -140 87c-85 0 -151 -70 -173 -168h155v-40z" />
    <glyph glyph-name="florin.osf" horiz-adv-x="394" 
d="M221 -14c0 -72 -37 -153 -126 -153c-43 0 -72 12 -91 25l21 39c18 -13 35 -24 69 -24c56 0 82 67 82 115v303h-75v40h75v61c0 71 37 155 130 155c40 0 67 -12 84 -25l-16 -37c-18 14 -37 22 -67 22c-61 0 -86 -65 -86 -117v-59h154v-40h-154v-305z" />
    <glyph glyph-name="cent.osf" horiz-adv-x="498" 
d="M99 245c0 -122 75 -215 177 -215c58 0 109 30 138 74l30 -26c-40 -55 -92 -83 -151 -87v-92h-45v93c-111 14 -194 116 -194 253c0 134 83 238 194 253v95h45v-94c59 -4 111 -34 151 -88l-30 -24c-30 44 -80 73 -138 73c-102 0 -177 -94 -177 -215z" />
    <glyph glyph-name="yen.osf" horiz-adv-x="530" 
d="M404 208h-116v-208h-45v208h-119v40h102l-27 50h-75v40h53l-113 209h54l148 -283l146 283h54l-113 -209h51v-40h-73l-27 -50h100v-40z" />
    <glyph glyph-name="dollar.osf" horiz-adv-x="460" 
d="M248 626v-82c48 -3 90 -22 124 -54l-31 -31c-30 30 -64 46 -111 46c-80 0 -116 -46 -116 -100c0 -114 282 -95 282 -270c0 -68 -64 -132 -148 -144v-72h-45v70c-51 2 -94 20 -129 56l31 29c27 -29 65 -46 111 -46c75 0 130 52 130 107c0 144 -282 101 -282 270
c0 66 48 128 139 138v83h45z" />
    <glyph glyph-name="sterling.osf" horiz-adv-x="508" 
d="M433 40v-40h-369v40c53 8 55 16 62 43v201h-62v40h62v13c0 107 52 209 190 209c43 0 70 -8 128 -36l-20 -40c-45 28 -76 36 -108 36c-109 0 -145 -93 -145 -169v-13h152v-40h-152v-203c0 -14 -1 -28 -24 -41h286z" />
    <glyph glyph-name="franc.osf" horiz-adv-x="504" 
d="M325 123h-173v-123h-45v123h-36v40h36v383h333v-41h-288v-170h260v-40h-260v-132h173v-40z" />
    <glyph glyph-name="lira.osf" horiz-adv-x="508" 
d="M323 298h-152v-50h152v-40h-152v-127c0 -14 -1 -28 -24 -41h286v-40h-369v40c53 8 55 16 62 43v125h-62v40h62v50h-62v40h62c0 106 52 208 190 208c43 0 70 -8 128 -36l-20 -40c-45 28 -76 36 -108 36c-109 0 -145 -92 -145 -168h152v-40z" />
    <glyph glyph-name="peseta.osf" horiz-adv-x="528" 
d="M77 546h197c110 0 169 -76 178 -147h36v-40h-37c-11 -72 -70 -140 -177 -140h-152v-219h-45v359h-35v40h35v147zM122 506v-107h279c-7 54 -51 107 -127 107h-152zM274 259c74 0 117 47 127 100h-279v-100h152z" />
    <glyph glyph-name="zerosuperior" unicode="&#x2070;" horiz-adv-x="387" 
d="M191 738c90 0 152 -92 152 -197c0 -104 -62 -192 -151 -192c-86 0 -148 88 -148 192c0 106 62 197 147 197zM192 708c-61 0 -113 -76 -113 -167c0 -89 52 -162 113 -162c64 0 116 73 116 162c0 91 -52 167 -116 167z" />
    <glyph glyph-name="foursuperior" unicode="&#x2074;" horiz-adv-x="330" 
d="M245 480h46v-30h-46v-96h-35v96h-171v30l165 249h41v-249zM209 480v191l-131 -191h131z" />
    <glyph glyph-name="fivesuperior" unicode="&#x2075;" horiz-adv-x="330" 
d="M119 699l-18 -116c16 14 40 21 63 21c47 0 112 -32 112 -124c0 -67 -39 -131 -113 -131c-64 0 -106 51 -109 105h36c10 -50 41 -75 72 -75c42 0 79 39 79 101c0 54 -41 94 -85 94c-23 0 -46 -10 -64 -36h-35l31 191h167v-30h-136z" />
    <glyph glyph-name="sixsuperior" unicode="&#x2076;" horiz-adv-x="328" 
d="M172 702c-60 0 -93 -88 -95 -161c19 28 51 60 95 60c82 0 112 -69 112 -126c0 -56 -31 -126 -116 -126c-102 0 -124 118 -124 192c0 105 50 191 129 191c32 0 74 -14 96 -38l-22 -24c-20 22 -41 32 -75 32zM170 573c-33 0 -78 -31 -90 -70c0 -48 21 -125 92 -125
c36 0 77 33 77 97c0 56 -30 98 -79 98z" />
    <glyph glyph-name="sevensuperior" unicode="&#x2077;" horiz-adv-x="303" 
d="M115 355h-37l144 342h-178v32h215v-31z" />
    <glyph glyph-name="eightsuperior" unicode="&#x2078;" horiz-adv-x="317" 
d="M160 349c-71 0 -116 52 -116 103c0 52 44 89 74 101c-30 11 -62 45 -62 86c0 61 51 96 104 96c48 0 103 -29 103 -93c0 -41 -34 -71 -69 -87c33 -11 79 -45 79 -100c0 -56 -43 -106 -113 -106zM160 379c42 0 78 28 78 76c0 49 -52 77 -83 86c-29 -8 -76 -46 -76 -86
c0 -43 38 -76 81 -76zM228 641c0 44 -35 64 -68 64c-27 0 -69 -18 -69 -64s44 -71 65 -75c26 8 72 40 72 75z" />
    <glyph glyph-name="ninesuperior" unicode="&#x2079;" horiz-adv-x="328" 
d="M156 379c60 0 93 88 95 161c-19 -28 -51 -60 -95 -60c-82 0 -112 69 -112 126c0 56 31 126 116 126c102 0 124 -118 124 -192c0 -105 -50 -191 -129 -191c-32 0 -74 14 -96 38l22 24c20 -22 41 -32 75 -32zM158 508c33 0 78 31 90 70c0 48 -21 125 -92 125
c-36 0 -77 -33 -77 -97c0 -56 30 -98 79 -98z" />
    <glyph glyph-name="parenleftsuperior" unicode="&#x207d;" horiz-adv-x="233" 
d="M54 537c0 94 44 197 126 253l19 -22c-68 -52 -110 -139 -110 -231c0 -95 42 -179 110 -233l-19 -21c-84 56 -126 159 -126 254z" />
    <glyph glyph-name="parenrightsuperior" unicode="&#x207e;" horiz-adv-x="233" 
d="M179 537c0 -95 -45 -198 -128 -254l-17 21c68 54 110 138 110 233c0 92 -42 179 -110 231l17 22c83 -56 128 -159 128 -253z" />
    <glyph glyph-name="zeroinferior" unicode="&#x2080;" horiz-adv-x="387" 
d="M191 306c90 0 152 -92 152 -197c0 -104 -62 -192 -151 -192c-86 0 -148 88 -148 192c0 106 62 197 147 197zM192 276c-61 0 -113 -76 -113 -167c0 -89 52 -162 113 -162c64 0 116 73 116 162c0 91 -52 167 -116 167z" />
    <glyph glyph-name="oneinferior" unicode="&#x2081;" horiz-adv-x="263" 
d="M209 -49v-30h-175v30h70v287l-39 -47l-27 21l66 85h35v-346h70z" />
    <glyph glyph-name="twoinferior" unicode="&#x2082;" horiz-adv-x="321" 
d="M157 273c-31 0 -67 -23 -67 -83h-36c0 63 39 114 103 114c67 0 107 -42 107 -106c0 -116 -176 -146 -176 -247h179v-30h-213v44c0 86 175 147 175 231c0 58 -40 77 -72 77z" />
    <glyph glyph-name="threeinferior" unicode="&#x2083;" horiz-adv-x="330" 
d="M276 23c0 -64 -46 -106 -113 -106c-64 0 -109 51 -109 114h35c0 -60 43 -83 74 -83c32 0 79 21 79 79s-41 80 -83 80h-44v30h43c37 0 72 27 72 71s-43 66 -72 66c-31 0 -69 -24 -69 -84h-35c0 63 40 114 104 114c63 0 107 -45 107 -96c0 -43 -20 -68 -52 -83
c34 -14 63 -48 63 -102z" />
    <glyph glyph-name="fourinferior" unicode="&#x2084;" horiz-adv-x="330" 
d="M245 48h46v-30h-46v-96h-35v96h-171v30l165 249h41v-249zM209 48v191l-131 -191h131z" />
    <glyph glyph-name="fiveinferior" unicode="&#x2085;" horiz-adv-x="330" 
d="M119 267l-18 -116c16 14 40 21 63 21c47 0 112 -32 112 -124c0 -67 -39 -131 -113 -131c-64 0 -106 51 -109 105h36c10 -50 41 -75 72 -75c42 0 79 39 79 101c0 54 -41 94 -85 94c-23 0 -46 -10 -64 -36h-35l31 191h167v-30h-136z" />
    <glyph glyph-name="sixinferior" unicode="&#x2086;" horiz-adv-x="328" 
d="M172 270c-60 0 -93 -88 -95 -161c19 28 51 60 95 60c82 0 112 -69 112 -126c0 -56 -31 -126 -116 -126c-102 0 -124 118 -124 192c0 105 50 191 129 191c32 0 74 -14 96 -38l-22 -24c-20 22 -41 32 -75 32zM170 141c-33 0 -78 -31 -90 -70c0 -48 21 -125 92 -125
c36 0 77 33 77 97c0 56 -30 98 -79 98z" />
    <glyph glyph-name="seveninferior" unicode="&#x2087;" horiz-adv-x="303" 
d="M115 -77h-37l144 342h-178v32h215v-31z" />
    <glyph glyph-name="eightinferior" unicode="&#x2088;" horiz-adv-x="317" 
d="M160 -83c-71 0 -116 52 -116 103c0 52 44 89 74 101c-30 11 -62 45 -62 86c0 61 51 96 104 96c48 0 103 -29 103 -93c0 -41 -34 -71 -69 -87c33 -11 79 -45 79 -100c0 -56 -43 -106 -113 -106zM160 -53c42 0 78 28 78 76c0 49 -52 77 -83 86c-29 -8 -76 -46 -76 -86
c0 -43 38 -76 81 -76zM228 209c0 44 -35 64 -68 64c-27 0 -69 -18 -69 -64s44 -71 65 -75c26 8 72 40 72 75z" />
    <glyph glyph-name="nineinferior" unicode="&#x2089;" horiz-adv-x="328" 
d="M156 -53c60 0 93 88 95 161c-19 -28 -51 -60 -95 -60c-82 0 -112 69 -112 126c0 56 31 126 116 126c102 0 124 -118 124 -192c0 -105 -50 -191 -129 -191c-32 0 -74 14 -96 38l22 24c20 -22 41 -32 75 -32zM158 76c33 0 78 31 90 70c0 48 -21 125 -92 125
c-36 0 -77 -33 -77 -97c0 -56 30 -98 79 -98z" />
    <glyph glyph-name="uni208D" unicode="&#x208d;" horiz-adv-x="233" 
d="M54 92c0 97 44 199 126 254l19 -25c-68 -52 -108 -138 -108 -229c0 -92 40 -179 108 -231l-19 -23c-84 56 -126 159 -126 254z" />
    <glyph glyph-name="uni208E" unicode="&#x208e;" horiz-adv-x="233" 
d="M179 92c0 -95 -45 -198 -128 -254l-17 23c68 52 108 139 108 231c0 91 -40 177 -108 229l17 25c83 -55 128 -157 128 -254z" />
    <glyph glyph-name="zero.numr" horiz-adv-x="387" 
d="M191 690c90 0 152 -92 152 -197c0 -104 -62 -192 -151 -192c-86 0 -148 88 -148 192c0 106 62 197 147 197zM192 660c-61 0 -113 -76 -113 -167c0 -89 52 -162 113 -162c64 0 116 73 116 162c0 91 -52 167 -116 167z" />
    <glyph glyph-name="one.numr" horiz-adv-x="263" 
d="M209 334v-30h-175v30h70v287l-39 -47l-27 21l66 85h35v-346h70z" />
    <glyph glyph-name="two.numr" horiz-adv-x="321" 
d="M157 659c-31 0 -67 -23 -67 -83h-36c0 63 39 114 103 114c67 0 107 -42 107 -106c0 -116 -176 -146 -176 -247h179v-30h-213v44c0 86 175 147 175 231c0 58 -40 77 -72 77z" />
    <glyph glyph-name="three.numr" horiz-adv-x="330" 
d="M276 409c0 -64 -46 -106 -113 -106c-64 0 -109 51 -109 114h35c0 -60 43 -83 74 -83c32 0 79 21 79 79s-41 80 -83 80h-44v30h43c37 0 72 27 72 71s-43 66 -72 66c-31 0 -69 -24 -69 -84h-35c0 63 40 114 104 114c63 0 107 -45 107 -96c0 -43 -20 -68 -52 -83
c34 -14 63 -48 63 -102z" />
    <glyph glyph-name="four.numr" horiz-adv-x="330" 
d="M245 431h46v-30h-46v-96h-35v96h-171v30l165 249h41v-249zM209 431v191l-131 -191h131z" />
    <glyph glyph-name="five.numr" horiz-adv-x="330" 
d="M119 650l-18 -116c16 14 40 21 63 21c47 0 112 -32 112 -124c0 -67 -39 -131 -113 -131c-64 0 -106 51 -109 105h36c10 -50 41 -75 72 -75c42 0 79 39 79 101c0 54 -41 94 -85 94c-23 0 -46 -10 -64 -36h-35l31 191h167v-30h-136z" />
    <glyph glyph-name="six.numr" horiz-adv-x="328" 
d="M172 660c-60 0 -93 -88 -95 -161c19 28 51 60 95 60c82 0 112 -69 112 -126c0 -56 -31 -126 -116 -126c-102 0 -124 118 -124 192c0 105 50 191 129 191c32 0 74 -14 96 -38l-22 -24c-20 22 -41 32 -75 32zM170 531c-33 0 -78 -31 -90 -70c0 -48 21 -125 92 -125
c36 0 77 33 77 97c0 56 -30 98 -79 98z" />
    <glyph glyph-name="seven.numr" horiz-adv-x="303" 
d="M115 306h-37l144 342h-178v32h215v-31z" />
    <glyph glyph-name="eight.numr" horiz-adv-x="317" 
d="M160 304c-71 0 -116 52 -116 103c0 52 44 89 74 101c-30 11 -62 45 -62 86c0 61 51 96 104 96c48 0 103 -29 103 -93c0 -41 -34 -71 -69 -87c33 -11 79 -45 79 -100c0 -56 -43 -106 -113 -106zM160 334c42 0 78 28 78 76c0 49 -52 77 -83 86c-29 -8 -76 -46 -76 -86
c0 -43 38 -76 81 -76zM228 596c0 44 -35 64 -68 64c-27 0 -69 -18 -69 -64s44 -71 65 -75c26 8 72 40 72 75z" />
    <glyph glyph-name="nine.numr" horiz-adv-x="328" 
d="M156 337c60 0 93 88 95 161c-19 -28 -51 -60 -95 -60c-82 0 -112 69 -112 126c0 56 31 126 116 126c102 0 124 -118 124 -192c0 -105 -50 -191 -129 -191c-32 0 -74 14 -96 38l22 24c20 -22 41 -32 75 -32zM158 466c33 0 78 31 90 70c0 48 -21 125 -92 125
c-36 0 -77 -33 -77 -97c0 -56 30 -98 79 -98z" />
    <glyph glyph-name="zero.dnom" horiz-adv-x="387" 
d="M191 379c90 0 152 -92 152 -197c0 -104 -62 -192 -151 -192c-86 0 -148 88 -148 192c0 106 62 197 147 197zM192 349c-61 0 -113 -76 -113 -167c0 -89 52 -162 113 -162c64 0 116 73 116 162c0 91 -52 167 -116 167z" />
    <glyph glyph-name="one.dnom" horiz-adv-x="263" 
d="M209 30v-30h-175v30h70v287l-39 -47l-27 21l66 85h35v-346h70z" />
    <glyph glyph-name="two.dnom" horiz-adv-x="321" 
d="M157 352c-31 0 -67 -23 -67 -83h-36c0 63 39 114 103 114c67 0 107 -42 107 -106c0 -116 -176 -146 -176 -247h179v-30h-213v44c0 86 175 147 175 231c0 58 -40 77 -72 77z" />
    <glyph glyph-name="three.dnom" horiz-adv-x="330" 
d="M276 96c0 -64 -46 -106 -113 -106c-64 0 -109 51 -109 114h35c0 -60 43 -83 74 -83c32 0 79 21 79 79s-41 80 -83 80h-44v30h43c37 0 72 27 72 71s-43 66 -72 66c-31 0 -69 -24 -69 -84h-35c0 63 40 114 104 114c63 0 107 -45 107 -96c0 -43 -20 -68 -52 -83
c34 -14 63 -48 63 -102z" />
    <glyph glyph-name="four.dnom" horiz-adv-x="330" 
d="M245 126h46v-30h-46v-96h-35v96h-171v30l165 249h41v-249zM209 126v191l-131 -191h131z" />
    <glyph glyph-name="five.dnom" horiz-adv-x="330" 
d="M119 340l-18 -116c16 14 40 21 63 21c47 0 112 -32 112 -124c0 -67 -39 -131 -113 -131c-64 0 -106 51 -109 105h36c10 -50 41 -75 72 -75c42 0 79 39 79 101c0 54 -41 94 -85 94c-23 0 -46 -10 -64 -36h-35l31 191h167v-30h-136z" />
    <glyph glyph-name="six.dnom" horiz-adv-x="328" 
d="M172 343c-60 0 -93 -88 -95 -161c19 28 51 60 95 60c82 0 112 -69 112 -126c0 -56 -31 -126 -116 -126c-102 0 -124 118 -124 192c0 105 50 191 129 191c32 0 74 -14 96 -38l-22 -24c-20 22 -41 32 -75 32zM170 214c-33 0 -78 -31 -90 -70c0 -48 21 -125 92 -125
c36 0 77 33 77 97c0 56 -30 98 -79 98z" />
    <glyph glyph-name="seven.dnom" horiz-adv-x="303" 
d="M115 0h-37l144 342h-178v32h215v-31z" />
    <glyph glyph-name="eight.dnom" horiz-adv-x="317" 
d="M160 -10c-71 0 -116 52 -116 103c0 52 44 89 74 101c-30 11 -62 45 -62 86c0 61 51 96 104 96c48 0 103 -29 103 -93c0 -41 -34 -71 -69 -87c33 -11 79 -45 79 -100c0 -56 -43 -106 -113 -106zM160 20c42 0 78 28 78 76c0 49 -52 77 -83 86c-29 -8 -76 -46 -76 -86
c0 -43 38 -76 81 -76zM228 282c0 44 -35 64 -68 64c-27 0 -69 -18 -69 -64s44 -71 65 -75c26 8 72 40 72 75z" />
    <glyph glyph-name="nine.dnom" horiz-adv-x="328" 
d="M156 20c60 0 93 88 95 161c-19 -28 -51 -60 -95 -60c-82 0 -112 69 -112 126c0 56 31 126 116 126c102 0 124 -118 124 -192c0 -105 -50 -191 -129 -191c-32 0 -74 14 -96 38l22 24c20 -22 41 -32 75 -32zM158 149c33 0 78 31 90 70c0 48 -21 125 -92 125
c-36 0 -77 -33 -77 -97c0 -56 30 -98 79 -98z" />
    <glyph glyph-name="f_j" horiz-adv-x="540" 
d="M455 490v-488c0 -112 -53 -242 -197 -242c-23 0 -44 3 -62 11l20 36c13 -4 26 -7 43 -7c136 0 151 160 151 202v448h-257v-450h-45v450h-74v40h74v45c0 107 83 154 163 154c23 0 50 -4 71 -8v-36c-13 2 -33 6 -51 6c-69 0 -138 -36 -138 -118v-43h302zM398 655
c0 18 17 35 35 35c21 0 35 -17 35 -35c0 -21 -14 -35 -35 -35c-18 0 -35 14 -35 35z" />
    <glyph glyph-name="brokenbar.case" horiz-adv-x="253" 
d="M149 -71h-45v402h45v-402zM149 741v-340h-45v340h45z" />
    <glyph glyph-name="ampersand.salt" horiz-adv-x="690" 
d="M335 687c86 0 166 -71 166 -161v-19h-45l-1 21c-3 61 -43 119 -119 119c-81 0 -140 -66 -140 -131c0 -48 23 -66 317 -380c30 48 48 116 52 184h50c-3 -81 -26 -163 -70 -221l91 -99h-54l-64 68c-48 -51 -109 -78 -185 -78c-153 0 -249 113 -249 243c0 69 37 145 91 205
c-15 23 -25 47 -25 74c0 88 68 175 185 175zM333 30c65 0 118 26 156 71c-90 101 -190 207 -280 306c-54 -53 -75 -114 -75 -174c0 -106 70 -203 199 -203z" />
    <glyph glyph-name="aringacute" unicode="&#x1fb;" horiz-adv-x="483" 
d="M95 414l-30 30c35 29 97 56 167 56c150 0 177 -116 177 -212v-288h-40l-3 85c-20 -29 -82 -95 -166 -95c-96 0 -156 71 -156 136c0 113 123 164 325 164c0 89 -15 170 -137 170c-47 0 -107 -24 -137 -46zM368 196v54c-111 -1 -277 -20 -277 -120c0 -66 53 -101 109 -101
c73 0 148 81 158 102c10 17 10 50 10 65zM164 592c0 40 33 73 75 73s75 -33 75 -73c0 -41 -33 -74 -75 -74s-75 33 -75 74zM199 592c0 -25 17 -44 40 -44c22 0 40 19 40 44c0 23 -18 43 -40 43c-23 0 -40 -20 -40 -43zM259 680h-49l68 88h53z" />
    <glyph glyph-name="a.salt" horiz-adv-x="557" 
d="M428 404l5 86h40v-490h-40l-5 80c-26 -44 -85 -90 -155 -90c-126 0 -219 112 -219 251c0 144 91 259 216 259c65 0 127 -43 158 -96zM268 460c-93 0 -164 -92 -164 -215c0 -126 71 -215 164 -215c92 0 161 89 161 215c0 123 -69 215 -161 215z" />
    <glyph glyph-name="aring.salt" horiz-adv-x="557" 
d="M198 617c0 40 33 73 75 73s75 -33 75 -73c0 -41 -33 -74 -75 -74s-75 33 -75 74zM233 617c0 -25 17 -44 40 -44c22 0 40 19 40 44c0 23 -18 43 -40 43c-23 0 -40 -20 -40 -43zM428 404l5 86h40v-490h-40l-5 80c-26 -44 -85 -90 -155 -90c-126 0 -219 112 -219 251
c0 144 91 259 216 259c65 0 127 -43 158 -96zM268 460c-93 0 -164 -92 -164 -215c0 -126 71 -215 164 -215c92 0 161 89 161 215c0 123 -69 215 -161 215z" />
    <glyph glyph-name="adieresis.salt" horiz-adv-x="557" 
d="M428 404l5 86h40v-490h-40l-5 80c-26 -44 -85 -90 -155 -90c-126 0 -219 112 -219 251c0 144 91 259 216 259c65 0 127 -43 158 -96zM268 460c-93 0 -164 -92 -164 -215c0 -126 71 -215 164 -215c92 0 161 89 161 215c0 123 -69 215 -161 215zM151 658c0 18 14 32 32 32
s32 -14 32 -32s-14 -32 -32 -32s-32 14 -32 32zM321 658c0 18 14 32 32 32s32 -14 32 -32s-14 -32 -32 -32s-32 14 -32 32z" />
    <glyph glyph-name="atilde.salt" horiz-adv-x="557" 
d="M376 680h35c-5 -30 -20 -71 -87 -74c-68 3 -83 53 -120 53c-28 0 -44 -17 -49 -44h-35c6 33 23 74 84 74c59 0 73 -53 120 -53c30 0 47 13 52 44zM428 404l5 86h40v-490h-40l-5 80c-26 -44 -85 -90 -155 -90c-126 0 -219 112 -219 251c0 144 91 259 216 259
c65 0 127 -43 158 -96zM268 460c-93 0 -164 -92 -164 -215c0 -126 71 -215 164 -215c92 0 161 89 161 215c0 123 -69 215 -161 215z" />
    <glyph glyph-name="acircumflex.salt" horiz-adv-x="557" 
d="M428 404l5 86h40v-490h-40l-5 80c-26 -44 -85 -90 -155 -90c-126 0 -219 112 -219 251c0 144 91 259 216 259c65 0 127 -43 158 -96zM268 460c-93 0 -164 -92 -164 -215c0 -126 71 -215 164 -215c92 0 161 89 161 215c0 123 -69 215 -161 215zM210 593h-40l68 87h51
l69 -87h-40l-54 54z" />
    <glyph glyph-name="aacute.salt" horiz-adv-x="557" 
d="M290 592h-49l68 88h53zM428 404l5 86h40v-490h-40l-5 80c-26 -44 -85 -90 -155 -90c-126 0 -219 112 -219 251c0 144 91 259 216 259c65 0 127 -43 158 -96zM268 460c-93 0 -164 -92 -164 -215c0 -126 71 -215 164 -215c92 0 161 89 161 215c0 123 -69 215 -161 215z" />
    <glyph glyph-name="agrave.salt" horiz-adv-x="557" 
d="M287 592h-49l-72 88h53zM428 404l5 86h40v-490h-40l-5 80c-26 -44 -85 -90 -155 -90c-126 0 -219 112 -219 251c0 144 91 259 216 259c65 0 127 -43 158 -96zM268 460c-93 0 -164 -92 -164 -215c0 -126 71 -215 164 -215c92 0 161 89 161 215c0 123 -69 215 -161 215z
" />
    <glyph glyph-name="abreve.salt" horiz-adv-x="557" 
d="M185 680c6 -40 45 -62 81 -62c37 0 78 21 84 62h35c-12 -61 -63 -92 -119 -92c-55 0 -104 32 -116 92h35zM428 404l5 86h40v-490h-40l-5 80c-26 -44 -85 -90 -155 -90c-126 0 -219 112 -219 251c0 144 91 259 216 259c65 0 127 -43 158 -96zM268 460
c-93 0 -164 -92 -164 -215c0 -126 71 -215 164 -215c92 0 161 89 161 215c0 123 -69 215 -161 215z" />
    <glyph glyph-name="aogonek.salt" horiz-adv-x="557" 
d="M428 404l5 86h40v-490c-36 -23 -61 -64 -61 -109c0 -47 29 -81 75 -95l-11 -26c-59 17 -99 62 -99 124c0 44 24 88 55 112l-4 74c-26 -44 -85 -90 -155 -90c-126 0 -219 112 -219 251c0 144 91 259 216 259c65 0 127 -43 158 -96zM268 460c-93 0 -164 -92 -164 -215
c0 -126 71 -215 164 -215c92 0 161 89 161 215c0 123 -69 215 -161 215z" />
    <glyph glyph-name="amacron.salt" horiz-adv-x="557" 
d="M428 404l5 86h40v-490h-40l-5 80c-26 -44 -85 -90 -155 -90c-126 0 -219 112 -219 251c0 144 91 259 216 259c65 0 127 -43 158 -96zM268 460c-93 0 -164 -92 -164 -215c0 -126 71 -215 164 -215c92 0 161 89 161 215c0 123 -69 215 -161 215zM372 650h-214v30h214v-30z
" />
    <glyph glyph-name="aringacute.salt" horiz-adv-x="557" 
d="M428 404l5 86h40v-490h-40l-5 80c-26 -44 -85 -90 -155 -90c-126 0 -219 112 -219 251c0 144 91 259 216 259c65 0 127 -43 158 -96zM268 460c-93 0 -164 -92 -164 -215c0 -126 71 -215 164 -215c92 0 161 89 161 215c0 123 -69 215 -161 215zM194 592c0 40 33 73 75 73
s75 -33 75 -73c0 -41 -33 -74 -75 -74s-75 33 -75 74zM229 592c0 -25 17 -44 40 -44c22 0 40 19 40 44c0 23 -18 43 -40 43c-23 0 -40 -20 -40 -43zM289 680h-49l68 88h53z" />
    <glyph glyph-name="Aringacute" unicode="&#x1fa;" horiz-adv-x="568" 
d="M212 724c0 40 33 73 75 73s75 -33 75 -73c0 -31 -20 -58 -47 -69l239 -655h-45l-83 233h-283l-84 -233h-45l239 658c-25 12 -41 37 -41 66zM160 273h252l-129 337zM247 724c0 -25 17 -44 43 -44c21 2 37 20 37 44c0 23 -18 43 -40 43c-23 0 -40 -20 -40 -43zM309 812h-49
l68 88h53z" />
    <glyph glyph-name="AEacute" unicode="&#x1fc;" horiz-adv-x="830" 
d="M766 640h-310v-250h283v-40h-283v-310h310v-40h-356v235h-220c-41 -77 -85 -163 -126 -235h-50l366 680h386v-40zM215 275h196v365zM465 769h-50l68 87h53z" />
    <glyph glyph-name="aeacute" unicode="&#x1fd;" horiz-adv-x="823" 
d="M232 500c95 0 148 -46 169 -92c44 53 85 92 181 92c140 0 209 -104 209 -231c0 -9 0 -17 -1 -26h-374c0 -132 78 -213 177 -213c57 0 118 27 146 77l33 -29c-39 -59 -98 -88 -179 -88c-104 0 -161 54 -193 114c-54 -74 -127 -115 -201 -115c-95 0 -155 73 -155 136
c0 115 132 159 325 159c0 88 -13 176 -137 176c-47 0 -106 -24 -138 -46l-33 31c36 34 111 55 171 55zM368 196v48c-109 -1 -277 -5 -277 -112c0 -68 53 -105 108 -105c74 0 149 73 159 94c8 18 10 60 10 75zM582 460c-78 0 -158 -62 -163 -176h322c0 114 -79 176 -159 176z
M422 592h-49l68 88h53z" />
    <glyph glyph-name="aeacute.salt" horiz-adv-x="885" 
d="M428 404l5 86h40v-81c39 61 102 91 174 91c126 0 206 -89 206 -233v-24h-373c0 -125 68 -213 178 -213c56 0 109 21 145 74l34 -26c-43 -59 -98 -88 -179 -88c-88 0 -149 38 -185 95v-85h-40l-5 80c-26 -44 -85 -90 -155 -90c-126 0 -219 112 -219 251
c0 144 91 259 216 259c65 0 127 -43 158 -96zM268 460c-93 0 -164 -92 -164 -215c0 -126 71 -215 164 -215c92 0 161 89 161 215c0 123 -69 215 -161 215zM647 460c-81 0 -164 -67 -167 -176h323c0 118 -78 176 -156 176zM480 592h-49l68 88h53z" />
    <glyph glyph-name="Oslashacute" unicode="&#x1fe;" horiz-adv-x="713" 
d="M400 769h-50l68 87h53zM359 690c39 0 76 -9 110 -24l18 44h46l-27 -65c91 -60 153 -174 153 -305c0 -192 -133 -350 -300 -350c-41 0 -80 9 -115 25l-23 -55h-45l31 76c-92 60 -153 174 -153 304c0 193 134 350 305 350zM609 340c0 114 -48 212 -120 265l-230 -552
c31 -15 64 -23 100 -23c138 0 250 133 250 310zM359 650c-144 0 -255 -135 -255 -310c0 -115 47 -212 119 -265l230 552c-29 15 -61 23 -94 23z" />
    <glyph glyph-name="oslashacute" unicode="&#x1ff;" horiz-adv-x="542" 
d="M305 592h-49l68 88h53zM272 500c26 0 51 -7 75 -18l20 48h45l-28 -69c61 -45 104 -125 104 -216c0 -142 -103 -255 -216 -255c-27 0 -52 6 -76 16l-21 -53h-45l30 74c-63 44 -106 125 -106 218c0 141 101 255 218 255zM272 460c-90 0 -168 -94 -168 -215
c0 -75 29 -140 73 -178l155 378c-19 9 -39 15 -60 15zM438 245c0 73 -29 137 -71 175l-155 -376c19 -9 39 -14 60 -14c89 0 166 93 166 215z" />
    <glyph glyph-name="ae.salt" horiz-adv-x="874" 
d="M418 404l5 86h40v-79c39 59 102 89 173 89c126 0 206 -89 206 -233v-24h-373c0 -125 68 -213 178 -213c56 0 109 21 145 74l34 -26c-43 -59 -98 -88 -179 -88c-87 0 -147 38 -184 94v-84h-40l-5 80c-26 -44 -85 -90 -155 -90c-126 0 -219 112 -219 251
c0 144 91 259 216 259c65 0 127 -43 158 -96zM258 460c-93 0 -164 -92 -164 -215c0 -126 71 -215 164 -215c92 0 161 89 161 215v9c-4 118 -72 206 -161 206zM636 460c-81 0 -164 -67 -167 -176h323c0 118 -78 176 -156 176z" />
    <glyph glyph-name="onethird" unicode="&#x2153;" horiz-adv-x="672" 
d="M148 0h-45l410 681h45zM229 334v-30h-175v30h70v287l-39 -47l-27 21l66 85h35v-346h70zM618 96c0 -64 -46 -106 -113 -106c-64 0 -109 51 -109 114h35c0 -60 43 -83 74 -83c32 0 79 21 79 79s-41 80 -83 80h-44v30h43c37 0 72 27 72 71s-43 66 -72 66
c-31 0 -69 -24 -69 -84h-35c0 63 40 114 104 114c63 0 107 -45 107 -96c0 -43 -20 -68 -52 -83c34 -14 63 -48 63 -102z" />
    <glyph glyph-name="twothirds" unicode="&#x2154;" horiz-adv-x="711" 
d="M189 0h-45l410 681h45zM157 659c-31 0 -67 -23 -67 -83h-36c0 63 39 114 103 114c67 0 107 -42 107 -106c0 -116 -176 -146 -176 -247h179v-30h-213v44c0 86 175 147 175 231c0 58 -40 77 -72 77zM657 96c0 -64 -46 -106 -113 -106c-64 0 -109 51 -109 114h35
c0 -60 43 -83 74 -83c32 0 79 21 79 79s-41 80 -83 80h-44v30h43c37 0 72 27 72 71s-43 66 -72 66c-31 0 -69 -24 -69 -84h-35c0 63 40 114 104 114c63 0 107 -45 107 -96c0 -43 -20 -68 -52 -83c34 -14 63 -48 63 -102z" />
    <glyph glyph-name="oneeighth" unicode="&#x215b;" horiz-adv-x="680" 
d="M229 334v-30h-175v30h70v287l-39 -47l-27 21l66 85h35v-346h70zM157 0h-45l410 681h45zM513 -10c-71 0 -116 52 -116 103c0 52 44 89 74 101c-30 11 -62 45 -62 86c0 61 51 96 104 96c48 0 103 -29 103 -93c0 -41 -34 -71 -69 -87c33 -11 79 -45 79 -100
c0 -56 -43 -106 -113 -106zM513 20c42 0 78 28 78 76c0 49 -52 77 -83 86c-29 -8 -76 -46 -76 -86c0 -43 38 -76 81 -76zM581 282c0 44 -35 64 -68 64c-27 0 -69 -18 -69 -64s44 -71 65 -75c26 8 72 40 72 75z" />
    <glyph glyph-name="threeeighths" unicode="&#x215c;" horiz-adv-x="678" 
d="M154 0h-45l410 681h45zM511 -10c-71 0 -116 52 -116 103c0 52 44 89 74 101c-30 11 -62 45 -62 86c0 61 51 96 104 96c48 0 103 -29 103 -93c0 -41 -34 -71 -69 -87c33 -11 79 -45 79 -100c0 -56 -43 -106 -113 -106zM511 20c42 0 78 28 78 76c0 49 -52 77 -83 86
c-29 -8 -76 -46 -76 -86c0 -43 38 -76 81 -76zM579 282c0 44 -35 64 -68 64c-27 0 -69 -18 -69 -64s44 -71 65 -75c26 8 72 40 72 75zM276 409c0 -64 -46 -106 -113 -106c-64 0 -109 51 -109 114h35c0 -60 43 -83 74 -83c32 0 79 21 79 79s-41 80 -83 80h-44v30h43
c37 0 72 27 72 71s-43 66 -72 66c-31 0 -69 -24 -69 -84h-35c0 63 40 114 104 114c63 0 107 -45 107 -96c0 -43 -20 -68 -52 -83c34 -14 63 -48 63 -102z" />
    <glyph glyph-name="fiveeighths" unicode="&#x215d;" horiz-adv-x="672" 
d="M119 650l-18 -116c16 14 40 21 63 21c47 0 112 -32 112 -124c0 -67 -39 -131 -113 -131c-64 0 -106 51 -109 105h36c10 -50 41 -75 72 -75c42 0 79 39 79 101c0 54 -41 94 -85 94c-23 0 -46 -10 -64 -36h-35l31 191h167v-30h-136zM149 0h-45l410 681h45zM505 -10
c-71 0 -116 52 -116 103c0 52 44 89 74 101c-30 11 -62 45 -62 86c0 61 51 96 104 96c48 0 103 -29 103 -93c0 -41 -34 -71 -69 -87c33 -11 79 -45 79 -100c0 -56 -43 -106 -113 -106zM505 20c42 0 78 28 78 76c0 49 -52 77 -83 86c-29 -8 -76 -46 -76 -86
c0 -43 38 -76 81 -76zM573 282c0 44 -35 64 -68 64c-27 0 -69 -18 -69 -64s44 -71 65 -75c26 8 72 40 72 75z" />
    <glyph glyph-name="seveneighths" unicode="&#x215e;" horiz-adv-x="622" 
d="M99 0h-45l410 681h45zM455 -10c-71 0 -116 52 -116 103c0 52 44 89 74 101c-30 11 -62 45 -62 86c0 61 51 96 104 96c48 0 103 -29 103 -93c0 -41 -34 -71 -69 -87c33 -11 79 -45 79 -100c0 -56 -43 -106 -113 -106zM455 20c42 0 78 28 78 76c0 49 -52 77 -83 86
c-29 -8 -76 -46 -76 -86c0 -43 38 -76 81 -76zM523 282c0 44 -35 64 -68 64c-27 0 -69 -18 -69 -64s44 -71 65 -75c26 8 72 40 72 75zM148 306h-37l144 342h-178v32h215v-31z" />
    <glyph glyph-name="A" unicode="A" horiz-adv-x="568" 
d="M554 0h-45l-83 233h-283l-84 -233h-45l247 680h45zM160 273h252l-129 337z" />
    <glyph glyph-name="Omega" unicode="&#x2126;" horiz-adv-x="754" 
d="M378 690c169 0 301 -159 301 -352c0 -126 -57 -232 -144 -298h165v-40h-238v42c100 38 167 155 167 296c0 175 -110 312 -251 312c-143 0 -253 -137 -253 -312c0 -144 67 -258 164 -296v-42h-235v40h162c-87 66 -144 172 -144 298c0 193 135 352 306 352z" />
    <glyph glyph-name="uni0394" unicode="&#x394;" horiz-adv-x="712" 
d="M355 672l303 -672h-604zM356 568l-235 -528h469z" />
    <glyph glyph-name="uni03BC" unicode="&#x3bc;" horiz-adv-x="541" 
d="M417 0l-5 121c-23 -63 -101 -131 -182 -131c-37 0 -74 14 -101 40v-262h-45v722h45v-336c0 -78 42 -124 96 -124c83 0 187 91 187 214v246h45v-490h-40z" />
    <glyph glyph-name="uni2215" unicode="&#x2215;" horiz-adv-x="225" 
d="M-70 0h-45l410 681h45z" />
    <glyph glyph-name="commaaccent.salt" horiz-adv-x="106" 
d="M54 548h-30c14 38 23 85 23 132h35c-2 -47 -12 -97 -28 -132z" />
    <glyph glyph-name="uni0237" unicode="&#x237;" horiz-adv-x="248" 
d="M164 490v-488c0 -112 -53 -242 -198 -242c-24 0 -44 3 -62 11l19 38c13 -6 27 -9 44 -9c137 0 152 160 152 202v488h45z" />
    <glyph glyph-name="g.salt" horiz-adv-x="556" 
d="M427 -2l1 87c-37 -57 -93 -95 -158 -95c-125 0 -216 113 -216 257c0 139 91 253 217 253c65 0 127 -46 157 -92l5 82h40l-1 -501c0 -117 -60 -222 -198 -230c-94 3 -159 41 -187 105h52c26 -39 68 -65 135 -65c88 0 153 94 153 199zM268 30c92 0 161 92 161 215
s-69 215 -161 215c-93 0 -164 -92 -164 -215s71 -215 164 -215z" />
    <glyph glyph-name="gdotaccent.salt" horiz-adv-x="556" 
d="M427 -2l1 87c-37 -57 -93 -95 -158 -95c-125 0 -216 113 -216 257c0 139 91 253 217 253c65 0 127 -46 157 -92l5 82h40l-1 -501c0 -117 -60 -222 -198 -230c-94 3 -159 41 -187 105h52c26 -39 68 -65 135 -65c88 0 153 94 153 199zM268 30c92 0 161 92 161 215
s-69 215 -161 215c-93 0 -164 -92 -164 -215s71 -215 164 -215zM264 650c22 0 42 -15 42 -35c0 -21 -20 -38 -42 -38c-24 0 -41 17 -41 38c0 20 17 35 41 35z" />
    <glyph glyph-name="gcircumflex.salt" horiz-adv-x="556" 
d="M427 -2l1 87c-37 -57 -93 -95 -158 -95c-125 0 -216 113 -216 257c0 139 91 253 217 253c65 0 127 -46 157 -92l5 82h40l-1 -501c0 -117 -60 -222 -198 -230c-94 3 -159 41 -187 105h52c26 -39 68 -65 135 -65c88 0 153 94 153 199zM268 30c92 0 161 92 161 215
s-69 215 -161 215c-93 0 -164 -92 -164 -215s71 -215 164 -215zM210 594h-40l68 87h51l69 -87h-40l-54 54z" />
    <glyph glyph-name="gbreve.salt" horiz-adv-x="556" 
d="M427 -2l1 87c-37 -57 -93 -95 -158 -95c-125 0 -216 113 -216 257c0 139 91 253 217 253c65 0 127 -46 157 -92l5 82h40l-1 -501c0 -117 -60 -222 -198 -230c-94 3 -159 41 -187 105h52c26 -39 68 -65 135 -65c88 0 153 94 153 199zM268 30c92 0 161 92 161 215
s-69 215 -161 215c-93 0 -164 -92 -164 -215s71 -215 164 -215zM185 680c6 -40 45 -62 81 -62c37 0 78 21 84 62h35c-12 -61 -63 -92 -119 -92c-55 0 -104 32 -116 92h35z" />
    <glyph glyph-name="uni0123.salt" horiz-adv-x="556" 
d="M427 -2l1 87c-37 -57 -93 -95 -158 -95c-125 0 -216 113 -216 257c0 139 91 253 217 253c65 0 127 -46 157 -92l5 82h40l-1 -501c0 -117 -60 -222 -198 -230c-94 3 -159 41 -187 105h52c26 -39 68 -65 135 -65c88 0 153 94 153 199zM268 30c92 0 161 92 161 215
s-69 215 -161 215c-93 0 -164 -92 -164 -215s71 -215 164 -215zM277 680h30c-14 -38 -23 -85 -23 -132h-35c2 47 12 97 28 132z" />
    </font>
</defs>
</svg>
